<svg class="w-full" viewBox="0 0 336 116" fill="none" xmlns="http://www.w3.org/2000/svg">
    <rect height="115.752" fill="#D5CCC6"></rect>
    <g clip-path="url(#clip0_434_1026)">
        <path
            d="M32.496 40.544L32.928 48.8C32.224 49.984 31.28 51.056 30.096 52.016C28.912 52.976 27.44 53.76 25.68 54.368C23.92 54.944 21.84 55.232 19.44 55.232C15.536 55.2 12.112 54.496 9.168 53.12C6.256 51.712 4 49.712 2.4 47.12C0.8 44.528 0 41.392 0 37.712C0 34.128 0.784 31.04 2.352 28.448C3.92 25.824 6.16 23.808 9.072 22.4C12.016 20.992 15.52 20.288 19.584 20.288C22.144 20.288 24.432 20.544 26.448 21.056C28.496 21.568 30.208 22.192 31.584 22.928L31.632 31.136H31.2C30.336 27.968 28.928 25.712 26.976 24.368C25.024 22.992 22.736 22.304 20.112 22.304C17.552 22.304 15.36 22.928 13.536 24.176C11.712 25.424 10.304 27.184 9.312 29.456C8.32 31.728 7.824 34.448 7.824 37.616C7.824 40.784 8.288 43.52 9.216 45.824C10.176 48.128 11.52 49.92 13.248 51.2C15.008 52.48 17.072 53.152 19.44 53.216C21.904 53.216 23.984 52.816 25.68 52.016C27.376 51.216 28.736 49.888 29.76 48.032C30.816 46.176 31.6 43.68 32.112 40.544H32.496Z"
            fill="#2B241B"></path>
        <path
            d="M52.2851 20L67.9811 54.272H59.3411L49.3571 29.264L52.2851 20ZM41.9651 51.056C41.7091 51.696 41.6611 52.24 41.8211 52.688C41.9811 53.136 42.2531 53.488 42.6371 53.744C43.0211 53.968 43.4051 54.08 43.7891 54.08H44.2211V54.56H33.9491V54.08C33.9491 54.08 34.0291 54.08 34.1891 54.08C34.3171 54.08 34.3811 54.08 34.3811 54.08C35.1171 54.08 35.8691 53.856 36.6371 53.408C37.4371 52.928 38.0931 52.144 38.6051 51.056H41.9651ZM52.2851 20L52.4771 25.856L40.5731 54.416H37.0691L49.5011 26.288C49.5971 26.096 49.7571 25.744 49.9811 25.232C50.2371 24.688 50.4931 24.08 50.7491 23.408C51.0371 22.736 51.2931 22.096 51.5171 21.488C51.7411 20.848 51.8531 20.352 51.8531 20H52.2851ZM57.3251 43.136V45.152H43.2131V43.136H57.3251ZM58.0451 51.056H66.4451C66.9891 52.144 67.6451 52.928 68.4131 53.408C69.1811 53.856 69.9331 54.08 70.6691 54.08C70.6691 54.08 70.7331 54.08 70.8611 54.08C70.9891 54.08 71.0531 54.08 71.0531 54.08V54.56H55.7891V54.08H56.2211C56.8611 54.08 57.4211 53.824 57.9011 53.312C58.3811 52.768 58.4291 52.016 58.0451 51.056Z"
            fill="#2B241B"></path>
        <path
            d="M107.139 20.288L107.523 25.52L93.2674 50.24C93.2674 50.24 93.1074 50.528 92.7874 51.104C92.4674 51.648 92.1474 52.32 91.8274 53.12C91.5394 53.92 91.3954 54.72 91.3954 55.52H90.9154L89.0434 51.344L107.139 20.288ZM74.5954 51.056V54.56H69.2674V54.08C69.2994 54.08 69.4434 54.08 69.6994 54.08C69.9234 54.08 70.0354 54.08 70.0354 54.08C70.8994 54.08 71.6674 53.824 72.3394 53.312C73.0114 52.768 73.4114 52.016 73.5394 51.056H74.5954ZM76.7074 51.824C76.7074 51.856 76.7074 51.888 76.7074 51.92C76.7074 51.952 76.7074 52 76.7074 52.064C76.7074 52.576 76.8834 53.056 77.2354 53.504C77.6194 53.92 78.0674 54.128 78.5794 54.128H79.2994V54.56H76.3714V51.824H76.7074ZM77.5234 20.288H77.9554L79.6354 25.088L76.4194 54.56H73.0594L77.5234 20.288ZM77.9554 20.288L93.6514 46.064L90.9154 55.52L76.7074 31.664L77.9554 20.288ZM107.571 20.288L112.131 54.56H104.403L102.003 32.48L107.139 20.288H107.571ZM110.643 51.056H111.651C111.811 52.016 112.227 52.768 112.899 53.312C113.571 53.824 114.323 54.08 115.155 54.08C115.155 54.08 115.283 54.08 115.539 54.08C115.795 54.08 115.923 54.08 115.923 54.08V54.56H110.643V51.056ZM104.115 51.824H104.451V54.56H101.523V54.128H102.243C102.787 54.128 103.235 53.92 103.587 53.504C103.939 53.056 104.115 52.576 104.115 52.064C104.115 52 104.115 51.952 104.115 51.92C104.115 51.888 104.115 51.856 104.115 51.824Z"
            fill="#2B241B"></path>
        <path
            d="M128.361 20.96V54.56H121.161V20.96H128.361ZM121.305 51.056V54.56H117.465V54.08C117.465 54.08 117.561 54.08 117.753 54.08C117.977 54.08 118.089 54.08 118.089 54.08C118.921 54.08 119.625 53.792 120.201 53.216C120.809 52.608 121.129 51.888 121.161 51.056H121.305ZM121.305 24.464H121.161C121.129 23.632 120.809 22.928 120.201 22.352C119.625 21.744 118.921 21.44 118.089 21.44C118.089 21.44 117.977 21.44 117.753 21.44C117.561 21.44 117.465 21.44 117.465 21.44V20.96H121.305V24.464ZM128.217 51.056H128.361C128.393 51.888 128.697 52.608 129.273 53.216C129.881 53.792 130.601 54.08 131.433 54.08C131.433 54.08 131.529 54.08 131.721 54.08C131.913 54.08 132.025 54.08 132.057 54.08V54.56H128.217V51.056ZM128.217 24.464V20.96H132.057V21.44C132.025 21.44 131.913 21.44 131.721 21.44C131.529 21.44 131.433 21.44 131.433 21.44C130.601 21.44 129.881 21.744 129.273 22.352C128.697 22.928 128.393 23.632 128.361 24.464H128.217Z"
            fill="#2B241B"></path>
        <path
            d="M146.924 20.96V54.56H139.724V20.96H146.924ZM159.596 52.496L160.748 54.56H146.78V52.496H159.596ZM163.1 44.72L160.892 54.56H151.484L153.212 52.496C154.812 52.496 156.22 52.192 157.436 51.584C158.652 50.944 159.692 50.048 160.556 48.896C161.42 47.712 162.108 46.32 162.62 44.72H163.1ZM139.868 51.056V54.56H136.028V54.08C136.028 54.08 136.124 54.08 136.316 54.08C136.54 54.08 136.652 54.08 136.652 54.08C137.484 54.08 138.188 53.792 138.764 53.216C139.372 52.608 139.692 51.888 139.724 51.056H139.868ZM139.868 24.464H139.724C139.692 23.632 139.372 22.928 138.764 22.352C138.188 21.744 137.484 21.44 136.652 21.44C136.652 21.44 136.54 21.44 136.316 21.44C136.124 21.44 136.028 21.44 136.028 21.44V20.96H139.868V24.464ZM146.78 24.464V20.96H150.62V21.44C150.588 21.44 150.476 21.44 150.284 21.44C150.092 21.44 149.996 21.44 149.996 21.44C149.164 21.44 148.444 21.744 147.836 22.352C147.26 22.928 146.956 23.632 146.924 24.464H146.78Z"
            fill="#2B241B"></path>
        <path
            d="M180.629 20L196.325 54.272H187.685L177.701 29.264L180.629 20ZM170.309 51.056C170.053 51.696 170.005 52.24 170.165 52.688C170.325 53.136 170.597 53.488 170.981 53.744C171.365 53.968 171.749 54.08 172.133 54.08H172.565V54.56H162.293V54.08C162.293 54.08 162.373 54.08 162.533 54.08C162.661 54.08 162.725 54.08 162.725 54.08C163.461 54.08 164.213 53.856 164.981 53.408C165.781 52.928 166.437 52.144 166.949 51.056H170.309ZM180.629 20L180.821 25.856L168.917 54.416H165.413L177.845 26.288C177.941 26.096 178.101 25.744 178.325 25.232C178.581 24.688 178.837 24.08 179.093 23.408C179.381 22.736 179.637 22.096 179.861 21.488C180.085 20.848 180.197 20.352 180.197 20H180.629ZM185.669 43.136V45.152H171.557V43.136H185.669ZM186.389 51.056H194.789C195.333 52.144 195.989 52.928 196.757 53.408C197.525 53.856 198.277 54.08 199.013 54.08C199.013 54.08 199.077 54.08 199.205 54.08C199.333 54.08 199.397 54.08 199.397 54.08V54.56H184.133V54.08H184.565C185.205 54.08 185.765 53.824 186.245 53.312C186.725 52.768 186.773 52.016 186.389 51.056Z"
            fill="#2B241B"></path>
        <path
            d="M213.717 49.9359C213.408 49.9359 213.146 49.8773 212.933 49.7599C212.73 49.6533 212.57 49.5413 212.453 49.4239C212.336 49.3066 212.266 49.2319 212.245 49.1999C212.224 49.1573 212.213 49.1306 212.213 49.1199C212.213 49.0666 212.245 49.0399 212.309 49.0399C212.373 49.0399 212.485 49.0933 212.645 49.1999C212.816 49.3173 213.088 49.3759 213.461 49.3759C213.642 49.3759 213.829 49.3439 214.021 49.2799C214.213 49.2266 214.389 49.1306 214.549 48.9919C214.826 48.7359 215.072 48.3519 215.285 47.8399C215.498 47.3173 215.685 46.7039 215.845 45.9999C216.016 45.2959 216.16 44.5333 216.277 43.7119C216.394 42.8906 216.49 42.0479 216.565 41.1839C216.65 40.3199 216.714 39.4719 216.757 38.6399C216.736 38.6293 216.709 38.6239 216.677 38.6239C216.602 38.8159 216.528 39.0239 216.453 39.2479C216.378 39.4719 216.325 39.5839 216.293 39.5839C216.282 39.5839 216.277 39.5519 216.277 39.4879C216.277 39.4239 216.293 39.3173 216.325 39.1679C216.357 39.0079 216.394 38.8053 216.437 38.5599C215.626 38.3786 214.816 38.1866 214.005 37.9839C213.205 37.7706 212.474 37.5679 211.813 37.3759C211.909 37.4719 212.005 37.5626 212.101 37.6479C212.197 37.7333 212.245 37.7919 212.245 37.8239C212.245 37.8346 212.234 37.8399 212.213 37.8399C212.096 37.8399 211.925 37.8079 211.701 37.7439C211.488 37.6693 211.248 37.5839 210.981 37.4879C210.714 37.3813 210.458 37.2799 210.213 37.1839C209.978 37.0773 209.781 36.9866 209.621 36.9119C209.472 36.8266 209.397 36.7786 209.397 36.7679C209.397 36.6613 209.434 36.5226 209.509 36.3519C209.573 36.1813 209.664 36.0266 209.781 35.8879C209.898 35.7493 210.016 35.6799 210.133 35.6799C210.144 35.6799 210.154 35.6853 210.165 35.6959C210.176 35.6959 210.186 35.6959 210.197 35.6959C211.21 36.0266 212.266 36.3679 213.365 36.7199C214.464 37.0719 215.546 37.4026 216.613 37.7119L216.837 36.4959C216.858 36.3466 216.954 36.2399 217.125 36.1759C217.306 36.1119 217.498 36.0799 217.701 36.0799C217.914 36.0799 218.048 36.1173 218.101 36.1919C218.165 36.2666 218.197 36.3893 218.197 36.5599C218.197 36.6133 218.197 36.6719 218.197 36.7359C218.197 36.7999 218.192 36.8639 218.181 36.9279L218.069 38.1119C219.114 38.3786 220.08 38.6026 220.965 38.7839C221.85 38.9546 222.581 39.0399 223.157 39.0399C223.658 39.0399 223.994 38.9706 224.165 38.8319C224.346 38.6826 224.437 38.4799 224.437 38.2239C224.437 37.8826 224.373 37.6373 224.245 37.4879C224.117 37.3386 224.053 37.2426 224.053 37.1999C224.053 37.1893 224.058 37.1839 224.069 37.1839C224.101 37.1839 224.138 37.1999 224.181 37.2319C224.234 37.2533 224.32 37.3173 224.437 37.4239C224.554 37.5199 224.661 37.6533 224.757 37.8239C224.864 37.9839 224.917 38.1919 224.917 38.4479C224.917 38.7679 224.821 39.0186 224.629 39.1999C224.437 39.3706 224.176 39.4933 223.845 39.5679C223.525 39.6319 223.173 39.6639 222.789 39.6639C222.33 39.6639 221.856 39.6319 221.365 39.5679C220.885 39.5039 220.474 39.4346 220.133 39.3599C219.802 39.2959 219.456 39.2266 219.093 39.1519C218.741 39.0773 218.373 38.9973 217.989 38.9119C217.904 39.6373 217.802 40.3893 217.685 41.1679C217.568 41.9466 217.445 42.6879 217.317 43.3919C217.189 44.0853 217.066 44.6826 216.949 45.1839C216.885 45.4293 216.794 45.7493 216.677 46.1439C216.56 46.5386 216.41 46.9546 216.229 47.3919C216.048 47.8293 215.834 48.2399 215.589 48.6239C215.354 49.0079 215.077 49.3226 214.757 49.5679C214.448 49.8133 214.101 49.9359 213.717 49.9359Z"
            fill="#2B241B"></path>
        <path
            d="M220.391 47.6479C220.028 47.6479 219.745 47.5306 219.543 47.2959C219.351 47.0613 219.217 46.7626 219.143 46.3999C219.079 46.0266 219.047 45.6533 219.047 45.2799C219.047 45.0239 219.057 44.7839 219.079 44.5599C219.1 44.3253 219.121 44.1226 219.143 43.9519C219.196 43.5146 219.265 43.0933 219.351 42.6879C219.436 42.2826 219.516 41.9359 219.591 41.6479C219.676 41.3599 219.729 41.1733 219.751 41.0879C219.793 40.9386 219.873 40.8639 219.991 40.8639C220.108 40.8639 220.241 40.9439 220.391 41.1039C220.54 41.2533 220.647 41.3759 220.711 41.4719C220.956 41.5466 221.196 41.6373 221.431 41.7439C221.665 41.8399 221.857 41.9466 222.007 42.0639C222.167 42.1813 222.247 42.3093 222.247 42.4479C222.247 42.7146 222.135 42.9813 221.911 43.2479C221.687 43.5146 221.404 43.7599 221.063 43.9839C220.721 44.2079 220.375 44.3999 220.023 44.5599C219.991 44.8159 219.975 45.0719 219.975 45.3279C219.975 45.7546 220.028 46.1279 220.135 46.4479C220.241 46.7679 220.423 46.9279 220.679 46.9279C220.903 46.9279 221.116 46.8479 221.319 46.6879C221.532 46.5279 221.729 46.3253 221.911 46.0799C222.092 45.8346 222.252 45.5893 222.391 45.3439C222.54 45.0879 222.652 44.8746 222.727 44.7039C222.748 44.6399 222.796 44.6079 222.871 44.6079C222.913 44.6079 222.935 44.6559 222.935 44.7519C222.935 44.8373 222.871 45.0186 222.743 45.2959C222.615 45.5519 222.481 45.7973 222.343 46.0319C222.215 46.2559 222.087 46.4533 221.959 46.6239C221.777 46.8586 221.553 47.0879 221.287 47.3119C221.031 47.5359 220.732 47.6479 220.391 47.6479ZM220.071 44.1119C220.444 43.9093 220.775 43.6693 221.063 43.3919C221.361 43.1039 221.511 42.7946 221.511 42.4639C221.511 42.3466 221.42 42.2293 221.239 42.1119C221.068 41.9839 220.865 41.8773 220.631 41.7919C220.503 42.1333 220.391 42.4959 220.295 42.8799C220.209 43.2639 220.135 43.6746 220.071 44.1119Z"
            fill="#2B241B"></path>
        <path
            d="M225.515 47.0559C225.12 47.0559 224.854 46.8373 224.715 46.3999C224.576 45.9519 224.507 45.4026 224.507 44.7519C224.507 44.3999 224.518 44.0586 224.539 43.7279C224.56 43.3866 224.576 43.1039 224.587 42.8799C224.416 42.8586 224.251 42.8266 224.091 42.7839C223.942 42.7306 223.824 42.6773 223.739 42.6239C223.728 42.6986 223.686 42.8533 223.611 43.0879C223.536 43.3119 223.446 43.5733 223.339 43.8719C223.243 44.1706 223.136 44.4639 223.019 44.7519C222.902 45.0399 222.79 45.2799 222.683 45.4719C222.576 45.6533 222.48 45.7439 222.395 45.7439C222.352 45.7439 222.331 45.7119 222.331 45.6479C222.331 45.5626 222.368 45.4453 222.443 45.2959C222.656 44.8586 222.848 44.4106 223.019 43.9519C223.19 43.4933 223.344 43.0186 223.483 42.5279C223.376 42.4853 223.296 42.4106 223.243 42.3039C223.2 42.1866 223.179 42.0586 223.179 41.9199C223.179 41.5359 223.232 41.2213 223.339 40.9759C223.456 40.7306 223.584 40.5493 223.723 40.4319C223.862 40.3039 223.968 40.2399 224.043 40.2399C224.171 40.2399 224.235 40.3466 224.235 40.5599C224.235 40.6666 224.208 40.8319 224.155 41.0559C224.102 41.2693 224.038 41.4933 223.963 41.7279C223.888 41.9519 223.824 42.1333 223.771 42.2719C223.771 42.2719 223.803 42.2933 223.867 42.3359C223.931 42.3786 224 42.3999 224.075 42.3999C224.182 42.3999 224.283 42.3359 224.379 42.2079C224.486 42.0693 224.608 41.9359 224.747 41.8079C224.896 41.6693 225.083 41.5999 225.307 41.5999C225.424 41.5999 225.526 41.6159 225.611 41.6479C225.696 41.6693 225.739 41.7119 225.739 41.7759V41.8239C225.632 42.0906 225.552 42.4426 225.499 42.8799C225.446 43.3066 225.419 43.7386 225.419 44.1759C225.419 44.5599 225.44 44.9226 225.483 45.2639C225.526 45.5946 225.59 45.8613 225.675 46.0639C225.771 46.2666 225.883 46.3679 226.011 46.3679C226.139 46.3679 226.262 46.2986 226.379 46.1599C226.496 46.0213 226.598 45.8719 226.683 45.7119C226.779 45.5519 226.843 45.4346 226.875 45.3599C227.099 44.9439 227.238 44.6773 227.291 44.5599C227.344 44.4319 227.414 44.3679 227.499 44.3679C227.531 44.3679 227.547 44.3893 227.547 44.4319C227.547 44.4533 227.536 44.5066 227.515 44.5919C227.387 44.9439 227.227 45.3119 227.035 45.6959C226.854 46.0693 226.635 46.3893 226.379 46.6559C226.123 46.9226 225.835 47.0559 225.515 47.0559Z"
            fill="#2B241B"></path>
        <path
            d="M230.735 47.2639C230.618 47.2639 230.49 47.2213 230.351 47.1359C230.212 47.0399 230.116 46.9386 230.063 46.8319C230.063 46.5866 230.095 46.2506 230.159 45.8239C230.223 45.3973 230.292 44.9599 230.367 44.5119C230.452 44.0533 230.527 43.6639 230.591 43.3439C230.399 43.6426 230.18 43.9679 229.935 44.3199C229.69 44.6719 229.439 45.0026 229.183 45.3119C228.927 45.6106 228.666 45.8613 228.399 46.0639C228.143 46.2559 227.903 46.3519 227.679 46.3519C227.455 46.3519 227.279 46.2773 227.151 46.1279C227.023 45.9679 226.959 45.7866 226.959 45.5839C226.959 45.5306 226.97 45.4613 226.991 45.3759C227.087 44.8853 227.274 44.4266 227.551 43.9999C227.839 43.5626 228.164 43.1786 228.527 42.8479C228.9 42.5173 229.268 42.2559 229.631 42.0639C229.994 41.8719 230.303 41.7759 230.559 41.7759C230.751 41.7759 230.932 41.8186 231.103 41.9039C231.284 41.9786 231.455 42.1066 231.615 42.2879C231.647 42.3199 231.663 42.3573 231.663 42.3999C231.663 42.4533 231.631 42.5066 231.567 42.5599C231.492 42.8159 231.412 43.1253 231.327 43.4879C231.252 43.8399 231.178 44.2079 231.103 44.5919C231.039 44.9653 230.986 45.3119 230.943 45.6319C230.9 45.9519 230.879 46.1973 230.879 46.3679C230.879 46.4853 230.895 46.5439 230.927 46.5439C231.012 46.5439 231.119 46.4533 231.247 46.2719C231.386 46.0906 231.519 45.8826 231.647 45.6479C231.775 45.4133 231.887 45.2053 231.983 45.0239C232.09 44.8426 232.154 44.7519 232.175 44.7519C232.207 44.7519 232.223 44.7946 232.223 44.8799C232.223 45.0613 232.164 45.2853 232.047 45.5519C231.93 45.8186 231.786 46.0853 231.615 46.3519C231.455 46.6079 231.29 46.8266 231.119 47.0079C230.959 47.1786 230.831 47.2639 230.735 47.2639ZM227.807 45.7599C227.956 45.7599 228.143 45.6746 228.367 45.5039C228.602 45.3333 228.842 45.1146 229.087 44.8479C229.343 44.5813 229.588 44.2986 229.823 43.9999C230.068 43.7013 230.276 43.4186 230.447 43.1519C230.628 42.8746 230.756 42.6506 230.831 42.4799C230.618 42.4799 230.372 42.5599 230.095 42.7199C229.818 42.8693 229.535 43.0666 229.247 43.3119C228.959 43.5466 228.692 43.8079 228.447 44.0959C228.202 44.3733 228.004 44.6453 227.855 44.9119C227.706 45.1786 227.631 45.4079 227.631 45.5999C227.631 45.7066 227.69 45.7599 227.807 45.7599Z"
            fill="#2B241B"></path>
        <path
            d="M233.386 55.5199C233.311 55.5199 233.226 55.5093 233.13 55.4879C233.045 55.4666 232.954 55.4293 232.858 55.3759C232.559 55.2053 232.325 54.9279 232.154 54.5439C231.983 54.1706 231.861 53.7226 231.786 53.1999C231.722 52.6773 231.69 52.1333 231.69 51.5679C231.69 51.2053 231.701 50.8426 231.722 50.4799C231.743 50.1173 231.77 49.7653 231.802 49.4239L231.562 49.4719C231.519 49.4719 231.45 49.4293 231.354 49.3439C231.269 49.2586 231.189 49.1626 231.114 49.0559C231.039 48.9599 231.002 48.8906 231.002 48.8479C231.023 48.6986 231.125 48.5279 231.306 48.3359C231.487 48.1439 231.722 47.9413 232.01 47.7279C232.01 47.6746 232.015 47.6319 232.026 47.5999C232.09 47.1093 232.191 46.5546 232.33 45.9359C232.469 45.3066 232.639 44.6506 232.842 43.9679C233.045 43.2853 233.279 42.6239 233.546 41.9839C233.343 41.8239 233.114 41.7066 232.858 41.6319C232.602 41.5573 232.362 41.5093 232.138 41.4879C231.925 41.4666 231.765 41.4559 231.658 41.4559C231.594 41.4453 231.573 41.4079 231.594 41.3439C231.626 41.2693 231.679 41.1999 231.754 41.1359C231.839 41.0613 231.914 41.0239 231.978 41.0239C232.287 41.0239 232.602 41.0453 232.922 41.0879C233.242 41.1306 233.551 41.1946 233.85 41.2799L234.026 40.9119C233.962 40.8053 233.914 40.6986 233.882 40.5919C233.861 40.4853 233.85 40.3839 233.85 40.2879C233.85 40.1813 233.866 40.0959 233.898 40.0319C233.973 39.8293 234.042 39.6693 234.106 39.5519C234.181 39.4239 234.282 39.3813 234.41 39.4239C234.591 39.4773 234.751 39.5733 234.89 39.7119C235.039 39.8506 235.093 39.9893 235.05 40.1279C234.965 40.3306 234.874 40.5493 234.778 40.7839C234.682 41.0079 234.591 41.2426 234.506 41.4879C235.103 41.6906 235.647 41.9626 236.138 42.3039C236.639 42.6453 237.055 43.0186 237.386 43.4239C237.642 43.7653 237.765 44.1226 237.754 44.4959L238.266 44.2399C238.447 44.1439 238.586 44.0799 238.682 44.0479C238.778 44.0053 238.847 43.9839 238.89 43.9839C238.954 43.9839 238.949 44.0266 238.874 44.1119C238.799 44.1866 238.698 44.2719 238.57 44.3679C238.453 44.4533 238.346 44.5226 238.25 44.5759L237.706 44.8479C237.653 45.1466 237.53 45.4559 237.338 45.7759C237.157 46.0959 236.933 46.4213 236.666 46.7519C236.335 47.1573 235.935 47.5253 235.466 47.8559C234.997 48.1759 234.511 48.4479 234.01 48.6719C233.519 48.9066 233.05 49.0933 232.602 49.2319C232.474 50.1706 232.41 51.0559 232.41 51.8879C232.41 52.3146 232.426 52.7093 232.458 53.0719C232.501 53.4346 232.565 53.7599 232.65 54.0479C232.767 54.4533 232.906 54.7253 233.066 54.8639C233.237 55.0026 233.397 55.0719 233.546 55.0719C233.653 55.0719 233.749 55.0506 233.834 55.0079C233.93 54.9759 234.005 54.9439 234.058 54.9119C234.143 54.8693 234.218 54.8479 234.282 54.8479C234.346 54.8479 234.378 54.8746 234.378 54.9279C234.378 54.9493 234.362 54.9866 234.33 55.0399C234.287 55.0933 234.181 55.1839 234.01 55.3119C233.839 55.4506 233.631 55.5199 233.386 55.5199ZM232.97 47.0719C233.578 46.6879 234.229 46.3093 234.922 45.9359C235.626 45.5626 236.255 45.2373 236.81 44.9599C236.885 44.7679 236.922 44.5599 236.922 44.3359C236.922 43.9626 236.783 43.6106 236.506 43.2799C236.239 42.9386 235.791 42.6346 235.162 42.3679C235.023 42.3146 234.885 42.2613 234.746 42.2079C234.607 42.1439 234.463 42.0906 234.314 42.0479C234.058 42.7946 233.813 43.5999 233.578 44.4639C233.354 45.3173 233.151 46.1866 232.97 47.0719ZM232.73 48.4159C233.306 48.1706 233.807 47.9146 234.234 47.6479C234.671 47.3706 235.151 46.9919 235.674 46.5119C236.058 46.1599 236.357 45.8079 236.57 45.4559C236.101 45.7119 235.626 45.9679 235.146 46.2239C234.677 46.4799 234.245 46.7253 233.85 46.9599C233.455 47.1839 233.13 47.3866 232.874 47.5679L232.73 48.4159ZM231.562 48.8479C231.615 48.8266 231.669 48.8053 231.722 48.7839C231.775 48.7626 231.823 48.7466 231.866 48.7359L231.93 48.2719C231.823 48.3466 231.733 48.4319 231.658 48.5279C231.583 48.6239 231.551 48.7306 231.562 48.8479Z"
            fill="#2B241B"></path>
        <path
            d="M239.859 47.6479C239.497 47.6479 239.214 47.5306 239.011 47.2959C238.819 47.0613 238.686 46.7626 238.611 46.3999C238.547 46.0266 238.515 45.6533 238.515 45.2799C238.515 45.0239 238.526 44.7839 238.547 44.5599C238.569 44.3253 238.59 44.1226 238.611 43.9519C238.665 43.5146 238.734 43.0933 238.819 42.6879C238.905 42.2826 238.985 41.9359 239.059 41.6479C239.145 41.3599 239.198 41.1733 239.219 41.0879C239.262 40.9386 239.342 40.8639 239.459 40.8639C239.577 40.8639 239.71 40.9439 239.859 41.1039C240.009 41.2533 240.115 41.3759 240.179 41.4719C240.425 41.5466 240.665 41.6373 240.899 41.7439C241.134 41.8399 241.326 41.9466 241.475 42.0639C241.635 42.1813 241.715 42.3093 241.715 42.4479C241.715 42.7146 241.603 42.9813 241.379 43.2479C241.155 43.5146 240.873 43.7599 240.531 43.9839C240.19 44.2079 239.843 44.3999 239.491 44.5599C239.459 44.8159 239.443 45.0719 239.443 45.3279C239.443 45.7546 239.497 46.1279 239.603 46.4479C239.71 46.7679 239.891 46.9279 240.147 46.9279C240.371 46.9279 240.585 46.8479 240.787 46.6879C241.001 46.5279 241.198 46.3253 241.379 46.0799C241.561 45.8346 241.721 45.5893 241.859 45.3439C242.009 45.0879 242.121 44.8746 242.195 44.7039C242.217 44.6399 242.265 44.6079 242.339 44.6079C242.382 44.6079 242.403 44.6559 242.403 44.7519C242.403 44.8373 242.339 45.0186 242.211 45.2959C242.083 45.5519 241.95 45.7973 241.811 46.0319C241.683 46.2559 241.555 46.4533 241.427 46.6239C241.246 46.8586 241.022 47.0879 240.755 47.3119C240.499 47.5359 240.201 47.6479 239.859 47.6479ZM239.539 44.1119C239.913 43.9093 240.243 43.6693 240.531 43.3919C240.83 43.1039 240.979 42.7946 240.979 42.4639C240.979 42.3466 240.889 42.2293 240.707 42.1119C240.537 41.9839 240.334 41.8773 240.099 41.7919C239.971 42.1333 239.859 42.4959 239.763 42.8799C239.678 43.2639 239.603 43.6746 239.539 44.1119Z"
            fill="#2B241B"></path>
        <path
            d="M245.256 47.9199C245.075 47.9199 244.899 47.8346 244.728 47.6639C244.568 47.4826 244.488 47.2533 244.488 46.9759C244.488 46.4533 244.504 45.9359 244.536 45.4239C244.579 44.9013 244.621 44.4373 244.664 44.0319C244.717 43.6159 244.755 43.3119 244.776 43.1199C244.669 43.5679 244.536 44.0159 244.376 44.4639C244.216 44.9119 244.056 45.3333 243.896 45.7279C243.736 46.1119 243.597 46.4373 243.48 46.7039C243.363 46.9599 243.293 47.1253 243.272 47.1999C243.229 47.3173 243.139 47.3759 243 47.3759C242.893 47.3759 242.771 47.3439 242.632 47.2799C242.493 47.2159 242.371 47.1413 242.264 47.0559C242.168 46.9599 242.115 46.8799 242.104 46.8159C242.093 46.7626 242.088 46.7039 242.088 46.6399C242.088 46.5653 242.088 46.4906 242.088 46.4159C242.088 45.9253 242.12 45.4559 242.184 45.0079C242.248 44.5493 242.307 44.0959 242.36 43.6479C242.381 43.4453 242.413 43.2106 242.456 42.9439C242.499 42.6773 242.52 42.4213 242.52 42.1759C242.52 42.0693 242.515 41.9679 242.504 41.8719C242.493 41.7653 242.472 41.6746 242.44 41.5999C242.397 41.5146 242.291 41.4506 242.12 41.4079C241.949 41.3546 241.805 41.3279 241.688 41.3279C241.56 41.3279 241.496 41.2959 241.496 41.2319C241.496 41.1146 241.608 41.0453 241.832 41.0239C242.035 41.0026 242.221 40.9813 242.392 40.9599C242.563 40.9279 242.728 40.9119 242.888 40.9119C243.037 40.9119 243.155 40.9279 243.24 40.9599C243.336 40.9919 243.384 41.0506 243.384 41.1359C243.384 41.5413 243.347 42.0319 243.272 42.6079C243.197 43.1733 243.117 43.7546 243.032 44.3519C242.957 44.9493 242.92 45.4879 242.92 45.9679C242.92 46.1173 242.925 46.2613 242.936 46.3999C242.947 46.5279 242.979 46.5919 243.032 46.5919C243.107 46.5919 243.208 46.4746 243.336 46.2399C243.464 45.9946 243.603 45.6693 243.752 45.2639C243.912 44.8586 244.067 44.4266 244.216 43.9679C244.365 43.4986 244.499 43.0506 244.616 42.6239C244.733 42.1973 244.824 41.8399 244.888 41.5519C244.899 41.4986 244.941 41.4719 245.016 41.4719C245.133 41.4719 245.261 41.5359 245.4 41.6639C245.549 41.7813 245.656 41.9146 245.72 42.0639C245.688 42.1919 245.645 42.4266 245.592 42.7679C245.539 43.1093 245.485 43.4933 245.432 43.9199C245.379 44.3466 245.336 44.7679 245.304 45.1839C245.272 45.5893 245.256 45.9306 245.256 46.2079C245.256 46.5386 245.288 46.7359 245.352 46.7999C245.427 46.8533 245.501 46.8799 245.576 46.8799C245.661 46.8799 245.757 46.8053 245.864 46.6559C245.981 46.5066 246.099 46.3199 246.216 46.0959C246.333 45.8719 246.451 45.6533 246.568 45.4399C246.685 45.2159 246.787 45.0293 246.872 44.8799C246.968 44.7306 247.043 44.6559 247.096 44.6559C247.139 44.6559 247.16 44.6826 247.16 44.7359C247.16 44.7679 247.144 44.8266 247.112 44.9119C247.069 45.0186 246.995 45.1946 246.888 45.4399C246.792 45.6746 246.675 45.9359 246.536 46.2239C246.397 46.5013 246.253 46.7679 246.104 47.0239C245.955 47.2799 245.805 47.4933 245.656 47.6639C245.507 47.8346 245.373 47.9199 245.256 47.9199Z"
            fill="#2B241B"></path>
        <path
            d="M248.679 48.1439C248.305 48.1439 248.001 48.0266 247.767 47.7919C247.532 47.5466 247.351 47.2319 247.223 46.8479C247.105 46.4639 247.025 46.0533 246.983 45.6159C246.94 45.1679 246.919 44.7466 246.919 44.3519C246.919 44.1173 246.924 43.9039 246.935 43.7119C246.945 43.5093 246.956 43.3386 246.967 43.1999C246.988 42.7946 247.025 42.3519 247.079 41.8719C247.132 41.3813 247.196 40.8799 247.271 40.3679C246.716 40.4533 246.209 40.5226 245.751 40.5759C245.281 40.6293 244.892 40.6559 244.583 40.6559C244.54 40.6559 244.476 40.6026 244.391 40.4959C244.305 40.3893 244.241 40.2773 244.199 40.1599C244.145 40.0426 244.14 39.9893 244.183 39.9999C244.289 40.0106 244.391 40.0213 244.487 40.0319C244.583 40.0319 244.684 40.0319 244.791 40.0319C245.111 40.0319 245.468 40.0106 245.863 39.9679C246.247 39.9253 246.743 39.8719 247.351 39.8079C247.436 39.2746 247.527 38.7466 247.623 38.2239C247.729 37.7013 247.836 37.2053 247.943 36.7359C247.996 36.5226 248.044 36.3519 248.087 36.2239C248.14 36.0959 248.236 36.0426 248.375 36.0639C248.503 36.0853 248.636 36.1333 248.775 36.2079C248.913 36.2826 249.009 36.3679 249.063 36.4639C249.276 36.6666 249.431 36.9226 249.527 37.2319C249.623 37.5306 249.671 37.8666 249.671 38.2399C249.671 38.6346 249.623 39.0666 249.527 39.5359C250.113 39.4506 250.716 39.3493 251.335 39.2319C251.964 39.1039 252.572 38.9759 253.159 38.8479C253.756 38.7093 254.295 38.5866 254.775 38.4799C254.849 38.4586 254.86 38.4693 254.807 38.5119C254.753 38.5439 254.679 38.5813 254.583 38.6239C254.487 38.6666 254.407 38.6986 254.343 38.7199C253.671 38.9546 252.903 39.1839 252.039 39.4079C251.175 39.6319 250.305 39.8293 249.431 39.9999C249.26 40.7146 249.02 41.4559 248.711 42.2239C248.401 42.9813 248.076 43.7119 247.735 44.4159C247.735 44.5226 247.729 44.6293 247.719 44.7359C247.719 44.8319 247.719 44.9333 247.719 45.0399C247.719 45.5626 247.745 46.0319 247.799 46.4479C247.863 46.8533 247.964 47.1839 248.103 47.4399C248.199 47.6213 248.305 47.7493 248.423 47.8239C248.551 47.8879 248.673 47.9199 248.791 47.9199C248.908 47.9199 249.02 47.8986 249.127 47.8559C249.233 47.8133 249.313 47.7813 249.367 47.7599C249.484 47.7066 249.564 47.6853 249.607 47.6959C249.649 47.7066 249.644 47.7386 249.591 47.7919C249.559 47.8346 249.463 47.9039 249.303 47.9999C249.143 48.0959 248.935 48.1439 248.679 48.1439ZM248.375 39.6959L248.599 39.6639L249.159 39.5999C249.212 39.3546 249.249 39.1199 249.271 38.8959C249.303 38.6719 249.319 38.4586 249.319 38.2559C249.319 37.7013 249.217 37.2586 249.015 36.9279C248.897 37.3546 248.785 37.8026 248.679 38.2719C248.572 38.7413 248.471 39.2159 248.375 39.6959ZM247.783 43.5839C248.039 42.9973 248.279 42.4053 248.503 41.8079C248.727 41.2106 248.908 40.6346 249.047 40.0799C248.908 40.1013 248.775 40.1226 248.647 40.1439C248.519 40.1653 248.391 40.1866 248.263 40.2079C248.156 40.7839 248.06 41.3599 247.975 41.9359C247.9 42.5013 247.836 43.0506 247.783 43.5839Z"
            fill="#2B241B"></path>
        <path
            d="M253.532 47.2639C253.415 47.2639 253.287 47.2213 253.148 47.1359C253.009 47.0399 252.913 46.9386 252.86 46.8319C252.86 46.5866 252.892 46.2506 252.956 45.8239C253.02 45.3973 253.089 44.9599 253.164 44.5119C253.249 44.0533 253.324 43.6639 253.388 43.3439C253.196 43.6426 252.977 43.9679 252.732 44.3199C252.487 44.6719 252.236 45.0026 251.98 45.3119C251.724 45.6106 251.463 45.8613 251.196 46.0639C250.94 46.2559 250.7 46.3519 250.476 46.3519C250.252 46.3519 250.076 46.2773 249.948 46.1279C249.82 45.9679 249.756 45.7866 249.756 45.5839C249.756 45.5306 249.767 45.4613 249.788 45.3759C249.884 44.8853 250.071 44.4266 250.348 43.9999C250.636 43.5626 250.961 43.1786 251.324 42.8479C251.697 42.5173 252.065 42.2559 252.428 42.0639C252.791 41.8719 253.1 41.7759 253.356 41.7759C253.548 41.7759 253.729 41.8186 253.9 41.9039C254.081 41.9786 254.252 42.1066 254.412 42.2879C254.444 42.3199 254.46 42.3573 254.46 42.3999C254.46 42.4533 254.428 42.5066 254.364 42.5599C254.289 42.8159 254.209 43.1253 254.124 43.4879C254.049 43.8399 253.975 44.2079 253.9 44.5919C253.836 44.9653 253.783 45.3119 253.74 45.6319C253.697 45.9519 253.676 46.1973 253.676 46.3679C253.676 46.4853 253.692 46.5439 253.724 46.5439C253.809 46.5439 253.916 46.4533 254.044 46.2719C254.183 46.0906 254.316 45.8826 254.444 45.6479C254.572 45.4133 254.684 45.2053 254.78 45.0239C254.887 44.8426 254.951 44.7519 254.972 44.7519C255.004 44.7519 255.02 44.7946 255.02 44.8799C255.02 45.0613 254.961 45.2853 254.844 45.5519C254.727 45.8186 254.583 46.0853 254.412 46.3519C254.252 46.6079 254.087 46.8266 253.916 47.0079C253.756 47.1786 253.628 47.2639 253.532 47.2639ZM250.604 45.7599C250.753 45.7599 250.94 45.6746 251.164 45.5039C251.399 45.3333 251.639 45.1146 251.884 44.8479C252.14 44.5813 252.385 44.2986 252.62 43.9999C252.865 43.7013 253.073 43.4186 253.244 43.1519C253.425 42.8746 253.553 42.6506 253.628 42.4799C253.415 42.4799 253.169 42.5599 252.892 42.7199C252.615 42.8693 252.332 43.0666 252.044 43.3119C251.756 43.5466 251.489 43.8079 251.244 44.0959C250.999 44.3733 250.801 44.6453 250.652 44.9119C250.503 45.1786 250.428 45.4079 250.428 45.5999C250.428 45.7066 250.487 45.7599 250.604 45.7599Z"
            fill="#2B241B"></path>
        <path
            d="M262.407 47.2639C262.29 47.2639 262.162 47.2213 262.023 47.1359C261.884 47.0399 261.788 46.9386 261.735 46.8319C261.735 46.5866 261.767 46.2506 261.831 45.8239C261.895 45.3973 261.964 44.9599 262.039 44.5119C262.124 44.0533 262.199 43.6639 262.263 43.3439C262.071 43.6426 261.852 43.9679 261.607 44.3199C261.362 44.6719 261.111 45.0026 260.855 45.3119C260.599 45.6106 260.338 45.8613 260.071 46.0639C259.815 46.2559 259.575 46.3519 259.351 46.3519C259.127 46.3519 258.951 46.2773 258.823 46.1279C258.695 45.9679 258.631 45.7866 258.631 45.5839C258.631 45.5306 258.642 45.4613 258.663 45.3759C258.759 44.8853 258.946 44.4266 259.223 43.9999C259.511 43.5626 259.836 43.1786 260.199 42.8479C260.572 42.5173 260.94 42.2559 261.303 42.0639C261.666 41.8719 261.975 41.7759 262.231 41.7759C262.423 41.7759 262.604 41.8186 262.775 41.9039C262.956 41.9786 263.127 42.1066 263.287 42.2879C263.319 42.3199 263.335 42.3573 263.335 42.3999C263.335 42.4533 263.303 42.5066 263.239 42.5599C263.164 42.8159 263.084 43.1253 262.999 43.4879C262.924 43.8399 262.85 44.2079 262.775 44.5919C262.711 44.9653 262.658 45.3119 262.615 45.6319C262.572 45.9519 262.551 46.1973 262.551 46.3679C262.551 46.4853 262.567 46.5439 262.599 46.5439C262.684 46.5439 262.791 46.4533 262.919 46.2719C263.058 46.0906 263.191 45.8826 263.319 45.6479C263.447 45.4133 263.559 45.2053 263.655 45.0239C263.762 44.8426 263.826 44.7519 263.847 44.7519C263.879 44.7519 263.895 44.7946 263.895 44.8799C263.895 45.0613 263.836 45.2853 263.719 45.5519C263.602 45.8186 263.458 46.0853 263.287 46.3519C263.127 46.6079 262.962 46.8266 262.791 47.0079C262.631 47.1786 262.503 47.2639 262.407 47.2639ZM259.479 45.7599C259.628 45.7599 259.815 45.6746 260.039 45.5039C260.274 45.3333 260.514 45.1146 260.759 44.8479C261.015 44.5813 261.26 44.2986 261.495 43.9999C261.74 43.7013 261.948 43.4186 262.119 43.1519C262.3 42.8746 262.428 42.6506 262.503 42.4799C262.29 42.4799 262.044 42.5599 261.767 42.7199C261.49 42.8693 261.207 43.0666 260.919 43.3119C260.631 43.5466 260.364 43.8079 260.119 44.0959C259.874 44.3733 259.676 44.6453 259.527 44.9119C259.378 45.1786 259.303 45.4079 259.303 45.5999C259.303 45.7066 259.362 45.7599 259.479 45.7599ZM261.863 41.0399C261.81 41.0399 261.788 40.9973 261.799 40.9119C261.82 40.8373 261.89 40.7626 262.007 40.6879C262.06 40.6559 262.167 40.5813 262.327 40.4639C262.487 40.3466 262.658 40.2239 262.839 40.0959C263.02 39.9573 263.18 39.8346 263.319 39.7279C263.468 39.6213 263.559 39.5573 263.591 39.5359C263.666 39.4826 263.714 39.4506 263.735 39.4399C263.767 39.4293 263.799 39.4239 263.831 39.4239C263.884 39.4239 263.948 39.4773 264.023 39.5839C264.098 39.6906 264.124 39.7706 264.103 39.8239C264.092 39.8666 264.012 39.9413 263.863 40.0479C263.714 40.1546 263.532 40.2719 263.319 40.3999C263.116 40.5173 262.914 40.6293 262.711 40.7359C262.508 40.8319 262.348 40.9013 262.231 40.9439C262.06 41.0079 261.938 41.0399 261.863 41.0399Z"
            fill="#2B241B"></path>
        <path
            d="M264.594 48.8959C264.487 48.8959 264.338 48.8106 264.146 48.6399C263.965 48.4799 263.837 48.2666 263.762 47.9999C263.719 47.8186 263.687 47.5733 263.666 47.2639C263.645 46.9546 263.634 46.6079 263.634 46.2239C263.634 45.5839 263.645 44.8959 263.666 44.1599C263.698 43.4239 263.714 42.7626 263.714 42.1759C263.714 41.9839 263.709 41.8026 263.698 41.6319C263.698 41.4613 263.693 41.3119 263.682 41.1839C263.661 41.1626 263.597 41.1466 263.49 41.1359C263.394 41.1146 263.298 41.0986 263.202 41.0879C263.117 41.0666 263.074 41.0559 263.074 41.0559C263.074 41.0346 263.154 40.9866 263.314 40.9119C263.485 40.8266 263.725 40.7839 264.034 40.7839C264.354 40.7839 264.562 40.8533 264.658 40.9919C264.765 41.1199 264.818 41.2319 264.818 41.3279C264.818 41.3493 264.818 41.3759 264.818 41.4079C264.818 41.4399 264.813 41.4666 264.802 41.4879C264.685 42.0533 264.573 42.7199 264.466 43.4879C264.359 44.2453 264.306 45.0453 264.306 45.8879C264.306 46.0906 264.306 46.2719 264.306 46.4319C264.317 46.5813 264.322 46.7146 264.322 46.8319V46.9759C264.386 46.3786 264.498 45.8133 264.658 45.2799C264.818 44.7359 264.978 44.1439 265.138 43.5039C265.266 42.9493 265.373 42.5226 265.458 42.2239C265.554 41.9146 265.65 41.7013 265.746 41.5839C265.853 41.4559 265.975 41.3919 266.114 41.3919C266.306 41.3919 266.439 41.4719 266.514 41.6319C266.589 41.7919 266.637 42.0106 266.658 42.2879C266.679 42.5653 266.701 42.8853 266.722 43.2479C266.743 43.5999 266.797 43.9786 266.882 44.3839C267.01 44.9919 267.159 45.4346 267.33 45.7119C267.501 45.9893 267.645 46.1279 267.762 46.1279C267.901 46.1279 268.039 46.0426 268.178 45.8719C268.317 45.6906 268.45 45.4826 268.578 45.2479C268.706 45.0133 268.818 44.8106 268.914 44.6399C269.021 44.4586 269.106 44.3679 269.17 44.3679C269.202 44.3679 269.218 44.3946 269.218 44.4479C269.218 44.4906 269.202 44.5599 269.17 44.6559C268.903 45.2533 268.679 45.7173 268.498 46.0479C268.317 46.3679 268.066 46.5279 267.746 46.5279C267.501 46.5279 267.255 46.4213 267.01 46.2079C266.882 46.1013 266.754 45.9306 266.626 45.6959C266.509 45.4506 266.397 45.1839 266.29 44.8959C266.183 44.6079 266.082 44.3359 265.986 44.0799C265.901 43.8133 265.826 43.5946 265.762 43.4239C265.698 43.2533 265.655 43.1679 265.634 43.1679C265.613 43.1679 265.575 43.1893 265.522 43.2319C265.479 43.2746 265.447 43.3493 265.426 43.4559C265.245 44.1173 265.095 44.7733 264.978 45.4239C264.871 46.0639 264.791 46.6453 264.738 47.1679C264.685 47.6799 264.658 48.0746 264.658 48.3519C264.658 48.4906 264.663 48.5866 264.674 48.6399C264.695 48.7039 264.706 48.7519 264.706 48.7839C264.706 48.8586 264.669 48.8959 264.594 48.8959Z"
            fill="#2B241B"></path>
        <path
            d="M270.089 54.5759C269.897 54.5759 269.753 54.4639 269.657 54.2399C269.934 53.6426 270.212 53.0026 270.489 52.3199C270.777 51.6373 271.049 50.9386 271.305 50.2239C271.572 49.5093 271.796 48.8106 271.977 48.1279C271.678 48.3626 271.374 48.6186 271.065 48.8959C270.756 49.1733 270.462 49.4933 270.185 49.8559C269.833 50.2933 269.561 50.8106 269.369 51.4079C269.188 52.0159 269.097 52.5759 269.097 53.0879C269.097 53.7066 269.225 54.1706 269.481 54.4799C269.513 54.5119 269.529 54.5333 269.529 54.5439C269.529 54.5439 269.524 54.5439 269.513 54.5439C269.513 54.5546 269.508 54.5599 269.497 54.5599C269.454 54.5599 269.401 54.5439 269.337 54.5119C269.284 54.4799 269.23 54.4319 269.177 54.3679C268.964 54.1439 268.804 53.8719 268.697 53.5519C268.601 53.2426 268.553 52.9066 268.553 52.5439C268.553 52.1279 268.633 51.7066 268.793 51.2799C268.953 50.8533 269.188 50.4533 269.497 50.0799C269.945 49.5359 270.388 49.0826 270.825 48.7199C271.262 48.3679 271.684 48.0213 272.089 47.6799C272.249 47.0506 272.361 46.4373 272.425 45.8399C272.478 45.3706 272.51 44.9599 272.521 44.6079C272.542 44.2559 272.553 43.9466 272.553 43.6799C272.553 43.5093 272.548 43.3546 272.537 43.2159C272.526 43.0773 272.516 42.9493 272.505 42.8319L272.377 42.8639C272.196 43.1519 271.977 43.4933 271.721 43.8879C271.465 44.2826 271.188 44.6719 270.889 45.0559C270.59 45.4293 270.292 45.7439 269.993 45.9999C269.694 46.2559 269.412 46.3839 269.145 46.3839C268.921 46.3839 268.745 46.3093 268.617 46.1599C268.489 45.9999 268.425 45.8186 268.425 45.6159C268.425 45.5626 268.436 45.4933 268.457 45.4079C268.553 44.9173 268.74 44.4586 269.017 44.0319C269.305 43.5946 269.63 43.2106 269.993 42.8799C270.366 42.5493 270.734 42.2879 271.097 42.0959C271.46 41.9039 271.769 41.8079 272.025 41.8079C272.217 41.8079 272.398 41.8506 272.569 41.9359C272.75 42.0106 272.921 42.1386 273.081 42.3199C273.113 42.3519 273.129 42.3893 273.129 42.4319C273.129 42.5279 273.028 42.6186 272.825 42.7039C272.91 42.8639 272.964 43.0719 272.985 43.3279C273.017 43.5733 273.033 43.8346 273.033 44.1119C273.033 44.5706 273.006 45.0506 272.953 45.5519C272.9 46.0533 272.83 46.5599 272.745 47.0719C273.022 46.7946 273.289 46.4799 273.545 46.1279C273.801 45.7759 274.046 45.3546 274.281 44.8639C274.345 44.7359 274.404 44.6719 274.457 44.6719C274.5 44.6719 274.521 44.7093 274.521 44.7839C274.521 44.9013 274.468 45.0719 274.361 45.2959C274.265 45.5199 274.148 45.7493 274.009 45.9839C273.87 46.2186 273.732 46.4213 273.593 46.5919C273.454 46.7626 273.305 46.9333 273.145 47.1039C272.996 47.2639 272.836 47.4186 272.665 47.5679C272.526 48.3039 272.366 49.0239 272.185 49.7279C272.004 50.4319 271.822 51.0773 271.641 51.6639C271.46 52.2506 271.294 52.7413 271.145 53.1359C271.006 53.5413 270.905 53.8079 270.841 53.9359C270.713 54.1706 270.585 54.3359 270.457 54.4319C270.329 54.5279 270.206 54.5759 270.089 54.5759ZM269.353 45.7279C269.502 45.7279 269.689 45.6426 269.913 45.4719C270.137 45.3013 270.372 45.0879 270.617 44.8319C270.862 44.5653 271.097 44.2826 271.321 43.9839C271.556 43.6853 271.758 43.4079 271.929 43.1519C272.11 42.8853 272.233 42.6719 272.297 42.5119C272.073 42.5119 271.828 42.5919 271.561 42.7519C271.305 42.9013 271.049 43.0986 270.793 43.3439C270.537 43.5893 270.297 43.8453 270.073 44.1119C269.849 44.3786 269.662 44.6293 269.513 44.8639C269.374 45.0986 269.284 45.2799 269.241 45.4079C269.209 45.4826 269.193 45.5413 269.193 45.5839C269.193 45.6799 269.246 45.7279 269.353 45.7279Z"
            fill="#2B241B"></path>
        <path
            d="M275.828 47.6479C275.465 47.6479 275.183 47.5306 274.98 47.2959C274.788 47.0613 274.655 46.7626 274.58 46.3999C274.516 46.0266 274.484 45.6533 274.484 45.2799C274.484 45.0239 274.495 44.7839 274.516 44.5599C274.537 44.3253 274.559 44.1226 274.58 43.9519C274.633 43.5146 274.703 43.0933 274.788 42.6879C274.873 42.2826 274.953 41.9359 275.028 41.6479C275.113 41.3599 275.167 41.1733 275.188 41.0879C275.231 40.9386 275.311 40.8639 275.428 40.8639C275.545 40.8639 275.679 40.9439 275.828 41.1039C275.977 41.2533 276.084 41.3759 276.148 41.4719C276.393 41.5466 276.633 41.6373 276.868 41.7439C277.103 41.8399 277.295 41.9466 277.444 42.0639C277.604 42.1813 277.684 42.3093 277.684 42.4479C277.684 42.7146 277.572 42.9813 277.348 43.2479C277.124 43.5146 276.841 43.7599 276.5 43.9839C276.159 44.2079 275.812 44.3999 275.46 44.5599C275.428 44.8159 275.412 45.0719 275.412 45.3279C275.412 45.7546 275.465 46.1279 275.572 46.4479C275.679 46.7679 275.86 46.9279 276.116 46.9279C276.34 46.9279 276.553 46.8479 276.756 46.6879C276.969 46.5279 277.167 46.3253 277.348 46.0799C277.529 45.8346 277.689 45.5893 277.828 45.3439C277.977 45.0879 278.089 44.8746 278.164 44.7039C278.185 44.6399 278.233 44.6079 278.308 44.6079C278.351 44.6079 278.372 44.6559 278.372 44.7519C278.372 44.8373 278.308 45.0186 278.18 45.2959C278.052 45.5519 277.919 45.7973 277.78 46.0319C277.652 46.2559 277.524 46.4533 277.396 46.6239C277.215 46.8586 276.991 47.0879 276.724 47.3119C276.468 47.5359 276.169 47.6479 275.828 47.6479ZM275.508 44.1119C275.881 43.9093 276.212 43.6693 276.5 43.3919C276.799 43.1039 276.948 42.7946 276.948 42.4639C276.948 42.3466 276.857 42.2293 276.676 42.1119C276.505 41.9839 276.303 41.8773 276.068 41.7919C275.94 42.1333 275.828 42.4959 275.732 42.8799C275.647 43.2639 275.572 43.6746 275.508 44.1119Z"
            fill="#2B241B"></path>
        <path
            d="M280.265 48.4959C280.115 48.4959 279.977 48.4746 279.849 48.4319C279.443 48.3146 279.118 48.0853 278.873 47.7439C278.638 47.4026 278.467 46.9866 278.361 46.4959C278.265 46.0053 278.217 45.4879 278.217 44.9439C278.217 44.6453 278.227 44.3466 278.249 44.0479C278.27 43.7493 278.302 43.4559 278.345 43.1679C278.43 42.5599 278.553 41.8879 278.713 41.1519C278.883 40.4159 279.075 39.6693 279.289 38.9119C279.502 38.1546 279.721 37.4399 279.945 36.7679C280.03 36.5653 280.105 36.3999 280.169 36.2719C280.233 36.1439 280.334 36.1013 280.473 36.1439C280.579 36.1759 280.686 36.2293 280.793 36.3039C280.91 36.3679 281.001 36.4426 281.065 36.5279C281.353 36.8586 281.497 37.3226 281.497 37.9199C281.497 38.4639 281.39 39.0773 281.177 39.7599C280.963 40.4319 280.681 41.1039 280.329 41.7759C279.987 42.4479 279.603 43.0666 279.177 43.6319C279.081 44.2506 279.033 44.8373 279.033 45.3919C279.033 45.8293 279.065 46.2346 279.129 46.6079C279.203 46.9813 279.315 47.3066 279.465 47.5839C279.593 47.8186 279.731 47.9786 279.881 48.0639C280.041 48.1493 280.19 48.1919 280.329 48.1919C280.478 48.1919 280.611 48.1653 280.729 48.1119C280.857 48.0586 280.958 48.0159 281.033 47.9839C281.118 47.9306 281.193 47.9039 281.257 47.9039C281.342 47.9039 281.353 47.9466 281.289 48.0319C281.246 48.0853 281.134 48.1759 280.953 48.3039C280.771 48.4319 280.542 48.4959 280.265 48.4959ZM279.289 42.9439C279.63 42.4106 279.939 41.8506 280.217 41.2639C280.505 40.6666 280.734 40.0853 280.905 39.5199C281.086 38.9439 281.177 38.4319 281.177 37.9839C281.177 37.8133 281.161 37.6533 281.129 37.5039C281.107 37.3546 281.065 37.2213 281.001 37.1039C280.638 38.0106 280.302 38.9759 279.993 39.9999C279.694 41.0133 279.459 41.9946 279.289 42.9439Z"
            fill="#2B241B"></path>
        <path
            d="M282.54 42.6719C282.476 42.6719 282.407 42.6613 282.332 42.6399C282.268 42.6079 282.204 42.5759 282.14 42.5439C282.097 42.5119 282.076 42.4693 282.076 42.4159C282.076 42.3199 282.135 42.2026 282.252 42.0639C282.369 41.9146 282.519 41.7866 282.7 41.6799C282.881 41.5733 283.057 41.5199 283.228 41.5199C283.324 41.5199 283.372 41.5466 283.372 41.5999C283.372 41.6426 283.324 41.6959 283.228 41.7599C283.111 41.8453 283.025 41.9626 282.972 42.1119C282.919 42.2613 282.865 42.3946 282.812 42.5119C282.759 42.6186 282.668 42.6719 282.54 42.6719ZM281.676 47.5039C281.473 47.5039 281.335 47.4399 281.26 47.3119C281.185 47.1839 281.148 46.9866 281.148 46.7199C281.148 46.5813 281.153 46.4319 281.164 46.2719C281.175 46.1119 281.196 45.9306 281.228 45.7279C281.324 45.0026 281.431 44.4266 281.548 43.9999C281.665 43.5626 281.815 43.3439 281.996 43.3439C282.145 43.3439 282.279 43.4293 282.396 43.5999C282.513 43.7706 282.593 43.8933 282.636 43.9679C282.561 44.1066 282.46 44.3306 282.332 44.6399C282.215 44.9493 282.108 45.2746 282.012 45.6159C281.916 45.9573 281.868 46.2559 281.868 46.5119C281.868 46.7679 281.927 46.8959 282.044 46.8959C282.14 46.8959 282.247 46.8426 282.364 46.7359C282.492 46.6293 282.609 46.5119 282.716 46.3839C282.833 46.2559 282.908 46.1653 282.94 46.1119C283.303 45.5679 283.532 45.1519 283.628 44.8639C283.735 44.5759 283.836 44.4319 283.932 44.4319C283.975 44.4319 283.996 44.4639 283.996 44.5279C283.996 44.5706 283.985 44.6186 283.964 44.6719C283.953 44.7146 283.937 44.7733 283.916 44.8479C283.852 45.0186 283.751 45.2533 283.612 45.5519C283.473 45.8399 283.303 46.1333 283.1 46.4319C282.908 46.7306 282.689 46.9866 282.444 47.1999C282.209 47.4026 281.953 47.5039 281.676 47.5039Z"
            fill="#2B241B"></path>
        <path
            d="M285.235 48.2239C284.617 48.2239 284.131 48.0586 283.779 47.7279C283.438 47.3973 283.267 46.9919 283.267 46.5119C283.267 45.9999 283.374 45.4879 283.587 44.9759C283.801 44.4533 284.089 43.9573 284.451 43.4879C284.814 43.0186 285.225 42.6026 285.683 42.2399C286.142 41.8773 286.627 41.5893 287.139 41.3759C287.651 41.1626 288.153 41.0559 288.643 41.0559C288.942 41.0559 289.187 41.1093 289.379 41.2159C289.571 41.3226 289.667 41.4293 289.667 41.5359C289.667 41.5679 289.657 41.5946 289.635 41.6159C289.593 41.6586 289.529 41.7706 289.443 41.9519C289.369 42.1226 289.289 42.3199 289.203 42.5439C289.129 42.7679 289.059 42.9973 288.995 43.2319C288.942 43.4559 288.915 43.6479 288.915 43.8079C288.894 43.9253 288.841 43.9839 288.755 43.9839C288.681 43.9839 288.59 43.8986 288.483 43.7279C288.387 43.5466 288.339 43.3066 288.339 43.0079C288.339 42.8159 288.377 42.6133 288.451 42.3999C288.537 42.1866 288.617 41.9946 288.691 41.8239C288.777 41.6426 288.819 41.5146 288.819 41.4399C288.819 41.3973 288.798 41.3759 288.755 41.3759C288.723 41.3759 288.691 41.3759 288.659 41.3759C288.435 41.3759 288.121 41.4773 287.715 41.6799C287.31 41.8719 286.835 42.2293 286.291 42.7519C285.929 43.1039 285.593 43.5146 285.283 43.9839C284.974 44.4533 284.723 44.9279 284.531 45.4079C284.35 45.8879 284.259 46.3306 284.259 46.7359C284.259 47.2053 284.377 47.5093 284.611 47.6479C284.857 47.7866 285.134 47.8559 285.443 47.8559C285.977 47.8559 286.51 47.7546 287.043 47.5519C287.587 47.3493 288.094 47.0719 288.563 46.7199C289.043 46.3679 289.443 45.9679 289.763 45.5199C289.774 45.4986 289.785 45.4879 289.795 45.4879C289.806 45.4773 289.811 45.4719 289.811 45.4719C289.833 45.4719 289.843 45.4933 289.843 45.5359C289.843 45.5893 289.827 45.6639 289.795 45.7599C289.774 45.8559 289.742 45.9306 289.699 45.9839C289.486 46.3146 289.182 46.6559 288.787 47.0079C288.393 47.3493 287.902 47.6373 287.315 47.8719C286.729 48.1066 286.035 48.2239 285.235 48.2239Z"
            fill="#2B241B"></path>
        <path
            d="M293.907 47.2639C293.79 47.2639 293.662 47.2213 293.523 47.1359C293.384 47.0399 293.288 46.9386 293.235 46.8319C293.235 46.5866 293.267 46.2506 293.331 45.8239C293.395 45.3973 293.464 44.9599 293.539 44.5119C293.624 44.0533 293.699 43.6639 293.763 43.3439C293.571 43.6426 293.352 43.9679 293.107 44.3199C292.862 44.6719 292.611 45.0026 292.355 45.3119C292.099 45.6106 291.838 45.8613 291.571 46.0639C291.315 46.2559 291.075 46.3519 290.851 46.3519C290.627 46.3519 290.451 46.2773 290.323 46.1279C290.195 45.9679 290.131 45.7866 290.131 45.5839C290.131 45.5306 290.142 45.4613 290.163 45.3759C290.259 44.8853 290.446 44.4266 290.723 43.9999C291.011 43.5626 291.336 43.1786 291.699 42.8479C292.072 42.5173 292.44 42.2559 292.803 42.0639C293.166 41.8719 293.475 41.7759 293.731 41.7759C293.923 41.7759 294.104 41.8186 294.275 41.9039C294.456 41.9786 294.627 42.1066 294.787 42.2879C294.819 42.3199 294.835 42.3573 294.835 42.3999C294.835 42.4533 294.803 42.5066 294.739 42.5599C294.664 42.8159 294.584 43.1253 294.499 43.4879C294.424 43.8399 294.35 44.2079 294.275 44.5919C294.211 44.9653 294.158 45.3119 294.115 45.6319C294.072 45.9519 294.051 46.1973 294.051 46.3679C294.051 46.4853 294.067 46.5439 294.099 46.5439C294.184 46.5439 294.291 46.4533 294.419 46.2719C294.558 46.0906 294.691 45.8826 294.819 45.6479C294.947 45.4133 295.059 45.2053 295.155 45.0239C295.262 44.8426 295.326 44.7519 295.347 44.7519C295.379 44.7519 295.395 44.7946 295.395 44.8799C295.395 45.0613 295.336 45.2853 295.219 45.5519C295.102 45.8186 294.958 46.0853 294.787 46.3519C294.627 46.6079 294.462 46.8266 294.291 47.0079C294.131 47.1786 294.003 47.2639 293.907 47.2639ZM290.979 45.7599C291.128 45.7599 291.315 45.6746 291.539 45.5039C291.774 45.3333 292.014 45.1146 292.259 44.8479C292.515 44.5813 292.76 44.2986 292.995 43.9999C293.24 43.7013 293.448 43.4186 293.619 43.1519C293.8 42.8746 293.928 42.6506 294.003 42.4799C293.79 42.4799 293.544 42.5599 293.267 42.7199C292.99 42.8693 292.707 43.0666 292.419 43.3119C292.131 43.5466 291.864 43.8079 291.619 44.0959C291.374 44.3733 291.176 44.6453 291.027 44.9119C290.878 45.1786 290.803 45.4079 290.803 45.5999C290.803 45.7066 290.862 45.7599 290.979 45.7599Z"
            fill="#2B241B"></path>
        <path
            d="M297.374 48.4959C297.225 48.4959 297.086 48.4746 296.958 48.4319C296.553 48.3146 296.227 48.0853 295.982 47.7439C295.747 47.4026 295.577 46.9866 295.47 46.4959C295.374 46.0053 295.326 45.4879 295.326 44.9439C295.326 44.6453 295.337 44.3466 295.358 44.0479C295.379 43.7493 295.411 43.4559 295.454 43.1679C295.539 42.5599 295.662 41.8879 295.822 41.1519C295.993 40.4159 296.185 39.6693 296.398 38.9119C296.611 38.1546 296.83 37.4399 297.054 36.7679C297.139 36.5653 297.214 36.3999 297.278 36.2719C297.342 36.1439 297.443 36.1013 297.582 36.1439C297.689 36.1759 297.795 36.2293 297.902 36.3039C298.019 36.3679 298.11 36.4426 298.174 36.5279C298.462 36.8586 298.606 37.3226 298.606 37.9199C298.606 38.4639 298.499 39.0773 298.286 39.7599C298.073 40.4319 297.79 41.1039 297.438 41.7759C297.097 42.4479 296.713 43.0666 296.286 43.6319C296.19 44.2506 296.142 44.8373 296.142 45.3919C296.142 45.8293 296.174 46.2346 296.238 46.6079C296.313 46.9813 296.425 47.3066 296.574 47.5839C296.702 47.8186 296.841 47.9786 296.99 48.0639C297.15 48.1493 297.299 48.1919 297.438 48.1919C297.587 48.1919 297.721 48.1653 297.838 48.1119C297.966 48.0586 298.067 48.0159 298.142 47.9839C298.227 47.9306 298.302 47.9039 298.366 47.9039C298.451 47.9039 298.462 47.9466 298.398 48.0319C298.355 48.0853 298.243 48.1759 298.062 48.3039C297.881 48.4319 297.651 48.4959 297.374 48.4959ZM296.398 42.9439C296.739 42.4106 297.049 41.8506 297.326 41.2639C297.614 40.6666 297.843 40.0853 298.014 39.5199C298.195 38.9439 298.286 38.4319 298.286 37.9839C298.286 37.8133 298.27 37.6533 298.238 37.5039C298.217 37.3546 298.174 37.2213 298.11 37.1039C297.747 38.0106 297.411 38.9759 297.102 39.9999C296.803 41.0133 296.569 41.9946 296.398 42.9439Z"
            fill="#2B241B"></path>
    </g>
    <path
        d="M185.73 81.64V89.56C184.962 90.52 183.81 91.48 182.274 92.44C180.77 93.4 178.962 94.2 176.85 94.84C174.738 95.448 172.386 95.752 169.794 95.752C166.146 95.752 162.962 95.048 160.242 93.64C157.522 92.2 155.41 90.168 153.906 87.544C152.402 84.92 151.65 81.816 151.65 78.232C151.65 74.648 152.386 71.56 153.858 68.968C155.362 66.376 157.49 64.376 160.242 62.968C163.026 61.528 166.306 60.808 170.082 60.808C171.842 60.808 173.554 60.936 175.218 61.192C176.882 61.416 178.418 61.72 179.826 62.104C181.234 62.488 182.402 62.936 183.33 63.448L183.426 71.656H182.994C182.386 69.48 181.506 67.752 180.354 66.472C179.202 65.16 177.858 64.232 176.322 63.688C174.818 63.112 173.218 62.824 171.522 62.824C168.93 62.824 166.722 63.464 164.898 64.744C163.106 65.992 161.746 67.784 160.818 70.12C159.922 72.456 159.474 75.256 159.474 78.52C159.474 81.592 159.89 84.28 160.722 86.584C161.586 88.856 162.834 90.616 164.466 91.864C166.098 93.08 168.082 93.704 170.418 93.736C171.602 93.736 172.738 93.56 173.826 93.208C174.946 92.824 175.922 92.28 176.754 91.576C177.586 90.872 178.178 90.008 178.53 88.984L178.578 81.64C178.578 80.2 177.762 79.48 176.13 79.48H175.362V79H188.85V79.48H188.13C186.466 79.48 185.666 80.2 185.73 81.64Z"
        fill="#2B241B"></path>
    <path
        d="M205.951 60.52L221.647 94.792H213.007L203.023 69.784L205.951 60.52ZM195.631 91.576C195.375 92.216 195.327 92.76 195.487 93.208C195.647 93.656 195.919 94.008 196.303 94.264C196.687 94.488 197.071 94.6 197.455 94.6H197.887V95.08H187.615V94.6C187.615 94.6 187.695 94.6 187.855 94.6C187.983 94.6 188.047 94.6 188.047 94.6C188.783 94.6 189.535 94.376 190.303 93.928C191.103 93.448 191.759 92.664 192.271 91.576H195.631ZM205.951 60.52L206.143 66.376L194.239 94.936H190.735L203.167 66.808C203.263 66.616 203.423 66.264 203.647 65.752C203.903 65.208 204.159 64.6 204.415 63.928C204.703 63.256 204.959 62.616 205.183 62.008C205.407 61.368 205.519 60.872 205.519 60.52H205.951ZM210.991 83.656V85.672H196.879V83.656H210.991ZM211.711 91.576H220.111C220.655 92.664 221.311 93.448 222.079 93.928C222.847 94.376 223.599 94.6 224.335 94.6C224.335 94.6 224.399 94.6 224.527 94.6C224.655 94.6 224.719 94.6 224.719 94.6V95.08H209.455V94.6H209.887C210.527 94.6 211.087 94.344 211.567 93.832C212.047 93.288 212.095 92.536 211.711 91.576Z"
        fill="#2B241B"></path>
    <path
        d="M256.474 81.064L256.906 89.32C256.202 90.504 255.258 91.576 254.074 92.536C252.89 93.496 251.418 94.28 249.658 94.888C247.898 95.464 245.818 95.752 243.418 95.752C239.514 95.72 236.09 95.016 233.146 93.64C230.234 92.232 227.978 90.232 226.378 87.64C224.778 85.048 223.978 81.912 223.978 78.232C223.978 74.648 224.762 71.56 226.33 68.968C227.898 66.344 230.138 64.328 233.05 62.92C235.994 61.512 239.498 60.808 243.562 60.808C246.122 60.808 248.41 61.064 250.426 61.576C252.474 62.088 254.186 62.712 255.562 63.448L255.61 71.656H255.178C254.314 68.488 252.906 66.232 250.954 64.888C249.002 63.512 246.714 62.824 244.09 62.824C241.53 62.824 239.338 63.448 237.514 64.696C235.69 65.944 234.282 67.704 233.29 69.976C232.298 72.248 231.802 74.968 231.802 78.136C231.802 81.304 232.266 84.04 233.194 86.344C234.154 88.648 235.498 90.44 237.226 91.72C238.986 93 241.05 93.672 243.418 93.736C245.882 93.736 247.962 93.336 249.658 92.536C251.354 91.736 252.714 90.408 253.738 88.552C254.794 86.696 255.578 84.2 256.09 81.064H256.474Z"
        fill="#2B241B"></path>
    <path
        d="M294.795 61.48V95.08H287.595V61.48H294.795ZM272.043 61.48V95.08H264.843V61.48H272.043ZM288.027 77.32V79.384H271.563V77.32H288.027ZM264.987 91.576V95.08H261.147V94.6C261.147 94.6 261.243 94.6 261.435 94.6C261.659 94.6 261.771 94.6 261.771 94.6C262.603 94.6 263.307 94.312 263.883 93.736C264.491 93.128 264.811 92.408 264.843 91.576H264.987ZM264.987 64.984H264.843C264.811 64.152 264.491 63.448 263.883 62.872C263.307 62.264 262.603 61.96 261.771 61.96C261.771 61.96 261.659 61.96 261.435 61.96C261.243 61.96 261.147 61.96 261.147 61.96V61.48H264.987V64.984ZM271.899 91.576H272.043C272.075 92.408 272.379 93.128 272.955 93.736C273.563 94.312 274.283 94.6 275.115 94.6C275.115 94.6 275.211 94.6 275.403 94.6C275.595 94.6 275.707 94.6 275.739 94.6V95.08H271.899V91.576ZM271.899 64.984V61.48H275.739V61.96C275.707 61.96 275.595 61.96 275.403 61.96C275.211 61.96 275.115 61.96 275.115 61.96C274.283 61.96 273.563 62.264 272.955 62.872C272.379 63.448 272.075 64.152 272.043 64.984H271.899ZM287.739 91.576V95.08H283.899V94.6C283.931 94.6 284.043 94.6 284.235 94.6C284.427 94.6 284.523 94.6 284.523 94.6C285.355 94.6 286.075 94.312 286.683 93.736C287.291 93.128 287.595 92.408 287.595 91.576H287.739ZM287.739 64.984H287.595C287.595 64.152 287.291 63.448 286.683 62.872C286.075 62.264 285.355 61.96 284.523 61.96C284.523 61.96 284.427 61.96 284.235 61.96C284.043 61.96 283.931 61.96 283.899 61.96V61.48H287.739V64.984ZM294.651 91.576H294.795C294.827 92.408 295.131 93.128 295.707 93.736C296.315 94.312 297.035 94.6 297.867 94.6C297.867 94.6 297.963 94.6 298.155 94.6C298.379 94.6 298.491 94.6 298.491 94.6V95.08H294.651V91.576ZM294.651 64.984V61.48H298.491V61.96C298.491 61.96 298.379 61.96 298.155 61.96C297.963 61.96 297.867 61.96 297.867 61.96C297.035 61.96 296.315 62.264 295.707 62.872C295.131 63.448 294.827 64.152 294.795 64.984H294.651Z"
        fill="#2B241B"></path>
    <path
        d="M317.232 60.52L332.928 94.792H324.288L314.304 69.784L317.232 60.52ZM306.912 91.576C306.656 92.216 306.608 92.76 306.768 93.208C306.928 93.656 307.2 94.008 307.584 94.264C307.968 94.488 308.352 94.6 308.736 94.6H309.168V95.08H298.896V94.6C298.896 94.6 298.976 94.6 299.136 94.6C299.264 94.6 299.328 94.6 299.328 94.6C300.064 94.6 300.816 94.376 301.584 93.928C302.384 93.448 303.04 92.664 303.552 91.576H306.912ZM317.232 60.52L317.424 66.376L305.52 94.936H302.016L314.448 66.808C314.544 66.616 314.704 66.264 314.928 65.752C315.184 65.208 315.44 64.6 315.696 63.928C315.984 63.256 316.24 62.616 316.464 62.008C316.688 61.368 316.8 60.872 316.8 60.52H317.232ZM322.272 83.656V85.672H308.16V83.656H322.272ZM322.992 91.576H331.392C331.936 92.664 332.592 93.448 333.36 93.928C334.128 94.376 334.88 94.6 335.616 94.6C335.616 94.6 335.68 94.6 335.808 94.6C335.936 94.6 336 94.6 336 94.6V95.08H320.736V94.6H321.168C321.808 94.6 322.368 94.344 322.848 93.832C323.328 93.288 323.376 92.536 322.992 91.576Z"
        fill="#2B241B"></path>
    <defs>
        <clipPath id="clip0_434_1026">
            <rect width="336" height="35.52" fill="white" transform="translate(0 20)"></rect>
        </clipPath>
    </defs>
</svg>