<svg width="26" height="26" viewBox="0 0 26 26" fill="none" xmlns="http://www.w3.org/2000/svg">
    <path
        d="M13.0028 6.46239C9.45566 6.46239 6.59453 9.32415 6.59453 12.8721C6.59453 16.42 9.45566 19.2818 13.0028 19.2818C16.5499 19.2818 19.411 16.42 19.411 12.8721C19.411 9.32415 16.5499 6.46239 13.0028 6.46239ZM13.0028 17.0392C10.7105 17.0392 8.83659 15.1704 8.83659 12.8721C8.83659 10.5737 10.705 8.70494 13.0028 8.70494C15.3006 8.70494 17.169 10.5737 17.169 12.8721C17.169 15.1704 15.295 17.0392 13.0028 17.0392ZM21.1679 6.2002C21.1679 7.03139 20.4986 7.69523 19.6732 7.69523C18.8422 7.69523 18.1785 7.02581 18.1785 6.2002C18.1785 5.37458 18.8477 4.70516 19.6732 4.70516C20.4986 4.70516 21.1679 5.37458 21.1679 6.2002ZM25.4122 7.71755C25.3173 5.71487 24.86 3.94091 23.3932 2.47934C21.932 1.01778 20.1584 0.560344 18.1562 0.459932C16.0926 0.342783 9.90742 0.342783 7.84384 0.459932C5.84718 0.554766 4.07362 1.0122 2.6068 2.47377C1.13999 3.93533 0.688232 5.70929 0.587842 7.71197C0.470719 9.77601 0.470719 15.9626 0.587842 18.0266C0.682655 20.0293 1.13999 21.8032 2.6068 23.2648C4.07362 24.7264 5.84161 25.1838 7.84384 25.2842C9.90742 25.4014 16.0926 25.4014 18.1562 25.2842C20.1584 25.1894 21.932 24.7319 23.3932 23.2648C24.8544 21.8032 25.3118 20.0293 25.4122 18.0266C25.5293 15.9626 25.5293 9.78159 25.4122 7.71755ZM22.7462 20.2413C22.3112 21.3346 21.469 22.177 20.3703 22.6177C18.725 23.2704 14.821 23.1198 13.0028 23.1198C11.1846 23.1198 7.27496 23.2648 5.63525 22.6177C4.54211 22.1826 3.69994 21.3402 3.25934 20.2413C2.6068 18.5956 2.75739 14.6907 2.75739 12.8721C2.75739 11.0535 2.61238 7.14296 3.25934 5.50289C3.69437 4.4095 4.53653 3.56715 5.63525 3.12645C7.28053 2.47377 11.1846 2.62439 13.0028 2.62439C14.821 2.62439 18.7306 2.47934 20.3703 3.12645C21.4635 3.56157 22.3056 4.40392 22.7462 5.50289C23.3988 7.14854 23.2482 11.0535 23.2482 12.8721C23.2482 14.6907 23.3988 18.6012 22.7462 20.2413Z"
        fill="rgba(213, 204, 198, 1)"></path>
</svg>