<svg width="122" height="37" viewBox="0 0 122 37" fill="none" xmlns="http://www.w3.org/2000/svg">
    <g clip-path="url(#clip0_1279_2560)">
        <path
            d="M120.815 20.8957C120.424 21.1545 120.032 21.4242 119.609 21.6229C119.187 21.8201 118.726 21.9357 118.284 22.0867C118.276 22.0698 118.267 22.0513 118.259 22.0343C118.314 21.9958 118.364 21.948 118.424 21.9218C118.579 21.854 118.735 21.7878 118.897 21.7354C119.333 21.5937 119.706 21.3317 120.103 21.1145C120.379 20.9635 120.652 20.8017 120.857 20.5583C121.102 20.2701 121.331 19.9682 121.561 19.6662C121.604 19.6107 121.618 19.5337 121.646 19.4674C121.63 19.4613 121.615 19.4536 121.599 19.4474C121.573 19.4797 121.545 19.5121 121.521 19.546C121.382 19.737 121.256 19.9358 121.105 20.1161C120.94 20.3117 120.777 20.5213 120.573 20.6692C119.911 21.1468 119.197 21.5382 118.41 21.7801C118.382 21.7893 118.351 21.7863 118.293 21.7924C118.328 21.7447 118.338 21.7169 118.358 21.7077C118.627 21.5675 118.897 21.4242 119.171 21.2917C119.603 21.0837 120.065 20.9265 120.422 20.5983C120.684 20.358 120.923 20.0883 121.146 19.8125C121.399 19.4998 121.606 19.1546 121.733 18.7695C121.747 18.7263 121.749 18.6801 121.755 18.6339C121.743 18.6308 121.729 18.6277 121.716 18.6246C121.695 18.6647 121.669 18.7017 121.652 18.7433C121.482 19.1377 121.282 19.509 121.005 19.8434C120.629 20.2948 120.21 20.68 119.663 20.9203C119.288 21.0852 118.928 21.2793 118.561 21.4581C118.522 21.4766 118.479 21.4873 118.439 21.5012L118.422 21.4673C118.51 21.3456 118.647 21.287 118.775 21.2208C119.179 21.0082 119.599 20.8217 119.989 20.5845C120.448 20.304 120.892 19.9805 121.14 19.4874C121.399 18.9713 121.602 18.4274 121.829 17.8943C121.841 17.8666 121.835 17.8327 121.837 17.8019C121.826 17.7972 121.815 17.7942 121.804 17.7895C121.781 17.8265 121.752 17.862 121.736 17.902C121.639 18.1393 121.535 18.375 121.451 18.6185C121.14 19.5337 120.529 20.1839 119.684 20.6276C119.302 20.8279 118.917 21.022 118.535 21.2208C118.464 21.2578 118.398 21.304 118.318 21.3533C118.308 21.3086 118.296 21.284 118.299 21.2624C118.325 21.0852 118.439 20.9928 118.612 20.9419C118.906 20.8541 119.214 20.7801 119.481 20.6322C120.248 20.2085 120.797 19.5676 121.163 18.7741C121.348 18.375 121.516 17.9683 121.7 17.5692C121.786 17.3812 121.891 17.201 122.005 16.9837C121.961 17.0176 121.946 17.0253 121.935 17.0376C121.912 17.0638 121.892 17.0916 121.872 17.1208C121.589 17.5322 121.371 17.9775 121.179 18.4367C121.054 18.734 120.935 19.0406 120.757 19.3041C120.504 19.6739 120.191 20.0005 119.826 20.2701C119.518 20.4966 119.194 20.6892 118.814 20.7663C118.754 20.7786 118.692 20.7832 118.632 20.7909L118.623 20.7478C118.701 20.7231 118.783 20.7062 118.86 20.6738C119.317 20.4797 119.684 20.1577 120.031 19.8125C120.552 19.2949 120.888 18.6693 121.137 17.9821C121.296 17.5461 121.461 17.1178 121.459 16.6448C121.458 16.1794 121.47 15.7126 121.45 15.2488C121.433 14.8713 121.402 14.4923 121.331 14.1225C121.24 13.648 121.112 13.1811 120.985 12.7158C120.877 12.326 120.721 11.9485 120.626 11.5556C120.476 10.9424 120.351 10.323 120.233 9.70366C120.069 8.84854 119.781 8.03964 119.384 7.26927C119.119 6.75465 118.851 6.24158 118.581 5.72851C118.559 5.68845 118.524 5.6561 118.493 5.61912C118.482 5.62682 118.472 5.63298 118.461 5.64069C118.476 5.67767 118.492 5.71619 118.509 5.75316C118.874 6.50043 119.236 7.2477 119.603 7.99342C119.852 8.50187 119.988 9.04576 120.1 9.5958C120.173 9.95326 120.24 10.3123 120.31 10.6697C120.317 10.7113 120.314 10.7529 120.316 10.7961C120.302 10.7991 120.287 10.8022 120.273 10.8068C120.188 10.6404 120.017 10.5172 120.051 10.2907C120.059 10.2414 120.037 10.1875 120.028 10.1366C119.999 9.99178 119.952 9.84849 119.942 9.70212C119.903 9.19059 119.832 8.6883 119.596 8.22453C119.421 7.8794 119.231 7.54198 119.051 7.19839C118.837 6.79009 118.632 6.37717 118.413 5.97041C118.288 5.7393 118.142 5.51897 118.008 5.29248C117.992 5.26628 117.983 5.23701 117.976 5.20774C117.825 4.64382 117.536 4.1477 117.208 3.67315C117.184 3.63771 117.139 3.61306 117.103 3.58532C117.093 3.59457 117.083 3.60535 117.073 3.6146C117.096 3.65312 117.117 3.69317 117.142 3.73015C117.425 4.1554 117.7 4.59143 117.825 5.09064C117.934 5.52821 118.009 5.97503 118.073 6.42185C118.148 6.9642 118.311 7.48343 118.465 8.00575C118.493 8.10127 118.518 8.19834 118.549 8.31698C118.402 8.25689 118.373 8.19988 118.304 8.02732C118.068 7.44029 118.053 6.81012 117.948 6.19844C117.878 5.79168 117.803 5.39109 117.61 5.02439C117.29 4.41117 116.963 3.80103 116.637 3.18935C116.617 3.15237 116.584 3.1231 116.556 3.09074C116.547 3.0969 116.536 3.10307 116.527 3.10923C116.544 3.16624 116.553 3.22633 116.581 3.27871C116.831 3.76713 117.071 4.26171 117.341 4.73935C117.563 5.13224 117.72 5.53746 117.792 5.98274C117.885 6.55898 117.992 7.13214 118.093 7.70684C118.1 7.7469 118.093 7.79004 118.093 7.83164C118.083 7.83934 118.073 7.84551 118.063 7.85321C118.022 7.81007 117.963 7.77463 117.943 7.72379C117.892 7.59436 117.851 7.46186 117.823 7.32627C117.74 6.92568 117.65 6.52508 117.589 6.1214C117.499 5.53592 117.285 4.99511 117.037 4.46663C116.815 3.99516 116.558 3.5391 116.316 3.07533C116.258 2.9644 116.196 2.85346 116.136 2.74253C116.12 2.74869 116.107 2.75331 116.091 2.75948C116.102 2.80262 116.103 2.84884 116.122 2.88582C116.295 3.23249 116.452 3.5884 116.646 3.92275C116.965 4.4728 117.213 5.05212 117.39 5.65918C117.45 5.86564 117.456 6.08751 117.496 6.30167C117.567 6.67299 117.646 7.04432 117.72 7.41564C117.723 7.42796 117.71 7.44337 117.695 7.48651C117.652 7.4218 117.612 7.3802 117.595 7.3309C117.546 7.19223 117.499 7.05048 117.466 6.90719C117.356 6.44034 117.268 5.96887 117.145 5.50818C117.051 5.15689 116.939 4.80406 116.788 4.4728C116.58 4.01519 116.33 3.57608 116.099 3.12772C115.969 2.87657 115.849 2.62081 115.708 2.37583C115.643 2.26181 115.538 2.17091 115.452 2.07076C115.436 2.08309 115.422 2.09541 115.407 2.1062C115.429 2.14318 115.444 2.18478 115.47 2.21713C115.82 2.63776 115.997 3.13542 116.099 3.66236C116.187 4.11996 116.253 4.58065 116.338 5.03979C116.427 5.51897 116.549 5.99044 116.748 6.44034C116.774 6.50043 116.789 6.56514 116.814 6.6391C116.658 6.62831 116.62 6.52508 116.586 6.42955C116.462 6.08134 116.341 5.73313 116.224 5.38338C116.067 4.91499 115.949 4.4389 115.925 3.94278C115.905 3.52677 115.834 3.12155 115.607 2.75948C115.535 2.64546 115.47 2.52682 115.402 2.40973C115.389 2.41589 115.376 2.42359 115.362 2.42976C115.382 2.4883 115.395 2.55148 115.426 2.6054C115.615 2.94591 115.785 3.29412 115.806 3.69317C115.815 3.84571 115.82 3.99824 115.838 4.14924C115.909 4.73164 116.088 5.28786 116.253 5.84715C116.298 5.99814 116.342 6.14914 116.387 6.30013C116.367 6.30938 116.345 6.31862 116.325 6.32786C116.278 6.25391 116.222 6.18303 116.184 6.10291C115.835 5.38338 115.654 4.62225 115.623 3.82414C115.593 3.02141 115.278 2.33269 114.792 1.70868C114.768 1.67787 114.729 1.65784 114.697 1.63165C114.683 1.64243 114.669 1.65322 114.655 1.664C115.097 2.18632 115.365 2.78259 115.47 3.44974C115.276 3.08304 115.113 2.70093 114.919 2.33577C114.615 1.76877 114.336 1.41748 114.162 1.36972C114.489 1.75028 114.741 2.17707 114.965 2.62389C115.218 3.12772 115.487 3.83955 115.43 4.03214C115.087 3.14775 114.741 2.27568 114.045 1.60391C114.047 1.63781 114.054 1.67171 114.073 1.69636C114.171 1.83503 114.276 1.96907 114.372 2.10928C114.896 2.87812 115.241 3.72245 115.449 4.62995C115.524 4.95967 115.638 5.28015 115.732 5.60679C115.748 5.66072 115.752 5.71927 115.761 5.77627C115.746 5.78552 115.729 5.79476 115.714 5.80555C115.667 5.75162 115.607 5.70386 115.577 5.64223C115.398 5.29094 115.271 4.92116 115.205 4.53135C115.082 3.80257 114.795 3.14004 114.373 2.53299C114.077 2.1062 113.828 1.65322 113.631 1.17096C113.597 1.08776 113.549 1.01072 113.507 0.930602C113.493 0.938306 113.48 0.944469 113.464 0.952173C113.54 1.13552 113.606 1.32349 113.691 1.50068C113.839 1.80575 113.968 2.12469 114.158 2.40202C114.549 2.97672 114.874 3.57454 115.037 4.25401C115.125 4.62225 115.236 4.98433 115.335 5.34949C115.342 5.3803 115.344 5.41266 115.35 5.44963C115.199 5.41882 115.084 5.30943 115.06 5.19233C114.982 4.79944 114.914 4.405 114.817 4.01827C114.765 3.80565 114.689 3.5884 114.577 3.40197C114.372 3.06455 114.119 2.75486 113.908 2.42051C113.629 1.9814 113.396 1.51917 113.258 1.0138C113.245 0.96758 113.224 0.924439 113.207 0.881298C113.191 0.88592 113.176 0.890543 113.159 0.893624C113.176 0.98761 113.185 1.08468 113.213 1.17558C113.396 1.77802 113.706 2.3142 114.074 2.82265C114.25 3.06609 114.426 3.31415 114.561 3.57916C114.788 4.0229 114.82 4.52518 114.937 5.00282C114.943 5.03055 114.923 5.0891 114.914 5.09064C114.869 5.09218 114.806 5.09372 114.785 5.06753C114.749 5.02439 114.728 4.95967 114.725 4.90113C114.694 4.46201 114.598 4.04755 114.395 3.65003C114.224 3.31723 114.027 3.00908 113.791 2.7225C113.336 2.16937 112.902 1.60391 112.597 0.949091C112.564 0.878217 112.521 0.813505 112.483 0.745712C112.47 0.750334 112.46 0.754956 112.447 0.761119C112.455 0.801179 112.457 0.84432 112.472 0.879757C112.544 1.04308 112.611 1.21102 112.695 1.36664C113.027 1.96907 113.467 2.49293 113.889 3.03219C114.287 3.54064 114.537 4.1138 114.618 4.7563C114.623 4.78711 114.606 4.82101 114.598 4.8549C114.583 4.8549 114.566 4.85799 114.55 4.85953C114.527 4.78403 114.5 4.71161 114.481 4.63458C114.312 3.90426 113.959 3.27101 113.466 2.71326C112.948 2.12777 112.518 1.48836 112.21 0.768823C112.159 0.650185 112.091 0.540791 112.031 0.426776C112.011 0.437561 111.993 0.449887 111.973 0.460672C112.306 1.30963 112.722 2.11236 113.358 2.79337C113.302 2.78875 113.265 2.76872 113.239 2.74099C113.113 2.60386 112.985 2.46519 112.863 2.32344C112.458 1.85043 112.165 1.30501 111.879 0.756497C111.822 0.645563 111.754 0.540791 111.691 0.432939C111.675 0.440642 111.661 0.449887 111.646 0.457591C111.715 0.600881 111.783 0.744171 111.854 0.887461C112.111 1.41132 112.378 1.93209 112.762 2.37891C112.946 2.59462 113.147 2.79492 113.321 3.01678C113.62 3.39735 113.894 3.79641 114.022 4.27404C114.034 4.31718 114.03 4.36494 114.034 4.41117C113.988 4.39884 113.968 4.38189 113.956 4.36186C113.846 4.1554 113.754 3.93661 113.626 3.74094C113.386 3.37424 113.142 3.006 112.868 2.66395C112.406 2.08617 111.994 1.48065 111.705 0.796557C111.663 0.696408 111.612 0.600881 111.564 0.503813C111.551 0.508436 111.537 0.514599 111.523 0.519221C111.532 0.566984 111.535 0.616288 111.552 0.662511C111.591 0.764201 111.635 0.86435 111.678 0.962958C111.891 1.44675 112.131 1.9136 112.464 2.32961C112.928 2.91201 113.406 3.48517 113.752 4.15078C113.78 4.20316 113.794 4.26325 113.814 4.32026L113.763 4.35108C113.731 4.3141 113.694 4.28174 113.669 4.24168C113.51 3.989 113.378 3.71629 113.193 3.48363C112.923 3.14158 112.592 2.8473 112.338 2.49601C112.061 2.1139 111.836 1.69173 111.598 1.28035C111.367 0.881298 111.127 0.483784 111.005 0.0323425C111.004 0.0246387 110.987 0.0200165 110.968 0.00769043C110.968 0.0462093 110.96 0.0770244 110.968 0.101676C111.05 0.331249 111.115 0.570066 111.224 0.785771C111.433 1.19715 111.675 1.59005 111.891 1.99834C112.105 2.40202 112.372 2.76256 112.691 3.09074C112.897 3.30336 113.09 3.52831 113.278 3.75789C113.364 3.8642 113.423 3.99362 113.493 4.11226C113.481 4.12305 113.467 4.13383 113.455 4.14462C113.416 4.12921 113.369 4.1215 113.344 4.09531C113.252 3.99824 113.165 3.89655 113.081 3.79332C112.91 3.5807 112.757 3.34805 112.567 3.15237C112.158 2.7302 111.788 2.28493 111.518 1.75953C111.315 1.36509 111.094 0.979906 110.88 0.590096C110.86 0.554658 110.828 0.525384 110.802 0.493028C110.789 0.539251 110.799 0.566984 110.811 0.593177C111.019 0.999936 111.227 1.4067 111.433 1.815C111.669 2.2803 111.945 2.71326 112.338 3.06917C112.504 3.22016 112.638 3.40659 112.785 3.57916C112.817 3.61768 112.837 3.66698 112.866 3.71783C112.836 3.72399 112.826 3.72861 112.819 3.72707C112.802 3.72245 112.786 3.7132 112.771 3.70704C112.606 3.64079 112.534 3.48517 112.427 3.36037C112.187 3.07995 111.928 2.8134 111.686 2.53453C111.455 2.26798 111.249 1.98602 111.094 1.66246C110.88 1.21102 110.632 0.774986 110.397 0.33279C110.384 0.308138 110.355 0.291189 110.335 0.271159C110.323 0.280404 110.309 0.289648 110.296 0.297352C110.637 0.941388 110.976 1.58388 111.256 2.25719C111.218 2.24795 111.193 2.231 111.178 2.20789C111.034 1.99526 110.891 1.78264 110.751 1.56693C110.507 1.19099 110.267 0.811964 110.021 0.439102C109.987 0.388257 109.924 0.357442 109.85 0.298893C110.082 0.670215 110.296 1.00456 110.503 1.34352C110.708 1.67941 110.905 2.01837 111.105 2.35734L111.079 2.37891C111.045 2.35426 111.007 2.33423 110.977 2.3065C110.848 2.18324 110.709 2.06768 110.595 1.93209C110.326 1.60699 110.068 1.27111 109.803 0.942928C109.697 0.811964 109.581 0.687163 109.471 0.560821C109.461 0.568525 109.452 0.57777 109.443 0.585473C109.746 1.00148 110.078 1.39591 110.329 1.85043C109.953 1.5885 109.725 1.18637 109.381 0.889002C109.4 0.96604 109.429 1.03537 109.475 1.09238C109.62 1.27111 109.773 1.44521 109.92 1.62394C109.939 1.64551 109.947 1.67633 109.959 1.70406C109.948 1.71331 109.937 1.72255 109.928 1.73179C109.876 1.69328 109.816 1.65938 109.769 1.61316C109.611 1.45138 109.46 1.28189 109.303 1.12011C109.259 1.07697 109.201 1.04924 109.149 1.01534C109.142 1.02459 109.138 1.03537 109.132 1.04462C109.625 1.68403 110.267 2.17091 110.865 2.70247C110.851 2.72096 110.837 2.73945 110.823 2.7564C110.566 2.60078 110.293 2.46519 110.056 2.28184C109.817 2.09849 109.614 1.86892 109.395 1.65938C109.383 1.67325 109.369 1.68557 109.357 1.69944C109.583 1.98756 109.834 2.25719 110.139 2.46211C110.444 2.66549 110.774 2.83189 111.093 3.0137C111.088 3.02449 111.084 3.03681 111.079 3.0476C110.828 3.02911 110.612 2.90123 110.395 2.78875C110.17 2.67165 109.95 2.54377 109.726 2.42205C109.719 2.43284 109.712 2.44362 109.705 2.45287C109.746 2.48676 109.785 2.52374 109.828 2.55456C110.349 2.93512 110.928 3.18473 111.547 3.35575C111.836 3.43587 112.116 3.54526 112.396 3.64849C112.453 3.67006 112.497 3.72707 112.546 3.76713C112.534 3.78562 112.523 3.80411 112.51 3.82106C111.253 3.5884 110.064 3.21092 109.167 2.20018C109.165 2.24178 109.169 2.27414 109.187 2.29109C109.401 2.50679 109.591 2.75794 109.839 2.92742C110.48 3.36653 111.187 3.67006 111.954 3.83184C112.329 3.91042 112.7 4.01211 113.067 4.11996C113.235 4.16927 113.389 4.26171 113.517 4.40346C113.49 4.41271 113.478 4.42195 113.467 4.42041C113.446 4.41733 113.427 4.40654 113.406 4.39884C113.164 4.3141 112.925 4.21549 112.678 4.15078C112.35 4.0645 112.004 4.0383 111.685 3.93045C111.165 3.75481 110.662 3.53602 110.152 3.33572C110.113 3.32031 110.071 3.30953 110.031 3.29566L109.985 3.35575C110.021 3.3727 110.058 3.38502 110.091 3.40505C110.555 3.66852 111.037 3.90426 111.557 4.02444C112.326 4.20162 113.105 4.32797 113.817 4.69158C113.863 4.71624 113.906 4.74705 113.953 4.77324C113.946 4.78403 113.94 4.79635 113.934 4.80714C113.917 4.80868 113.9 4.81484 113.885 4.81176C113.381 4.69158 112.876 4.57603 112.375 4.44506C112.064 4.3634 111.762 4.24631 111.45 4.16002C110.717 3.95818 110.071 3.60381 109.52 3.07995C109.495 3.0553 109.464 3.03835 109.435 3.01678C109.426 3.02603 109.417 3.03527 109.407 3.04452C109.434 3.07995 109.455 3.11847 109.486 3.14929C109.9 3.5807 110.389 3.9058 110.95 4.10918C111.799 4.41579 112.665 4.66693 113.546 4.85953C114.059 4.972 114.57 5.07831 114.986 5.43115C115.02 5.46042 115.057 5.48507 115.093 5.51126C115.085 5.52513 115.079 5.539 115.071 5.55441C115.02 5.53592 114.966 5.52513 114.919 5.49894C114.401 5.21544 113.845 5.03363 113.264 4.94735C112.49 4.83179 111.757 4.5976 111.044 4.28791C110.987 4.26325 110.923 4.25093 110.863 4.23244C110.859 4.24322 110.854 4.25247 110.851 4.26325C110.886 4.28482 110.92 4.30948 110.957 4.32642C111.282 4.47434 111.6 4.64536 111.936 4.75784C112.284 4.87493 112.651 4.95043 113.013 5.01822C113.541 5.11837 114.064 5.22931 114.557 5.45118C114.618 5.47891 114.672 5.52205 114.729 5.55903C114.723 5.5729 114.718 5.58676 114.712 5.60217C114.664 5.60217 114.614 5.60987 114.567 5.60217C114.045 5.50664 113.523 5.40341 112.999 5.31251C112.292 5.18771 111.651 4.90113 111.048 4.52364C110.68 4.29253 110.329 4.03368 109.968 3.79024C109.919 3.75635 109.862 3.73169 109.81 3.70396C109.8 3.71629 109.793 3.72861 109.783 3.74094C109.81 3.77021 109.831 3.80565 109.86 3.82876C110.338 4.18776 110.817 4.54213 111.353 4.8133C111.777 5.02747 112.193 5.26166 112.666 5.35719C113.316 5.48815 113.966 5.60987 114.617 5.7393C114.855 5.78706 115.094 5.8379 115.33 5.89954C115.413 5.92111 115.487 5.98428 115.566 6.02742L115.546 6.07826C115.506 6.0721 115.466 6.07056 115.427 6.05977C114.701 5.83791 113.95 5.75933 113.201 5.67304C112.333 5.57444 111.557 5.27091 110.862 4.74551C110.643 4.58065 110.4 4.4466 110.153 4.28791C110.153 4.32797 110.15 4.33875 110.153 4.34337C110.164 4.35724 110.176 4.36957 110.19 4.38035C110.617 4.68696 111.007 5.04442 111.495 5.26474C111.89 5.44193 112.278 5.63298 112.709 5.70386C113.225 5.78706 113.746 5.83791 114.259 5.93035C114.731 6.01509 115.194 6.13373 115.661 6.24004C115.711 6.25083 115.755 6.28781 115.803 6.31246C115.797 6.32478 115.791 6.33865 115.786 6.35098C115.749 6.35098 115.712 6.3556 115.675 6.35098C114.983 6.26778 114.29 6.1892 113.6 6.09521C113.082 6.02434 112.56 5.9473 112.081 5.72543C111.252 5.34178 110.464 4.88572 109.791 4.25709C109.771 4.2386 109.745 4.22782 109.722 4.21395C109.723 4.26325 109.742 4.29715 109.768 4.32026C109.97 4.49899 110.159 4.69775 110.383 4.8472C110.751 5.09526 111.139 5.31097 111.521 5.53746C112.101 5.88105 112.732 6.06902 113.395 6.16146C114.016 6.24929 114.64 6.3217 115.262 6.40028C115.755 6.46191 116.236 6.5559 116.66 6.83631C116.695 6.85942 116.724 6.89024 116.757 6.91797L116.735 6.95341C116.684 6.93646 116.632 6.92414 116.584 6.90257C116.247 6.74079 115.892 6.63756 115.521 6.59287C115.119 6.54511 114.712 6.52508 114.313 6.46191C113.831 6.38641 113.355 6.27702 112.876 6.18766C112.532 6.12294 112.193 6.04745 111.885 5.87026C111.651 5.73467 111.413 5.60525 111.176 5.47583C111.128 5.44963 111.068 5.41574 111.019 5.42344C110.891 5.44501 110.8 5.38492 110.709 5.31405C110.606 5.23393 110.503 5.15227 110.397 5.07677C110.363 5.05212 110.318 5.04133 110.279 5.02285C110.27 5.03517 110.261 5.0475 110.253 5.05828C110.293 5.09834 110.329 5.14611 110.373 5.18C110.669 5.39725 110.965 5.61141 111.262 5.82558C111.675 6.1214 112.113 6.37871 112.6 6.52662C113.529 6.80704 114.49 6.92414 115.452 7.03353C116.067 7.10441 116.661 7.24461 117.227 7.49884C117.273 7.52041 117.315 7.55122 117.358 7.57896C117.351 7.58974 117.345 7.60207 117.341 7.61285C117.276 7.59436 117.21 7.5805 117.145 7.55739C116.503 7.32473 115.837 7.19839 115.159 7.11673C114.58 7.0474 114 6.9719 113.424 6.88254C112.849 6.79317 112.281 6.66837 111.771 6.37101C111.309 6.10137 110.853 5.81788 110.393 5.54208C110.369 5.52667 110.34 5.52051 110.312 5.50818C110.306 5.51743 110.299 5.52667 110.292 5.53746C110.323 5.57135 110.35 5.61141 110.387 5.63607C110.609 5.7886 110.831 5.94114 111.058 6.08905C111.638 6.46653 112.247 6.79317 112.939 6.90719C113.691 7.03199 114.449 7.11827 115.201 7.23537C115.643 7.30316 116.082 7.39715 116.523 7.48035C116.569 7.48959 116.612 7.51116 116.658 7.52811C116.655 7.54044 116.654 7.55431 116.65 7.56663C116.592 7.56663 116.533 7.57279 116.476 7.56663C116.139 7.52503 115.803 7.47419 115.464 7.43721C114.919 7.37712 114.37 7.3386 113.826 7.26618C112.689 7.11365 111.641 6.70689 110.688 6.07056C110.434 5.90108 110.212 5.68075 109.976 5.48353C109.905 5.42498 109.84 5.35873 109.773 5.2971C109.759 5.30943 109.745 5.32175 109.731 5.33254C109.774 5.39109 109.811 5.45734 109.862 5.50818C110.219 5.86256 110.608 6.17225 111.05 6.41877C111.757 6.81166 112.5 7.10132 113.287 7.28159C113.389 7.3047 113.49 7.32935 113.594 7.35401L113.589 7.39407C113.53 7.39869 113.47 7.40947 113.413 7.40639C112.722 7.36633 112.048 7.21996 111.398 6.98423C110.993 6.83631 110.597 6.66375 110.196 6.50351C110.173 6.49427 110.148 6.49118 110.113 6.48194C110.128 6.52354 110.139 6.55281 110.15 6.58055C110.142 6.59133 110.135 6.60212 110.127 6.6129C109.944 6.522 109.759 6.43264 109.575 6.34173C109.569 6.35714 109.561 6.37255 109.555 6.38795C109.594 6.41415 109.629 6.4465 109.669 6.46653C109.944 6.60982 110.219 6.74695 110.491 6.8964C111.173 7.26927 111.896 7.52811 112.666 7.64521C113.403 7.75614 114.137 7.88711 114.877 7.96877C115.516 8.03964 116.164 8.05659 116.808 8.09049C117.438 8.12284 118.008 8.33547 118.549 8.64208C118.612 8.67751 118.66 8.7376 118.715 8.78537C118.706 8.80078 118.695 8.81618 118.686 8.83159C118.633 8.81156 118.581 8.79307 118.53 8.76996C117.949 8.49416 117.361 8.24919 116.706 8.21067C115.983 8.16753 115.262 8.11514 114.541 8.05813C114.09 8.02269 113.635 7.9965 113.188 7.92871C112.381 7.80699 111.586 7.62518 110.857 7.23383C110.816 7.21226 110.768 7.20301 110.722 7.18915C110.717 7.19993 110.711 7.21226 110.706 7.22304C110.748 7.24924 110.789 7.27543 110.831 7.30162C111.495 7.72225 112.242 7.89635 113.003 8.01037C113.627 8.10435 114.256 8.1552 114.885 8.21221C115.336 8.25381 115.788 8.29541 116.241 8.30003C117.033 8.30773 117.777 8.48954 118.478 8.85316C118.516 8.87319 118.547 8.90401 118.583 8.9302C118.576 8.94252 118.572 8.95331 118.566 8.96564C118.522 8.95639 118.478 8.95177 118.436 8.9379C117.894 8.77612 117.361 8.5974 116.784 8.56196C115.859 8.50495 114.936 8.40326 114.011 8.31698C113.612 8.27846 113.204 8.2723 112.819 8.17523C111.973 7.96261 111.153 7.66216 110.387 7.23383C110.344 7.20918 110.29 7.20455 110.242 7.18915C110.236 7.20455 110.23 7.21996 110.224 7.23537C110.29 7.27697 110.355 7.32473 110.424 7.36017C111.047 7.67602 111.685 7.95798 112.358 8.14904C112.651 8.23224 112.946 8.32776 113.245 8.36012C113.874 8.42637 114.506 8.45102 115.136 8.50187C115.466 8.52806 115.794 8.5712 116.122 8.6128C116.623 8.67597 117.123 8.73915 117.623 8.8131C117.755 8.83313 117.882 8.89168 118.011 8.92712C118.421 9.04113 118.808 9.20908 119.17 9.43403C119.233 9.47408 119.281 9.5388 119.334 9.59272C119.322 9.60967 119.31 9.62508 119.297 9.64203C119.224 9.60351 119.153 9.56191 119.077 9.52801C118.738 9.3724 118.404 9.20137 118.054 9.07195C117.795 8.97642 117.519 8.90246 117.245 8.87781C116.646 8.82543 116.045 8.80848 115.444 8.7792C114.974 8.75609 114.503 8.74993 114.034 8.70987C113.396 8.65594 112.759 8.58045 112.147 8.37245C111.812 8.25843 111.484 8.13209 111.151 8.01037C111.093 7.9888 111.034 7.96723 110.974 7.9472C110.988 7.99188 111.013 8.01499 111.042 8.02886C111.199 8.10281 111.356 8.17985 111.517 8.24764C112.611 8.71449 113.769 8.83467 114.943 8.87473C115.396 8.89014 115.849 8.91017 116.302 8.93174C116.344 8.93328 116.384 8.95177 116.424 8.96255C116.392 8.99953 116.364 9.01032 116.336 9.01186C116.006 9.03035 115.675 9.04421 115.345 9.06579C114.618 9.11509 113.9 9.03035 113.185 8.91325C112.725 8.83775 112.298 8.66057 111.871 8.48184C111.82 8.46027 111.762 8.45411 111.708 8.44178C111.702 8.46027 111.695 8.4803 111.689 8.49879C112.071 8.65132 112.452 8.80232 112.834 8.95485C112.829 8.96872 112.825 8.98258 112.82 8.99645C112.278 8.88244 111.751 8.70987 111.225 8.5219C111.259 8.56966 111.299 8.5974 111.344 8.61743C112.358 9.08736 113.43 9.29382 114.54 9.31539C115.381 9.33234 116.222 9.32925 117.063 9.3462C117.942 9.36315 118.769 9.5881 119.544 9.99948C119.609 10.0334 119.67 10.0796 119.72 10.1335C119.755 10.172 119.767 10.2321 119.789 10.283C119.778 10.2922 119.766 10.3015 119.755 10.3107C119.709 10.2922 119.661 10.2768 119.618 10.2552C119.17 10.0211 118.729 9.77299 118.241 9.62662C117.695 9.46176 117.133 9.44481 116.57 9.44481C115.969 9.44481 115.373 9.53417 114.768 9.49257C114.06 9.44327 113.346 9.47408 112.658 9.2553C112.583 9.23219 112.501 9.23065 112.392 9.21524C112.426 9.25376 112.429 9.263 112.436 9.26608C112.919 9.45406 113.413 9.58502 113.936 9.58964C114.21 9.59118 114.484 9.58964 114.758 9.5958C114.997 9.60197 115.236 9.63124 115.475 9.62508C116.054 9.60967 116.63 9.5465 117.211 9.58348C117.871 9.62354 118.498 9.75142 119.063 10.1089C119.097 10.1304 119.126 10.1566 119.159 10.1797C119.153 10.1921 119.148 10.2029 119.142 10.2152C119.096 10.2029 119.049 10.1936 119.005 10.1797C118.758 10.095 118.515 9.99178 118.264 9.92861C117.368 9.70366 116.458 9.72985 115.546 9.77915C114.788 9.82075 114.027 9.85003 113.279 9.68825C112.808 9.58656 112.346 9.43711 111.88 9.31076C111.834 9.29844 111.786 9.28457 111.74 9.27071C111.794 9.33388 111.856 9.3724 111.923 9.39859C112.805 9.74526 113.721 9.92707 114.666 9.94247C115.17 9.95018 115.675 9.89317 116.181 9.87776C117.07 9.85157 117.946 9.91166 118.795 10.2198C119.37 10.4294 119.861 10.7421 120.262 11.1997C120.304 11.2475 120.328 11.3107 120.361 11.3677C120.347 11.3785 120.333 11.3877 120.321 11.3985C120.279 11.3708 120.237 11.343 120.197 11.3122C119.945 11.1212 119.698 10.9178 119.436 10.7375C118.744 10.263 117.988 9.97329 117.136 9.99948C116.413 10.0226 115.689 10.0411 114.968 10.0858C114.17 10.1351 113.383 10.0919 112.601 9.92707C112.563 9.91936 112.523 9.92244 112.484 9.91936C112.483 9.93169 112.481 9.94401 112.48 9.95788C112.66 10.001 112.84 10.0426 113.019 10.0904C113.449 10.2044 113.886 10.2383 114.327 10.2321C114.68 10.2275 115.031 10.2075 115.384 10.1936C115.854 10.1751 116.325 10.1597 116.795 10.1366C117.444 10.1058 118.077 10.1643 118.675 10.4386C119.225 10.6913 119.718 11.0349 120.177 11.4278C120.243 11.4832 120.294 11.5556 120.353 11.6219C120.341 11.6373 120.328 11.6512 120.317 11.6666C120.265 11.6388 120.21 11.6142 120.16 11.5803C119.732 11.2906 119.331 10.964 118.863 10.7298C118.116 10.3569 117.328 10.2629 116.51 10.3369C116.128 10.3708 115.746 10.4093 115.364 10.4186C114.942 10.4278 114.518 10.4186 114.097 10.3908C113.751 10.3677 113.407 10.303 113.064 10.2568C113.022 10.2506 112.98 10.2491 112.937 10.2445C112.95 10.2784 112.962 10.2891 112.977 10.2938C113.154 10.3384 113.332 10.3893 113.51 10.4232C114.444 10.6065 115.385 10.531 116.324 10.491C116.623 10.4787 116.917 10.434 117.219 10.4401C118.054 10.454 118.789 10.7221 119.448 11.2213C119.479 11.2444 119.504 11.2798 119.53 11.3091C119.524 11.3199 119.516 11.3292 119.51 11.3399C119.473 11.3261 119.433 11.3153 119.398 11.2968C119.294 11.2398 119.191 11.1828 119.091 11.1212C118.746 10.9101 118.385 10.7375 117.986 10.6635C117.331 10.5449 116.674 10.5619 116.019 10.6435C115.234 10.7421 114.455 10.739 113.672 10.6374C113.634 10.6327 113.594 10.6374 113.554 10.6374C113.6 10.6759 113.648 10.6974 113.698 10.7021C114.153 10.7483 114.607 10.7914 115.062 10.8377C115.164 10.8484 115.285 10.8438 115.361 10.8977C115.726 11.1597 116.079 11.437 116.433 11.7128C116.47 11.7421 116.487 11.7975 116.512 11.8422C116.476 11.8314 116.438 11.8237 116.409 11.8052C116.236 11.6881 116.065 11.568 115.892 11.4493C115.863 11.4293 115.834 11.4124 115.803 11.3954C115.781 11.4185 115.761 11.4432 115.74 11.4663C115.791 11.4909 115.849 11.5048 115.891 11.5402C116.33 11.9146 116.838 12.1735 117.352 12.4262C117.45 12.4739 117.55 12.5109 117.58 12.6373C117.589 12.6758 117.637 12.7158 117.677 12.7359C117.963 12.8807 118.251 13.0271 118.543 13.1627C118.965 13.3583 119.399 13.5309 119.814 13.742C120.538 14.1118 121.04 14.6926 121.342 15.446C121.388 15.5616 121.401 15.6741 121.331 15.7927C121.294 15.7388 121.267 15.6833 121.253 15.6232C121.133 15.1533 120.877 14.765 120.535 14.4307C120.16 14.064 119.706 13.819 119.222 13.6403C118.384 13.3306 117.609 12.9192 116.931 12.3322C116.899 12.3045 116.857 12.286 116.82 12.2628C116.812 12.2736 116.806 12.2829 116.798 12.2937C116.999 12.5587 117.254 12.7667 117.527 12.95C117.801 13.1349 118.088 13.3013 118.368 13.477C118.362 13.4893 118.355 13.5016 118.348 13.5139C118.117 13.4585 117.917 13.3352 117.72 13.2042C117.519 13.0717 117.328 12.9285 117.131 12.7929C116.937 12.6588 116.735 12.5356 116.55 12.3923C116.361 12.2459 116.177 12.0903 116.008 11.9223C115.846 11.7606 115.704 11.5772 115.555 11.4031L115.52 11.4308C115.521 11.4463 115.52 11.4663 115.526 11.4786C115.717 11.7606 115.911 12.0364 116.187 12.2474C116.356 12.3769 116.509 12.5263 116.666 12.6711C116.698 12.702 116.723 12.7497 116.734 12.7944C116.792 13.0086 116.845 13.2227 116.899 13.4384C116.993 13.8113 117.099 14.1811 117.316 14.5031C117.57 14.8775 117.841 15.2411 118.105 15.6094C118.136 15.6525 118.159 15.7034 118.185 15.7496C118.168 15.7588 118.153 15.7681 118.136 15.7773C117.37 15.0932 116.923 14.2073 116.573 13.2566C116.566 13.2905 116.563 13.3244 116.572 13.3537C116.658 13.6126 116.731 13.8776 116.838 14.1287C117.068 14.6695 117.385 15.1595 117.795 15.5832C118.207 16.0084 118.555 16.4814 118.898 16.9591C119.13 17.2795 119.234 17.6539 119.348 18.0237C119.368 18.0884 119.358 18.1639 119.361 18.2348C119.348 18.2364 119.336 18.2394 119.324 18.241C119.308 18.1994 119.29 18.1578 119.276 18.1146C119.242 18.0114 119.211 17.9066 119.179 17.8034C119.029 17.3335 118.746 16.9406 118.447 16.5616C118.048 16.0546 117.629 15.5647 117.231 15.0578C116.878 14.6079 116.615 14.1102 116.478 13.5494C116.432 13.3583 116.361 13.1734 116.293 12.9624C116.276 13.0024 116.267 13.0147 116.268 13.024C116.353 13.3784 116.401 13.7497 116.535 14.0856C116.758 14.6464 117.12 15.1317 117.504 15.597C117.852 16.0207 118.213 16.4352 118.547 16.8697C118.821 17.2256 119.04 17.6201 119.156 18.0607C119.196 18.2163 119.228 18.3735 119.264 18.5291L119.205 18.5476C119.177 18.4798 119.143 18.4135 119.122 18.3442C119.002 17.976 118.889 17.6046 118.633 17.298C118.341 16.9467 118.054 16.5893 117.767 16.2334C117.561 15.9745 117.364 15.7095 117.153 15.4538C116.683 14.8852 116.301 14.2766 116.204 13.5263C116.197 13.48 116.167 13.4354 116.136 13.3599C116.116 13.4153 116.108 13.4277 116.107 13.4384C116.107 13.4646 116.11 13.4908 116.111 13.517C116.151 14.0024 116.313 14.4492 116.586 14.8452C116.871 15.2612 117.188 15.6556 117.496 16.0546C117.738 16.369 117.989 16.6756 118.236 16.9868C118.262 17.0192 118.276 17.0623 118.296 17.0993C118.285 17.107 118.274 17.1147 118.264 17.1239C118.228 17.0916 118.188 17.0608 118.156 17.0253C117.925 16.7649 117.707 16.4891 117.461 16.2442C116.915 15.7018 116.442 15.1117 116.116 14.4107C116.05 14.2689 115.965 14.1364 115.889 14.0008C115.877 14.007 115.866 14.0116 115.854 14.0178C115.862 14.0486 115.865 14.0825 115.879 14.1118C115.994 14.3552 116.117 14.5956 116.227 14.8421C116.348 15.1148 116.556 15.3367 116.638 15.6371C116.788 16.1841 117.137 16.6263 117.455 17.0854C117.761 17.5291 118.074 17.9713 118.348 18.4351C118.587 18.8372 118.735 19.2825 118.766 19.7571C118.774 19.885 118.747 19.9928 118.612 20.0945C118.6 19.9867 118.598 19.9065 118.581 19.828C118.518 19.5306 118.481 19.224 118.379 18.9405C118.188 18.4089 117.872 17.9405 117.555 17.4752C117.299 17.1008 117.043 16.728 116.798 16.3489C116.681 16.1687 116.586 15.973 116.481 15.785C116.462 15.8097 116.459 15.8282 116.467 15.8405C116.637 16.1779 116.781 16.5338 116.985 16.8497C117.359 17.4305 117.792 17.9729 118.116 18.5907C118.381 19.0992 118.495 19.6338 118.496 20.2008C118.496 20.2193 118.485 20.2363 118.481 20.2547C118.469 20.2547 118.456 20.2547 118.444 20.2563C118.422 20.1438 118.401 20.0313 118.379 19.9189C118.353 19.7864 118.339 19.6508 118.298 19.5229C118.119 18.9852 117.849 18.4952 117.509 18.0422C117.099 17.4953 116.684 16.9514 116.301 16.3859C116.122 16.1224 115.98 15.8251 115.871 15.5246C115.778 15.2704 115.755 14.9915 115.704 14.7219C115.678 14.5848 115.663 14.4461 115.64 14.309C115.637 14.2936 115.62 14.2797 115.587 14.235C115.587 14.3567 115.584 14.4399 115.587 14.5247C115.609 15.0347 115.695 15.537 115.925 15.9915C116.262 16.6586 116.715 17.2534 117.184 17.8327C117.633 18.3904 118.026 18.9744 118.208 19.6785C118.244 19.8125 118.264 19.9497 118.29 20.0868C118.276 20.0914 118.262 20.0945 118.248 20.0991C118.202 19.9882 118.157 19.8757 118.11 19.7663C117.982 19.4767 117.878 19.1701 117.715 18.9004C117.368 18.3273 116.934 17.8204 116.453 17.355C115.817 16.7372 115.381 16.01 115.214 15.1317C115.199 15.047 115.165 14.9669 115.141 14.8837C115.105 14.9129 115.096 14.9376 115.099 14.9607C115.207 15.6756 115.45 16.3397 115.912 16.9021C116.305 17.3797 116.737 17.825 117.133 18.2995C117.339 18.546 117.541 18.8064 117.684 19.0899C117.886 19.4936 118.036 19.9235 118.197 20.3456C118.244 20.4674 118.253 20.6045 118.277 20.7355C118.264 20.737 118.251 20.7401 118.237 20.7416C118.225 20.6969 118.211 20.6523 118.199 20.6076C118.185 20.5567 118.176 20.5059 118.159 20.4566C117.917 19.7879 117.586 19.1654 117.153 18.6046C116.866 18.2333 116.54 17.8912 116.224 17.543C115.748 17.0161 115.325 16.4552 115.019 15.8112C114.968 15.7034 114.908 15.6001 114.848 15.4876C114.808 15.5231 114.785 15.5431 114.743 15.5786C114.663 15.4044 114.589 15.2442 114.517 15.0855C114.5 15.0917 114.484 15.0994 114.467 15.1055C114.532 15.2735 114.592 15.443 114.661 15.6109C114.903 16.1995 115.174 16.7742 115.527 17.3057C115.584 17.392 115.617 17.4937 115.657 17.5892C115.777 17.882 115.883 18.1824 116.017 18.469C116.224 18.9097 116.606 19.2209 116.892 19.603C117.174 19.9805 117.47 20.3456 117.64 20.7909C117.731 21.0267 117.811 21.2655 117.889 21.5043C117.92 21.5967 117.92 21.6923 117.791 21.7616C117.769 21.6861 117.741 21.6229 117.734 21.5582C117.683 21.0729 117.45 20.6661 117.168 20.284C116.798 19.7833 116.41 19.2964 116.046 18.791C115.76 18.3935 115.541 17.9575 115.463 17.4644C115.458 17.4367 115.441 17.4105 115.429 17.3843C115.416 17.3874 115.404 17.3889 115.39 17.392C115.39 17.4506 115.384 17.5091 115.39 17.5661C115.433 17.8974 115.586 18.1871 115.738 18.4752C116.045 19.056 116.461 19.5629 116.871 20.0714C117.254 20.5459 117.576 21.0451 117.655 21.6676C117.669 21.7801 117.633 21.8294 117.526 21.854C117.481 21.7077 117.449 21.5628 117.392 21.4288C117.154 20.8633 116.828 20.3503 116.461 19.8603C116.191 19.5029 115.94 19.1315 115.686 18.7618C115.614 18.657 115.56 18.5399 115.496 18.4274C115.486 18.4305 115.476 18.4351 115.466 18.4382C115.483 18.506 115.486 18.583 115.52 18.6416C115.701 18.9482 115.871 19.2656 116.083 19.5506C116.456 20.0514 116.835 20.5444 117.116 21.1037C117.248 21.3656 117.37 21.6306 117.392 21.928C117.395 21.9696 117.384 22.0112 117.379 22.0528C117.339 22.0312 117.321 22.0097 117.318 21.9865C117.254 21.5428 117.048 21.1561 116.801 20.7986C116.483 20.3379 116.136 19.8942 115.783 19.4582C115.341 18.9097 115.002 18.3057 114.734 17.6586C114.718 17.6216 114.7 17.5862 114.683 17.5507C114.671 17.5553 114.66 17.5584 114.647 17.563C114.66 17.6324 114.661 17.7048 114.686 17.768C114.976 18.4875 115.353 19.1516 115.863 19.7448C116.238 20.1792 116.609 20.6184 116.88 21.1345C117.042 21.4442 117.164 21.7601 117.228 22.1006C117.248 22.2023 117.23 22.2885 117.113 22.3378C117.097 22.3024 117.082 22.2716 117.071 22.2392C117.003 22.0328 116.946 21.8232 116.868 21.6199C116.635 21.0113 116.25 20.5028 115.805 20.0375C115.49 19.7093 115.199 19.3626 115.005 18.9466C114.986 18.9066 114.956 18.8711 114.931 18.8342C114.92 18.8388 114.911 18.8419 114.9 18.8465C114.905 18.8773 114.903 18.9112 114.916 18.9374C114.983 19.0791 115.036 19.2332 115.128 19.3565C115.378 19.6908 115.623 20.0344 115.912 20.3318C116.473 20.9065 116.774 21.6091 117.009 22.3532C117.042 22.458 117.014 22.5289 116.903 22.5874C116.882 22.532 116.86 22.4827 116.842 22.4318C116.714 22.0852 116.606 21.7292 116.453 21.3934C116.247 20.9404 115.922 20.5675 115.58 20.2116C115.188 19.8064 114.808 19.3935 114.606 18.8511C114.583 18.791 114.546 18.7371 114.5 18.6524C114.49 18.7032 114.483 18.7171 114.486 18.7279C114.61 19.1053 114.758 19.4736 115.023 19.7786C115.324 20.1238 115.634 20.4597 115.937 20.8017C116.396 21.3163 116.584 21.9573 116.772 22.5982C116.785 22.6398 116.774 22.6876 116.774 22.7338C116.623 22.4549 116.507 22.1745 116.375 21.9033C116.242 21.6306 116.131 21.3456 115.919 21.116C115.717 20.9003 115.564 20.6384 115.316 20.4627C115.321 20.5151 115.342 20.5552 115.369 20.5891C115.481 20.7278 115.595 20.8649 115.708 21.0051C116.131 21.532 116.405 22.136 116.629 22.7662C116.644 22.8093 116.64 22.8586 116.644 22.9048C116.632 22.9079 116.621 22.9095 116.609 22.9125C116.573 22.8401 116.541 22.7646 116.499 22.6938C116.311 22.3702 116.147 22.0297 115.926 21.7308C115.617 21.3102 115.275 20.9142 115.053 20.435C115.023 20.3703 114.968 20.3195 114.923 20.2609C114.9 20.2917 114.899 20.3056 114.903 20.3148C115.122 20.7863 115.37 21.2408 115.718 21.6322C116.017 21.9681 116.241 22.3486 116.422 22.7569C116.45 22.8186 116.462 22.8864 116.481 22.9511C116.473 22.9511 116.466 22.9541 116.458 22.9557C116 22.3363 115.543 21.7154 115.085 21.096C115.073 21.1022 115.062 21.1083 115.05 21.1129C115.119 21.2485 115.173 21.3949 115.262 21.5166C115.503 21.8479 115.758 22.1684 116.005 22.495C116.031 22.5304 116.042 22.5782 116.06 22.6198C116.048 22.626 116.036 22.6337 116.025 22.6398C115.831 22.4087 115.637 22.1761 115.444 21.9449C115.43 21.9557 115.415 21.9665 115.401 21.9773C115.429 22.022 115.453 22.0698 115.483 22.1129C115.729 22.4611 115.973 22.8124 116.225 23.156C116.315 23.2777 116.284 23.3578 116.194 23.4611C115.735 23.9988 115.279 24.5411 114.823 25.0819C114.826 25.0927 114.829 25.1035 114.832 25.1143C114.829 25.1127 114.828 25.1112 114.825 25.1081C114.661 25.3023 114.498 25.4964 114.333 25.6905C114.305 25.7229 114.268 25.7475 114.235 25.7783C114.033 25.4394 113.829 25.1189 113.644 24.7876C113.304 24.1744 112.951 23.5658 112.649 22.9341C112.435 22.4873 112.47 22.0097 112.697 21.5598C113.01 20.9373 113.745 20.5768 114.336 20.7555C114.609 20.8371 114.74 20.7986 114.791 20.623C114.839 20.4535 114.74 20.3256 114.47 20.2609C114.295 20.2178 114.107 20.1839 113.928 20.1993C113.079 20.2702 112.509 20.7308 112.15 21.4889C112.008 21.7893 111.839 22.0775 111.663 22.3594C111.546 22.5474 111.4 22.7153 111.262 22.8894C110.646 23.6613 109.994 24.4025 109.173 24.9664C108.414 25.4871 107.81 25.1821 107.748 24.2622C107.709 23.706 107.8 23.1652 107.962 22.6367C108.004 22.5012 108.095 22.3687 108.193 22.2623C108.629 21.794 109.098 21.3533 109.514 20.8664C109.769 20.5675 109.985 20.2208 109.957 19.791C109.937 19.4936 109.731 19.318 109.446 19.395C109.275 19.4412 109.085 19.5229 108.97 19.6492C108.689 19.9574 108.415 20.2809 108.199 20.6368C107.774 21.3333 107.529 22.1098 107.349 22.9018C107.203 23.5458 107.126 24.1975 107.33 24.8493C107.552 25.5565 108.195 25.9109 108.896 25.6797C109.138 25.5996 109.372 25.4687 109.58 25.3207C110.309 24.803 110.911 24.1544 111.472 23.4641C111.652 23.2423 111.831 23.0189 112.034 22.7662C112.313 23.7184 112.839 24.4887 113.336 25.2761C113.498 25.5334 113.617 25.8169 113.758 26.088C113.846 26.2575 113.814 26.3931 113.701 26.5487C113.158 27.296 112.628 28.0571 112.262 28.9122C112.138 29.2034 112.041 29.5178 111.997 29.8305C111.925 30.3559 112.339 30.6625 112.809 30.4191C113.099 30.2681 113.378 30.0509 113.589 29.8013C114.338 28.9138 114.629 27.8784 114.455 26.7259C114.424 26.5256 114.458 26.3762 114.586 26.2236C114.802 25.9679 115.013 25.7106 115.225 25.4517C115.61 24.9895 115.994 24.5257 116.379 24.0635C116.401 24.0373 116.432 24.0157 116.473 23.9803C116.473 24.0188 116.476 24.0327 116.473 24.0435C116.462 24.0681 116.45 24.0912 116.436 24.1128C115.997 24.7692 115.516 25.3947 114.974 25.9709C114.818 26.1358 114.666 26.3037 114.521 26.4778C114.464 26.5472 114.438 26.6381 114.526 26.7105C114.614 26.7829 114.674 26.7167 114.725 26.6566C114.882 26.4701 115.023 26.2698 115.19 26.0927C115.708 25.5395 116.151 24.9325 116.572 24.3054C116.634 24.2129 116.734 24.1205 116.835 24.0866C117.237 23.9556 117.653 23.9264 118.076 23.9649C118.191 23.9757 118.319 23.9911 118.424 23.9572C118.695 23.8663 118.959 23.7476 119.224 23.6398C119.239 23.6336 119.247 23.6105 119.268 23.5797C119.231 23.5843 119.214 23.5843 119.199 23.5889C118.926 23.6783 118.655 23.7738 118.379 23.8555C118.294 23.8801 118.196 23.8832 118.108 23.8663C117.843 23.8123 117.58 23.817 117.316 23.8694C117.247 23.8832 117.176 23.8832 117.107 23.8909C117.102 23.8771 117.097 23.8647 117.093 23.8509C117.123 23.8278 117.15 23.7939 117.184 23.7846C117.547 23.6798 117.906 23.552 118.276 23.4811C118.858 23.3701 119.445 23.2977 119.971 22.988C120.243 22.8278 120.515 22.6753 120.726 22.4364C120.774 22.381 120.807 22.3116 120.847 22.25C120.834 22.2408 120.818 22.23 120.804 22.2207C120.778 22.2516 120.753 22.287 120.723 22.3116C120.529 22.4719 120.348 22.6568 120.136 22.7847C119.676 23.0605 119.176 23.2407 118.64 23.2962C118.256 23.3347 117.886 23.4272 117.521 23.5458C117.455 23.5674 117.382 23.572 117.313 23.5859C117.472 23.421 117.669 23.347 117.877 23.2947C118.447 23.1514 119.014 22.9911 119.587 22.8632C120 22.7723 120.28 22.4965 120.578 22.2377C120.589 22.2284 120.592 22.2115 120.598 22.1976C120.536 22.2084 120.493 22.2392 120.447 22.2685C120.236 22.4056 120.039 22.5767 119.811 22.6706C119.536 22.7831 119.234 22.8324 118.943 22.9048C118.844 22.9295 118.743 22.9387 118.641 22.9541C118.901 22.8201 119.157 22.6999 119.422 22.6044C120.032 22.3825 120.558 22.0374 120.998 21.5613C121.035 21.5212 121.065 21.4735 121.097 21.4303C121.086 21.4226 121.077 21.4149 121.066 21.4057C121.043 21.4226 121.017 21.4365 120.995 21.455C120.787 21.6337 120.582 21.8171 120.371 21.9912C120.099 22.2177 119.766 22.3301 119.447 22.4719C118.975 22.6799 118.495 22.8602 117.989 22.9634C117.801 23.0019 117.613 23.0343 117.449 23.1421C117.425 23.156 117.387 23.1437 117.355 23.1437C117.362 23.1128 117.359 23.0682 117.379 23.0528C117.475 22.9788 117.567 22.8864 117.677 22.8463C117.926 22.7585 118.188 22.703 118.441 22.6229C119.032 22.4365 119.601 22.1961 120.139 21.8833C120.575 21.6291 120.968 21.3225 121.319 20.9604C121.345 20.9342 121.361 20.8972 121.381 20.8649C121.365 20.8479 121.35 20.831 121.334 20.814C120.834 21.3009 120.291 21.7246 119.66 22.0235C119.029 22.3224 118.375 22.532 117.681 22.6506C117.798 22.5412 117.923 22.4457 118.057 22.3656C118.361 22.1868 118.701 22.1098 119.031 22.0004C120.099 21.6445 121.012 21.0482 121.73 20.17C121.783 20.1068 121.814 20.0267 121.855 19.9558C121.837 19.942 121.82 19.9266 121.801 19.9127C121.518 20.2917 121.214 20.6553 120.82 20.9173L120.815 20.8957ZM111.578 2.69014C111.48 2.57767 111.38 2.46673 111.261 2.33269C111.41 2.34193 111.566 2.50371 111.612 2.65933C111.601 2.66857 111.589 2.67936 111.578 2.6886V2.69014ZM114.339 4.69158C114.225 4.67155 114.211 4.57449 114.185 4.49129C114.117 4.27558 114.076 4.04909 113.982 3.84571C113.879 3.62384 113.728 3.42354 113.6 3.21246C113.574 3.16932 113.557 3.11847 113.535 3.07225C113.868 3.26947 114.406 4.40346 114.339 4.69158ZM111.891 6.08751C111.814 6.04282 111.737 5.9966 111.66 5.95192C111.672 5.93189 111.685 5.91186 111.695 5.89029C111.771 5.93651 111.848 5.98274 111.923 6.02742C111.913 6.04745 111.902 6.06594 111.891 6.08597V6.08751ZM116.686 7.17528C116.165 6.9796 115.618 6.938 115.073 6.87021C114.23 6.76544 113.389 6.64218 112.572 6.3972C112.415 6.34944 112.269 6.26623 112.119 6.1969C112.091 6.18303 112.068 6.15838 112.044 6.13835C112.047 6.12757 112.05 6.11832 112.053 6.10754C112.088 6.11062 112.124 6.10754 112.158 6.11524C112.544 6.1969 112.931 6.2801 113.318 6.36176C113.624 6.42647 113.929 6.50351 114.239 6.54819C114.666 6.60982 115.097 6.64064 115.524 6.69302C115.988 6.75003 116.421 6.90565 116.826 7.13676C116.845 7.14755 116.863 7.15987 116.88 7.17374C116.886 7.17836 116.886 7.18915 116.9 7.22458C116.817 7.20609 116.748 7.19839 116.684 7.17528H116.686ZM116.339 4.12459C116.372 4.1893 116.418 4.24939 116.435 4.31872C116.529 4.69312 116.615 5.07061 116.704 5.44655C116.709 5.46812 116.718 5.48969 116.718 5.50972C116.707 5.85639 116.877 6.15376 116.977 6.47115C116.989 6.50813 116.996 6.54819 117.011 6.61599C116.723 6.32941 116.253 4.61301 116.341 4.12613L116.339 4.12459ZM117.308 6.8964C117.271 6.84248 117.228 6.79163 117.199 6.73308C116.997 6.34789 116.891 5.93189 116.806 5.50664C116.737 5.15689 116.647 4.81022 116.569 4.46201C116.56 4.42041 116.558 4.37881 116.552 4.33721C116.563 4.33105 116.575 4.32488 116.586 4.32026C116.624 4.37727 116.677 4.42966 116.7 4.49283C116.792 4.73781 116.877 4.98433 116.962 5.23085C117.037 5.45272 117.127 5.6715 117.18 5.89954C117.248 6.19536 117.287 6.49889 117.338 6.79779C117.342 6.82245 117.344 6.8471 117.347 6.87175C117.333 6.87945 117.321 6.88716 117.307 6.89486L117.308 6.8964ZM117.979 8.18755C117.945 8.18293 117.908 8.18601 117.877 8.17369C117.43 7.99034 116.957 7.9549 116.481 7.92409C115.734 7.87478 114.983 7.84089 114.239 7.76231C113.651 7.70068 113.065 7.60053 112.484 7.48343C112.008 7.3879 111.521 7.31087 111.085 7.07513C111.034 7.0474 110.987 7.01196 110.937 6.98114C110.944 6.96728 110.95 6.95187 110.956 6.938C110.999 6.94879 111.045 6.95341 111.087 6.96882C111.84 7.25386 112.612 7.44799 113.421 7.50346C114.381 7.56817 115.341 7.64059 116.299 7.73149C116.84 7.78234 117.384 7.85321 117.885 8.09203C117.92 8.10898 117.954 8.13363 117.988 8.15366C117.983 8.16598 117.98 8.17831 117.976 8.19064L117.979 8.18755ZM116.068 9.19675C116.065 9.1798 116.063 9.16439 116.06 9.14744C116.131 9.14128 116.202 9.13666 116.273 9.1305C116.275 9.1459 116.278 9.15977 116.279 9.17518C116.208 9.18288 116.139 9.19059 116.068 9.19675ZM118.47 7.39561C118.763 7.9056 119.002 8.40942 119.114 8.98104C118.905 8.89476 118.399 7.65137 118.47 7.39561ZM119.402 9.32309C119.364 9.24605 119.316 9.1721 119.288 9.09198C119.196 8.82543 119.111 8.5558 119.02 8.2877C118.874 7.86092 118.647 7.47419 118.407 7.09516C118.31 6.94417 118.239 6.78239 118.254 6.5975C118.265 6.59287 118.277 6.58825 118.288 6.58209C118.319 6.63602 118.35 6.69148 118.381 6.74541C118.623 7.16758 118.932 7.5466 119.123 7.99958C119.285 8.38169 119.427 8.76688 119.453 9.18596C119.456 9.22602 119.453 9.26608 119.453 9.30614C119.436 9.31077 119.419 9.31539 119.402 9.32155V9.32309ZM119.663 9.74988C119.59 9.37085 119.519 8.99029 119.439 8.6128C119.342 8.14595 119.123 7.73149 118.877 7.32935C118.667 6.98885 118.469 6.64218 118.276 6.29397C118.21 6.17379 118.17 6.03666 118.126 5.9057C118.103 5.83328 118.099 5.75624 118.086 5.68075C118.103 5.67458 118.119 5.66996 118.136 5.6638C118.202 5.78398 118.261 5.90878 118.338 6.02125C118.613 6.41723 118.76 6.87945 118.997 7.29238C119.256 7.74382 119.493 8.20296 119.66 8.69292C119.743 8.93636 119.754 9.20445 119.795 9.46022C119.824 9.64357 119.851 9.82692 119.86 10.0211C119.744 9.96713 119.686 9.87314 119.661 9.75142L119.663 9.74988ZM119.222 10.2213C119.424 10.2121 120.026 10.6065 120.049 10.7883C119.763 10.5911 119.499 10.4109 119.222 10.2213ZM119.729 11.4108C120.045 11.5803 120.337 11.7791 120.538 12.0934C120.257 11.8792 119.977 11.6635 119.698 11.4493L119.729 11.4108ZM118.117 10.8315C118.481 10.8654 118.78 11.0441 119.065 11.2552C119.06 11.2675 119.054 11.2798 119.049 11.2922L118.093 10.8931L118.117 10.8315ZM117.627 10.7452C118.387 11.0965 119.14 11.457 119.903 11.8022C120.239 11.9547 120.478 12.2212 120.744 12.457C120.775 12.4847 120.781 12.5386 120.8 12.5802L120.764 12.6049C120.733 12.5849 120.7 12.5695 120.675 12.5448C120.157 12.0548 119.544 11.7205 118.888 11.4586C118.492 11.2999 118.093 11.1489 117.697 10.9871C117.573 10.9363 117.461 10.8638 117.321 10.7899C117.439 10.6851 117.538 10.7051 117.627 10.7467V10.7452ZM116.634 10.7113C116.781 10.699 116.929 10.6944 117.077 10.6913C117.111 10.6913 117.167 10.7082 117.176 10.7313C117.239 10.8947 117.392 10.9424 117.529 11.0025C117.84 11.1396 118.154 11.2675 118.467 11.4C118.506 11.417 118.543 11.4355 118.581 11.454L118.567 11.4986C118.242 11.4786 117.934 11.3738 117.638 11.246C117.344 11.1196 117.065 10.9532 116.78 10.8038C116.771 10.813 116.76 10.8222 116.751 10.8315C116.795 10.8777 116.835 10.9316 116.886 10.9702C117.242 11.2352 117.643 11.4077 118.071 11.5033C118.584 11.6173 119.076 11.7868 119.55 12.0117C120.105 12.2736 120.544 12.6804 120.952 13.1257C120.966 13.1411 120.986 13.1596 120.989 13.1781C120.992 13.2089 120.985 13.2412 120.982 13.272C120.954 13.2643 120.918 13.2643 120.901 13.2474C120.826 13.175 120.755 13.0979 120.684 13.0209C120.256 12.5571 119.721 12.2736 119.131 12.0687C118.581 11.8777 118.034 11.6727 117.496 11.4462C117.217 11.3292 116.962 11.1535 116.697 11.0041C116.655 10.9809 116.607 10.9594 116.578 10.9239C116.54 10.8762 116.515 10.8145 116.486 10.7591C116.536 10.7421 116.586 10.7144 116.637 10.7098L116.634 10.7113ZM116.313 10.7714C116.584 11.0919 116.965 11.2506 117.307 11.4586C117.635 11.6589 118.002 11.7991 118.361 11.9393C118.695 12.0687 119.052 12.1396 119.381 12.2798C119.683 12.4092 119.958 12.5987 120.243 12.7636C120.271 12.779 120.288 12.8098 120.311 12.8345C120.304 12.8468 120.297 12.8607 120.29 12.873C120.233 12.8499 120.173 12.8314 120.119 12.8006C119.704 12.5664 119.265 12.3861 118.818 12.2228C118.208 11.9994 117.603 11.7667 117.002 11.5202C116.675 11.3862 116.364 11.2151 116.128 10.9393C116.093 10.8977 116.083 10.8315 116.062 10.776C116.148 10.7714 116.279 10.7298 116.313 10.7699V10.7714ZM115.851 11.1443C115.76 11.0842 115.672 11.0195 115.587 10.9517C115.564 10.9332 115.536 10.8839 115.546 10.8669C115.561 10.8392 115.606 10.8053 115.635 10.8099C115.731 10.8222 115.863 10.8161 115.912 10.8746C116.242 11.2721 116.695 11.4709 117.14 11.6943C117.755 12.004 118.421 12.1719 119.049 12.44C119.484 12.6265 119.911 12.8376 120.324 13.0671C120.649 13.2474 120.866 13.5525 121.086 13.8452C121.111 13.8791 121.117 13.9269 121.131 13.9669C121.122 13.9731 121.111 13.9808 121.102 13.987C121.071 13.9608 121.034 13.9392 121.009 13.9084C120.626 13.4107 120.106 13.0887 119.547 12.8391C119.039 12.6126 118.509 12.4354 117.988 12.2367C117.643 12.1042 117.296 11.9747 116.949 11.8438C116.536 11.6851 116.213 11.3846 115.851 11.1443ZM117.048 12.155C116.86 12.0764 116.697 11.9408 116.523 11.8299C116.567 11.8299 116.613 11.8222 116.654 11.8376C117.395 12.1165 118.133 12.4061 118.878 12.6758C119.416 12.8699 119.925 13.1133 120.373 13.4646C120.604 13.6449 120.797 13.8745 121.003 14.0871C121.035 14.1195 121.045 14.1734 121.066 14.2165C121.057 14.2227 121.048 14.2304 121.037 14.2366C121.006 14.2104 120.971 14.1873 120.945 14.1564C120.419 13.5355 119.727 13.1919 118.977 12.9254C118.325 12.6943 117.686 12.4231 117.05 12.1535L117.048 12.155ZM121.23 14.9746C121.216 14.9438 121.205 14.9114 121.188 14.8806C120.861 14.2766 120.324 13.9068 119.757 13.5617C119.311 13.2921 118.809 13.1688 118.342 12.9577C118.228 12.9069 118.12 12.8406 118.012 12.779C118.002 12.7728 118 12.7497 117.979 12.6989C118.043 12.7127 118.082 12.7158 118.116 12.7297C118.601 12.9115 119.088 13.0872 119.57 13.2782C120.023 13.4569 120.401 13.7497 120.738 14.0979C120.88 14.2443 121.014 14.3999 121.142 14.5586C121.228 14.6664 121.282 14.7928 121.28 14.9345C121.265 14.9484 121.248 14.9623 121.233 14.9746H121.23ZM118.811 20.4828C119.109 20.2671 119.393 20.0637 119.676 19.8603C119.683 19.8696 119.69 19.8803 119.697 19.8896C119.586 20.1007 118.986 20.5198 118.811 20.4843V20.4828ZM120.963 17.9837C120.812 18.2533 120.669 18.5276 120.495 18.7818C120.162 19.2671 119.735 19.6662 119.265 20.0175C119.239 20.036 119.21 20.0498 119.182 20.0652C119.174 20.056 119.167 20.0452 119.159 20.036C119.878 19.3827 120.492 18.6447 120.949 17.7818C120.968 17.7895 120.986 17.7972 121.005 17.8034C120.992 17.8635 120.994 17.9328 120.965 17.9837H120.963ZM118.854 13.6665C118.925 13.6803 119.002 13.6803 119.065 13.7096C119.405 13.8729 119.763 14.0147 120.077 14.2181C120.727 14.6372 121.137 15.2319 121.239 16.013C121.274 16.2842 121.287 16.5569 121.308 16.8296C121.311 16.8697 121.297 16.9098 121.29 16.9498C121.277 16.9498 121.267 16.9514 121.254 16.9529C121.243 16.9113 121.225 16.8697 121.22 16.8266C121.166 16.1594 121.005 15.5292 120.578 14.9931C120.37 14.7311 120.113 14.5216 119.832 14.3429C119.542 14.158 119.245 13.9839 118.952 13.8021C118.911 13.7759 118.874 13.7435 118.834 13.7127C118.84 13.6973 118.846 13.6819 118.851 13.6665H118.854ZM119.547 14.4091C119.561 14.3999 119.575 14.3906 119.589 14.3814C119.655 14.4738 119.729 14.5617 119.787 14.6572C119.903 14.8467 120.012 15.0393 120.12 15.2334C120.174 15.329 120.12 15.4122 120.083 15.5138C119.898 15.1302 119.723 14.7697 119.547 14.4091ZM119.878 15.3736C119.858 15.3798 119.84 15.3844 119.82 15.3906C119.797 15.3074 119.774 15.2242 119.752 15.141C119.769 15.1364 119.787 15.1317 119.804 15.1271C119.829 15.2088 119.854 15.2904 119.878 15.3736ZM119.729 14.9792C119.71 14.99 119.692 14.9992 119.675 15.01C119.609 14.8929 119.542 14.7758 119.476 14.6603L119.532 14.6294C119.598 14.7465 119.664 14.8636 119.73 14.9807L119.729 14.9792ZM120.529 15.2519C120.553 15.2519 120.578 15.2519 120.602 15.2519C120.619 15.3212 120.664 15.3967 120.65 15.4584C120.569 15.802 120.404 16.1086 120.179 16.3813C120.174 16.3859 120.163 16.3859 120.131 16.3952C120.116 15.9514 120.388 15.6263 120.529 15.2535V15.2519ZM120.297 15.3397C120.304 15.2257 120.31 15.1117 120.316 14.9977C120.33 14.9915 120.344 14.9854 120.358 14.9792C120.388 15.0177 120.448 15.0609 120.444 15.0932C120.43 15.1826 120.388 15.2673 120.358 15.3536C120.337 15.349 120.316 15.3444 120.296 15.3382L120.297 15.3397ZM119.906 14.6094C120.185 14.6603 120.264 14.8883 120.12 15.0516C120.032 14.9052 119.925 14.7835 119.906 14.6094ZM120.55 15.9622C120.607 15.8698 120.649 15.7681 120.704 15.6741C120.72 15.6479 120.753 15.634 120.78 15.614C120.797 15.6448 120.834 15.6787 120.829 15.708C120.818 15.7896 120.806 15.8744 120.769 15.9468C120.547 16.3874 120.288 16.805 119.978 17.1902C119.966 17.2056 119.948 17.2148 119.903 17.2487C119.926 17.0392 119.935 16.8389 120.056 16.7125C120.265 16.4876 120.393 16.218 120.552 15.9637L120.55 15.9622ZM120.595 16.4337C120.703 16.2781 120.794 16.1101 120.895 15.9437C121.003 16.0223 120.968 16.1009 120.932 16.1656C120.814 16.3828 120.698 16.6032 120.559 16.8081C120.364 17.0962 120.151 17.372 119.942 17.6493C119.908 17.694 119.855 17.7248 119.803 17.771C119.741 17.6586 119.772 17.5831 119.829 17.5045C120.086 17.1501 120.345 16.7942 120.595 16.4352V16.4337ZM120.863 16.4922C120.9 16.4337 120.941 16.3767 120.98 16.3181C120.995 16.3243 121.012 16.3304 121.028 16.3366C121.012 16.3936 121.005 16.4552 120.98 16.5092C120.704 17.107 120.324 17.637 119.912 18.147C119.797 18.2887 119.684 18.4336 119.567 18.5738C119.539 18.6077 119.502 18.6354 119.472 18.6662C119.456 18.657 119.442 18.6477 119.427 18.6385C119.489 18.4721 119.498 18.2872 119.632 18.1454C120.108 17.6432 120.499 17.0792 120.861 16.4922H120.863ZM118.971 14.0239C119.187 14.3922 119.411 14.7558 119.604 15.1348C119.743 15.4091 119.84 15.7049 119.945 15.9961C119.968 16.0608 119.948 16.1425 119.948 16.2164C119.934 16.218 119.92 16.2195 119.905 16.221C119.889 16.1717 119.871 16.1224 119.86 16.0716C119.763 15.6171 119.522 15.238 119.251 14.8698C119.076 14.631 118.915 14.3814 118.761 14.1302C118.712 14.0517 118.701 13.9484 118.669 13.839C118.831 13.8498 118.914 13.9269 118.971 14.0255V14.0239ZM118.345 13.7096C118.398 13.7343 118.467 13.7451 118.496 13.7867C118.55 13.8637 118.572 13.9623 118.621 14.0424C118.841 14.3968 119.054 14.7558 119.293 15.0963C119.598 15.5308 119.801 15.9946 119.821 16.5307C119.824 16.6093 119.84 16.6864 119.854 16.7942C119.838 16.8158 119.811 16.8543 119.783 16.8928C119.76 16.8574 119.724 16.825 119.713 16.7865C119.616 16.3952 119.499 16.013 119.354 15.6325C119.234 15.3135 119.005 15.0901 118.846 14.8097C118.68 14.5154 118.515 14.2211 118.35 13.9253C118.338 13.9038 118.33 13.876 118.331 13.8498C118.331 13.8036 118.339 13.7558 118.344 13.7096H118.345ZM117.96 13.5463C118 13.5525 118.051 13.5463 118.076 13.5694C118.125 13.611 118.17 13.6649 118.197 13.7235C118.245 13.8298 118.281 13.9407 118.318 14.0517C118.336 14.1071 118.347 14.1657 118.361 14.2211C118.347 14.2289 118.333 14.2366 118.319 14.2427C118.279 14.195 118.233 14.1503 118.202 14.0979C118.119 13.9561 118.037 13.8128 117.963 13.6665C117.946 13.6341 117.96 13.5848 117.962 13.5448L117.96 13.5463ZM117.635 13.3152C117.683 13.3737 117.752 13.4246 117.774 13.4908C117.934 13.9731 118.237 14.366 118.555 14.7481C118.858 15.1132 119.187 15.4645 119.354 15.916C119.475 16.2395 119.55 16.5816 119.635 16.9175C119.66 17.0161 119.71 17.1255 119.612 17.2641C119.575 17.1547 119.541 17.0746 119.519 16.9899C119.387 16.4629 119.2 15.9576 118.906 15.5015C118.627 15.0701 118.318 14.6603 118.028 14.2366C117.841 13.9638 117.698 13.668 117.587 13.3568C117.603 13.3429 117.62 13.3306 117.635 13.3167V13.3152ZM119.2 17.0854C119.157 17.0084 119.119 16.9283 119.071 16.8528C118.892 16.5708 118.718 16.2842 118.527 16.01C118.142 15.4553 117.732 14.9191 117.365 14.3537C117.208 14.1102 117.125 13.8159 117.023 13.5386C116.952 13.3475 116.905 13.1472 116.855 12.9485C116.846 12.91 116.871 12.8637 116.878 12.8206C116.919 12.8453 116.977 12.8622 116.993 12.8976C117.096 13.1272 117.207 13.3568 117.285 13.5956C117.429 14.0301 117.689 14.3922 117.949 14.7589C118.22 15.1425 118.506 15.5185 118.747 15.9191C118.928 16.218 119.052 16.5523 119.197 16.8728C119.225 16.9329 119.231 17.0038 119.247 17.0685C119.231 17.0746 119.214 17.0792 119.199 17.0854H119.2ZM119.336 16.9529C119.293 16.8327 119.257 16.7095 119.207 16.5908C118.957 16.013 118.63 15.4815 118.244 14.9838C117.891 14.5308 117.556 14.0625 117.355 13.5139C117.307 13.3845 117.231 13.2643 117.174 13.1365C117.16 13.1056 117.168 13.064 117.167 13.0271C117.205 13.0363 117.248 13.0363 117.281 13.0548C117.412 13.1318 117.453 13.269 117.496 13.4015C117.635 13.8252 117.869 14.195 118.122 14.557C118.381 14.9284 118.657 15.2889 118.888 15.6772C119.102 16.0377 119.29 16.4198 119.362 16.8435C119.368 16.8759 119.367 16.9098 119.368 16.9437C119.358 16.9467 119.348 16.9483 119.338 16.9514L119.336 16.9529ZM119.364 18.9405C119.955 18.2872 120.482 17.5862 120.934 16.8312C120.96 16.7865 120.998 16.748 121.031 16.7064L121.072 16.7249C121.062 16.7696 121.059 16.8158 121.039 16.8558C120.696 17.5661 120.25 18.2071 119.738 18.8049C119.593 18.9728 119.448 19.1408 119.302 19.3072C119.277 19.3365 119.24 19.3534 119.196 19.3657C119.21 19.2024 119.257 19.0576 119.364 18.9405ZM120.579 17.8481C120.716 17.6524 120.831 17.4413 120.957 17.2379C120.988 17.1886 121.023 17.1409 121.057 17.0916C121.071 17.0962 121.085 17.0993 121.1 17.1039C121.092 17.1532 121.096 17.2056 121.077 17.2518C120.653 18.3257 119.938 19.187 119.083 19.942C119.046 19.9743 118.999 19.9913 118.925 20.0344C118.92 19.8357 119.008 19.7186 119.113 19.6261C119.69 19.1069 120.139 18.4798 120.581 17.8481H120.579ZM119.088 19.0206C119.063 18.959 119.036 18.9174 119.029 18.8711C118.94 18.2857 118.746 17.7449 118.376 17.2734C118.347 17.2364 118.333 17.1902 118.299 17.1255C118.657 17.2765 119.25 18.7017 119.086 19.0191L119.088 19.0206ZM118.641 18.7479C118.62 18.7202 118.589 18.6955 118.576 18.6647C118.367 18.1023 117.991 17.6416 117.65 17.1594C117.37 16.7619 117.119 16.3443 116.858 15.9345C116.832 15.8929 116.829 15.8374 116.815 15.7881C116.826 15.7819 116.838 15.7742 116.849 15.7681C116.882 15.7989 116.917 15.8282 116.948 15.8605C117.079 15.9946 117.208 16.1286 117.338 16.2642C117.367 16.295 117.407 16.3274 117.418 16.3643C117.55 16.8096 117.88 17.1378 118.096 17.5338C118.284 17.8804 118.461 18.2348 118.64 18.5876C118.661 18.6308 118.66 18.6847 118.67 18.734C118.66 18.7386 118.65 18.7433 118.64 18.7494L118.641 18.7479ZM118.407 17.8835C118.23 17.5646 118.026 17.2611 117.834 16.9498C117.811 16.9113 117.792 16.8682 117.772 16.8281C118.325 17.0638 119.174 18.9004 118.935 19.3657C118.897 19.2163 118.854 19.0992 118.84 18.9805C118.794 18.5753 118.596 18.2302 118.405 17.8851L118.407 17.8835ZM109.373 20.0021C109.212 20.4782 108.893 20.8402 108.529 21.1669C108.723 20.7123 108.961 20.2917 109.373 20.0021ZM112.501 29.9522C112.518 29.8228 112.515 29.715 112.546 29.6179C112.829 28.7166 113.349 27.9431 113.885 27.1804C113.896 27.165 113.922 27.1604 113.942 27.1512C114.133 28.0864 113.321 29.7288 112.5 29.9522H112.501ZM117.892 21.0544C117.872 21.0236 117.846 20.9958 117.835 20.9635C117.637 20.3441 117.244 19.8418 116.842 19.3488C116.635 19.0961 116.407 18.8588 116.221 18.5923C116.077 18.3873 115.985 18.147 115.871 17.922C115.857 17.8943 115.862 17.8589 115.877 17.8142C116.426 18.3704 116.959 18.9389 117.364 19.6076C117.632 20.0514 117.858 20.5151 117.946 21.0313C117.928 21.039 117.909 21.0482 117.891 21.0559L117.892 21.0544ZM118.096 21.0251C118.082 20.9928 118.063 20.9604 118.054 20.9265C117.922 20.4119 117.704 19.9373 117.421 19.489C117.065 18.9251 116.618 18.4397 116.176 17.9467C115.794 17.5199 115.478 17.0454 115.199 16.5461C115.181 16.5122 115.179 16.4676 115.17 16.4275C115.181 16.4244 115.19 16.4213 115.201 16.4183C115.376 16.654 115.54 16.9005 115.729 17.1239C116.033 17.4829 116.365 17.8173 116.663 18.1824C116.932 18.5121 117.193 18.8527 117.416 19.2147C117.635 19.5676 117.814 19.9481 117.985 20.3272C118.062 20.4982 118.08 20.6969 118.12 20.8849C118.13 20.9281 118.12 20.9758 118.096 21.0282V21.0251Z"
            fill="#D5CCC6" />
        <path
            d="M104.637 30.2173C104.66 30.074 104.682 29.9307 104.708 29.7874C105.415 25.7984 106.311 21.851 107.261 17.9143C107.312 17.7033 107.408 17.4983 107.511 17.3057C107.673 17.0022 107.867 16.7172 108.035 16.4167C108.688 15.2473 109.298 14.0594 109.597 12.7405C109.649 12.5125 109.665 12.2721 109.671 12.0379C109.676 11.8314 109.615 11.6342 109.395 11.5541C109.184 11.4771 109.022 11.5988 108.891 11.7421C108.774 11.8715 108.649 12.0086 108.583 12.1658C108.266 12.9084 107.884 13.6372 107.674 14.4107C107.036 16.7788 106.468 19.1639 105.87 21.5428C105.844 21.6445 105.821 21.757 105.76 21.8386C105.389 22.3332 105.016 22.8278 104.625 23.307C104.104 23.9402 103.534 24.5288 102.845 24.9818C102.144 25.444 101.585 25.1774 101.479 24.3439C101.462 24.216 101.446 24.082 101.462 23.9556C101.503 23.592 101.563 23.2315 101.611 22.8694C101.656 22.5258 101.833 22.2793 102.103 22.0574C102.634 21.6183 103.11 21.1191 103.451 20.512C103.557 20.3225 103.639 20.1068 103.671 19.8927C103.733 19.4828 103.417 19.2517 103.035 19.4104C102.91 19.4628 102.788 19.5367 102.687 19.6261C102.053 20.1854 101.724 20.9327 101.416 21.6953C101.36 21.8325 101.255 21.9727 101.135 22.059C100.154 22.7723 99.1629 23.4749 98.1738 24.1806C98.1291 24.2129 98.0783 24.236 97.9966 24.2838C98.0952 23.5704 98.1892 22.8987 98.2785 22.2269C98.3248 21.8787 98.3725 21.5305 98.391 21.1792C98.3957 21.0945 98.3017 20.9542 98.2231 20.9281C98.143 20.9019 98.0151 20.9666 97.9303 21.0236C97.8672 21.0667 97.8394 21.1622 97.7917 21.2316C97.3233 21.9111 96.858 22.5921 96.3834 23.2669C96.2956 23.3917 96.1723 23.4903 96.0321 23.6352C96.0136 23.5026 95.989 23.4349 95.9951 23.3686C96.0953 22.2485 96.4035 21.21 97.1769 20.3549C97.4804 20.0205 97.8287 19.9944 98.1954 20.2686C98.3448 20.3795 98.4927 20.4566 98.6314 20.2763C98.7716 20.093 98.6499 19.9651 98.5112 19.8526C97.9673 19.4135 97.3294 19.469 96.784 20.0098C96.3911 20.398 96.1492 20.8818 95.9227 21.3795C95.7024 21.8633 95.4744 22.3486 95.2032 22.8062C94.9983 23.1514 94.7394 23.4718 94.4698 23.7707C94.1262 24.1498 93.8427 24.1112 93.6147 23.6644C93.4837 23.4071 93.4036 23.1252 93.2942 22.8571C93.1617 22.532 93.06 22.1884 92.8797 21.8926C92.5993 21.4334 92.1541 21.3887 91.7596 21.7554C91.5547 21.9449 91.3852 22.1745 91.2003 22.3856C91.1757 22.3902 91.151 22.3964 91.1264 22.401C91.1171 22.3116 91.0802 22.2146 91.1017 22.1329C91.1957 21.7708 91.3051 21.4118 91.4099 21.0529C91.433 20.9727 91.4576 20.8911 91.4792 20.811C91.5208 20.6553 91.4777 20.5305 91.3236 20.4766C91.1572 20.4181 91.037 20.4936 90.9877 20.66C90.8382 21.1576 90.6718 21.6522 90.5547 22.1576C90.3483 23.0481 90.0386 23.8848 89.4131 24.5719C89.2297 24.7738 89.0356 24.9756 88.8168 25.1358C88.521 25.3516 88.2667 25.2992 88.1265 24.9617C87.9632 24.5719 87.8461 24.1559 87.7629 23.7415C87.6812 23.3316 87.6751 22.9064 87.615 22.4919C87.6011 22.3964 87.5133 22.2577 87.4363 22.2408C87.3438 22.2207 87.2159 22.2916 87.125 22.3548C87.048 22.4087 87.0018 22.5089 86.9417 22.5874C86.4687 23.1868 85.9957 23.7861 85.5196 24.3824C85.4718 24.4425 85.4056 24.4887 85.2946 24.5889C85.2946 24.4379 85.2792 24.3531 85.2977 24.2777C85.3917 23.8771 85.4672 23.4688 85.5997 23.082C85.7861 22.5381 86.0496 22.0281 86.4872 21.6322C86.8092 21.341 87.122 21.3379 87.4409 21.6322C87.5025 21.6892 87.5518 21.7832 87.6227 21.8017C87.7259 21.8294 87.8738 21.8448 87.9478 21.7909C88.0079 21.7462 88.0356 21.5721 87.9986 21.492C87.7567 20.9774 86.9833 20.7262 86.4979 21.0251C86.2314 21.19 85.9756 21.4041 85.783 21.6491C85.2576 22.3163 84.9741 23.099 84.8262 23.9294C84.7831 24.1667 84.7692 24.4179 84.7923 24.6582C84.8355 25.0973 85.2022 25.2653 85.572 25.0295C85.6983 24.9479 85.8169 24.8446 85.9155 24.7291C86.2376 24.3516 86.5503 23.9649 86.8646 23.5828C86.9478 23.4811 87.031 23.3778 87.1389 23.2453C87.1974 23.5966 87.2375 23.8986 87.2976 24.196C87.3916 24.6536 87.5087 25.1081 87.8307 25.4702C88.051 25.7183 88.3284 25.8754 88.6658 25.746C88.9031 25.6551 89.1326 25.5303 89.3406 25.3839C89.5224 25.256 89.6704 25.0788 89.863 24.894C89.8398 25.0711 89.8306 25.2083 89.8029 25.3408C89.7674 25.5164 89.7767 25.6751 89.9723 25.7337C90.1711 25.7922 90.2574 25.6551 90.3267 25.4948C90.5763 24.9201 90.8028 24.3331 91.0894 23.7784C91.3683 23.2376 91.6934 22.7184 92.0339 22.2146C92.2064 21.9588 92.3821 21.9896 92.51 22.2731C92.6517 22.5859 92.7442 22.9187 92.8736 23.2361C92.9907 23.5258 93.1032 23.8216 93.2634 24.0866C93.5346 24.5319 93.9475 24.6782 94.3558 24.4779C94.5638 24.3763 94.7518 24.2206 94.9197 24.0573C95.1077 23.8755 95.2633 23.6583 95.4497 23.4364C95.4636 23.5088 95.4728 23.552 95.4821 23.5966C95.5283 23.8355 95.5915 24.0681 95.8565 24.1544C96.12 24.2391 96.3095 24.082 96.4944 23.9294C96.5406 23.8909 96.5868 23.8478 96.6238 23.8C96.8626 23.4919 97.1014 23.1853 97.3356 22.874C97.4512 22.7199 97.5606 22.5612 97.7054 22.3594C97.7054 22.4765 97.7116 22.5304 97.7054 22.5813C97.6068 23.253 97.4974 23.9248 97.4111 24.5981C97.3849 24.7969 97.2986 24.9278 97.1538 25.0573C95.2957 26.7213 93.7379 28.618 92.7118 30.9106C92.1818 32.0954 91.8628 33.3342 91.9399 34.6469C91.9676 35.1307 92.0601 35.6037 92.342 36.0151C92.664 36.4866 93.1602 36.616 93.6655 36.351C93.8057 36.277 93.9398 36.1846 94.0615 36.0814C94.5468 35.6669 94.8781 35.1353 95.177 34.5822C95.8365 33.3573 96.274 32.0461 96.6515 30.7134C97.1461 28.9708 97.5128 27.1989 97.8055 25.4132C97.8364 25.2237 97.9026 25.0727 98.0644 24.954C99.0181 24.253 99.9672 23.5458 100.921 22.8432C100.959 22.8139 101.01 22.8016 101.09 22.7646C101.069 22.8956 101.044 22.9896 101.038 23.0866C101.01 23.535 100.952 23.9849 100.973 24.4302C101.009 25.1466 101.466 25.6659 102.077 25.7306C102.526 25.7783 102.912 25.5935 103.268 25.3377C104.012 24.8015 104.631 24.139 105.207 23.4318C105.291 23.3285 105.381 23.2315 105.468 23.1329C105.497 23.2053 105.491 23.2577 105.482 23.307C105.28 24.2638 105.062 25.2175 104.876 26.1789C104.606 27.5672 104.352 28.9569 104.106 30.3498C104.053 30.6487 104.049 30.9568 104.038 31.2619C104.032 31.4345 104.132 31.5947 104.308 31.5531C104.438 31.5223 104.582 31.3867 104.642 31.2619C104.734 31.0693 104.939 30.8428 104.745 30.6317C104.614 30.4915 104.62 30.3729 104.643 30.2219L104.637 30.2173ZM109.142 12.3399C108.91 13.4893 108.461 14.4862 107.942 15.4861C107.918 14.9931 108.776 12.7127 109.142 12.3399ZM103.087 20.0082C102.93 20.4766 102.61 20.8294 102.258 21.1592C102.439 20.7062 102.674 20.2917 103.087 20.0082ZM96.7933 27.8969C96.3988 29.7504 95.932 31.5839 95.1924 33.3357C94.8812 34.0753 94.533 34.801 93.9953 35.4096C93.8458 35.5791 93.6686 35.7347 93.476 35.8518C93.1478 36.0521 92.9075 35.9751 92.7133 35.6345C92.4946 35.2524 92.4453 34.8257 92.436 34.3958C92.4175 33.4035 92.6394 32.4544 93.0015 31.5377C93.7318 29.6919 94.875 28.1188 96.2201 26.6797C96.5159 26.3638 96.8164 26.0511 97.1137 25.7367C97.1446 25.7552 97.1769 25.7737 97.2077 25.7922C97.0691 26.4933 96.9396 27.1974 96.7902 27.8969H96.7933Z"
            fill="#D5CCC6" />
        <path
            d="M87.0143 20.1145C87.0482 20.0976 87.1345 20.0806 87.1761 20.0298C87.4919 19.6477 87.8062 19.264 88.099 18.865C88.1468 18.8003 88.1159 18.6246 88.0589 18.5476C87.9727 18.4305 87.814 18.4336 87.7184 18.5476C87.3902 18.9389 87.0667 19.3334 86.7616 19.7432C86.6414 19.9034 86.7755 20.1084 87.0143 20.1145Z"
            fill="#D5CCC6" />
        <path d="M0.978379 23.1591H0V24.1374H0.978379V23.1591Z" fill="#D5CCC6" />
        <path d="M83.3993 23.1591H82.4209V24.1374H83.3993V23.1591Z" fill="#D5CCC6" />
        <path d="M81.008 23.4765H2.50195V23.8216H81.008V23.4765Z" fill="#D5CCC6" />
        <path
            d="M7.23984 17.0223C6.48796 17.0223 5.82851 16.8636 5.25997 16.5446C4.69144 16.2257 4.24924 15.7927 3.93493 15.2458C3.61907 14.6988 3.46191 14.0794 3.46191 13.3861C3.46191 12.6927 3.61753 12.0687 3.92722 11.5218C4.23691 10.9748 4.67141 10.5418 5.22916 10.2229C5.78691 9.90397 6.43557 9.74527 7.17667 9.74527C7.66201 9.74527 8.1643 9.86853 8.68353 10.1151C9.20276 10.3616 9.57563 10.6281 9.79904 10.9132L9.14421 11.759C9.0225 11.5849 8.77443 11.3923 8.39695 11.1843C8.01946 10.9763 7.60346 10.8716 7.14894 10.8716C6.65128 10.8716 6.20137 10.9702 5.79924 11.1658C5.3971 11.3615 5.07817 11.6481 4.84089 12.0256C4.60361 12.4031 4.48498 12.8561 4.48498 13.3861C4.48498 13.9161 4.60361 14.3645 4.84089 14.7419C5.07817 15.1194 5.3971 15.406 5.79924 15.6017C6.20137 15.7974 6.65128 15.896 7.14894 15.896C7.51564 15.896 7.8962 15.8097 8.29064 15.6356C8.68507 15.463 8.96703 15.2581 9.13651 15.0224L9.79133 15.8682C9.48472 16.2057 9.10416 16.4814 8.64963 16.6972C8.19511 16.9129 7.72672 17.0207 7.24138 17.0207L7.23984 17.0223Z"
            fill="#D5CCC6" />
        <path
            d="M83.3131 17.0223C82.5612 17.0223 81.9018 16.8636 81.3332 16.5446C80.7647 16.2257 80.3225 15.7927 80.0082 15.2458C79.6923 14.6988 79.5352 14.0794 79.5352 13.3861C79.5352 12.6927 79.6908 12.0687 80.0005 11.5218C80.3101 10.9748 80.7446 10.5418 81.3024 10.2229C81.8601 9.90397 82.5088 9.74527 83.2499 9.74527C83.7353 9.74527 84.2375 9.86853 84.7568 10.1151C85.276 10.3616 85.6489 10.6281 85.8723 10.9132L85.2175 11.759C85.0957 11.5849 84.8477 11.3923 84.4702 11.1843C84.0927 10.9763 83.6767 10.8716 83.2222 10.8716C82.7245 10.8716 82.2746 10.9702 81.8725 11.1658C81.4703 11.3615 81.1514 11.6481 80.9141 12.0256C80.6768 12.4031 80.5582 12.8561 80.5582 13.3861C80.5582 13.9161 80.6768 14.3645 80.9141 14.7419C81.1514 15.1194 81.4703 15.406 81.8725 15.6017C82.2746 15.7974 82.7245 15.896 83.2222 15.896C83.5889 15.896 83.9694 15.8097 84.3639 15.6356C84.7583 15.463 85.0403 15.2581 85.2097 15.0224L85.8646 15.8682C85.558 16.2057 85.1774 16.4814 84.7229 16.6972C84.2684 16.9129 83.8 17.0207 83.3146 17.0207L83.3131 17.0223Z"
            fill="#D5CCC6" />
        <path
            d="M19.5104 16.8189H18.4704L17.8187 15.2011H14.3828L13.728 16.8189H12.688L15.5368 9.94711H16.6647L19.5104 16.8189ZM17.415 14.1996L16.1008 10.9363L14.7865 14.1996H17.415Z"
            fill="#D5CCC6" />
        <path
            d="M52.8986 16.8189H51.8586L51.2069 15.2011H47.771L47.1162 16.8189H46.0762L48.925 9.94711H50.0529L52.8986 16.8189ZM50.8032 14.1996L49.4889 10.9363L48.1747 14.1996H50.8032Z"
            fill="#D5CCC6" />
        <path
            d="M76.8806 16.8189H75.8406L75.1888 15.2011H71.7529L71.0981 16.8189H70.0581L72.907 9.94711H74.0348L76.8806 16.8189ZM74.7851 14.1996L73.4709 10.9363L72.1566 14.1996H74.7851Z"
            fill="#D5CCC6" />
        <path
            d="M105.585 16.8189H104.545L103.893 15.2011H100.457L99.8022 16.8189H98.7622L101.611 9.94711H102.739L105.585 16.8189ZM103.491 14.1996L102.177 10.9363L100.862 14.1996H103.491Z"
            fill="#D5CCC6" />
        <path
            d="M30.2524 16.8189H29.1831V11.8268L27.0969 16.01H25.8674L23.7812 11.8268V16.8189H22.7119V9.94711H24.0354L26.4806 15.1364L28.9304 9.94711H30.2539V16.8189H30.2524Z"
            fill="#D5CCC6" />
        <path d="M35.3124 16.8189H34.2539V9.94711H35.3124V16.8189Z" fill="#D5CCC6" />
        <path d="M43.2951 16.8189H39.3169V9.94711H40.3754V15.8174H43.2951V16.8189Z" fill="#D5CCC6" />
        <path
            d="M63.8628 17.0223C63.0862 17.0223 62.4067 16.8636 61.8243 16.5446C61.2404 16.2257 60.7874 15.7927 60.4639 15.2458C60.1403 14.6988 59.9785 14.0794 59.9785 13.3861C59.9785 12.6927 60.1403 12.0703 60.4639 11.5248C60.7874 10.9794 61.2404 10.5465 61.8243 10.226C62.4083 9.90551 63.0878 9.74527 63.8628 9.74527C64.3604 9.74527 64.8874 9.87007 65.442 10.1181C65.9967 10.3662 66.3896 10.6312 66.6222 10.9132L65.9428 11.7637C65.8103 11.5834 65.5314 11.3893 65.1046 11.1828C64.6778 10.9763 64.231 10.8731 63.7657 10.8731C63.2542 10.8731 62.7935 10.9717 62.3836 11.1674C61.9738 11.3631 61.6472 11.6496 61.4037 12.0271C61.1603 12.4046 61.0386 12.8576 61.0386 13.3876C61.0386 13.9176 61.1664 14.3706 61.4207 14.7481C61.6749 15.1256 62.0092 15.4106 62.4206 15.6048C62.832 15.7989 63.2819 15.896 63.7657 15.896C64.2187 15.896 65.3973 15.4553 65.4975 15.2843V13.3321H66.6145V16.0731C65.9089 16.6247 64.6008 17.0238 63.8612 17.0238L63.8628 17.0223Z"
            fill="#D5CCC6" />
        <path
            d="M95.4448 16.8189H94.3863V13.8868H90.3681V16.8189H89.3096V9.94711H90.3681V12.8838H94.3863V9.94711H95.4448V16.8189Z"
            fill="#D5CCC6" />
    </g>
    <defs>
        <clipPath id="clip0_1279_2560">
            <rect width="122" height="36.482" fill="white" />
        </clipPath>
    </defs>
</svg>