<svg width="21" height="24" viewBox="0 0 21 24" fill="none" xmlns="http://www.w3.org/2000/svg">
    <path
        d="M20.5 9.74577C18.534 9.75047 16.6162 9.13735 15.0176 7.99303V15.9739C15.0171 17.4521 14.5653 18.8948 13.7226 20.1093C12.88 21.3237 11.6867 22.2519 10.3022 22.7699C8.91778 23.2878 7.40821 23.3707 5.97537 23.0076C4.54254 22.6444 3.25472 21.8524 2.28412 20.7376C1.31353 19.6228 0.706419 18.2382 0.543974 16.769C0.381529 15.2998 0.671491 13.816 1.37509 12.5161C2.07869 11.2161 3.16238 10.1619 4.48127 9.49452C5.80016 8.8271 7.29138 8.57824 8.75552 8.7812V12.7953C8.08553 12.5846 7.36607 12.5909 6.6999 12.8135C6.03373 13.036 5.45491 13.4633 5.04609 14.0345C4.63728 14.6056 4.41939 15.2913 4.42352 15.9936C4.42766 16.696 4.65362 17.379 5.06913 17.9453C5.48464 18.5116 6.06846 18.9321 6.7372 19.1467C7.40595 19.3614 8.12543 19.3593 8.7929 19.1407C9.46037 18.922 10.0417 18.4981 10.4538 17.9294C10.866 17.3607 11.0879 16.6763 11.0879 15.9739V0.37207H15.0176C15.0149 0.703925 15.0427 1.03533 15.1007 1.36209C15.2372 2.09153 15.5211 2.78545 15.9351 3.4014C16.349 4.01735 16.8843 4.54238 17.5081 4.94438C18.3955 5.5312 19.4361 5.84397 20.5 5.84375V9.74577Z"
        fill="rgba(213, 204, 198, 1)"></path>
</svg>