<svg width="26" height="26" viewBox="0 0 26 26" fill="none" xmlns="http://www.w3.org/2000/svg">
    <path
        d="M21.7556 4.00488C19.4174 1.66113 16.3036 0.37207 12.9944 0.37207C6.16406 0.37207 0.606027 5.93011 0.606027 12.7605C0.606027 14.9424 1.17522 17.0741 2.25781 18.9547L0.5 25.3721L7.06808 23.6477C8.87612 24.6355 10.9129 25.1544 12.9888 25.1544H12.9944C19.8192 25.1544 25.5 19.5964 25.5 12.766C25.5 9.45689 24.0938 6.34863 21.7556 4.00488ZM12.9944 23.0674C11.1417 23.0674 9.32812 22.5707 7.74888 21.6332L7.375 21.41L3.47991 22.4312L4.51786 18.631L4.27232 18.2404C3.23996 16.5997 2.69866 14.708 2.69866 12.7605C2.69866 7.08524 7.3192 2.4647 13 2.4647C15.7511 2.4647 18.3348 3.53613 20.2768 5.48368C22.2188 7.43122 23.4129 10.0149 23.4074 12.766C23.4074 18.4468 18.6696 23.0674 12.9944 23.0674ZM18.6417 15.3553C18.3348 15.1991 16.8114 14.4513 16.5268 14.3509C16.2422 14.2448 16.0357 14.1946 15.8292 14.5071C15.6228 14.8196 15.0312 15.5116 14.8471 15.7236C14.6685 15.9301 14.4844 15.958 14.1775 15.8018C12.3583 14.8922 11.1641 14.1779 9.96429 12.1187C9.64621 11.5718 10.2824 11.6109 10.8739 10.4279C10.9743 10.2214 10.9241 10.0428 10.846 9.88658C10.7679 9.73033 10.1484 8.20689 9.89174 7.58747C9.64062 6.98479 9.38393 7.0685 9.1942 7.05734C9.01562 7.04618 8.80915 7.04618 8.60268 7.04618C8.3962 7.04618 8.06138 7.1243 7.77679 7.43122C7.49219 7.74372 6.6942 8.49149 6.6942 10.0149C6.6942 11.5384 7.80469 13.0116 7.95536 13.2181C8.11161 13.4245 10.1373 16.5495 13.2455 17.8944C15.2098 18.7426 15.9799 18.8151 16.9621 18.6701C17.5592 18.5808 18.7924 17.9223 19.0491 17.1968C19.3058 16.4714 19.3058 15.852 19.2277 15.7236C19.1551 15.5841 18.9487 15.506 18.6417 15.3553Z"
        fill="rgba(213, 204, 198, 1)" />
</svg>