<svg width="32" height="32" viewBox="0 0 32 32" fill="none" xmlns="http://www.w3.org/2000/svg">
<circle cx="16" cy="16" r="16" fill="#D5CCC6"/>
<path d="M20.7105 20.4385C20.4025 20.6422 20.0945 20.8544 19.7611 21.0108C19.4288 21.166 19.0663 21.257 18.7183 21.3758C18.7122 21.3625 18.7049 21.3479 18.6989 21.3346C18.7425 21.3043 18.7813 21.2667 18.8286 21.2461C18.9511 21.1927 19.0735 21.1406 19.2009 21.0993C19.544 20.9878 19.8374 20.7817 20.1503 20.6107C20.3673 20.4919 20.582 20.3645 20.7432 20.173C20.936 19.9462 21.1167 19.7085 21.2973 19.4709C21.3313 19.4272 21.3422 19.3666 21.364 19.3145C21.3519 19.3096 21.3398 19.3036 21.3277 19.2987C21.307 19.3242 21.2852 19.3496 21.2658 19.3763C21.1567 19.5267 21.0573 19.6831 20.9384 19.825C20.8087 19.9789 20.6802 20.1439 20.5201 20.2603C19.9987 20.6361 19.4373 20.9441 18.8177 21.1345C18.7959 21.1418 18.7716 21.1394 18.7255 21.1442C18.7534 21.1066 18.7607 21.0848 18.7765 21.0775C18.9887 20.9672 19.2009 20.8544 19.4167 20.7501C19.7562 20.5864 20.12 20.4628 20.4013 20.2045C20.6074 20.0153 20.7954 19.8031 20.9712 19.5861C21.17 19.3399 21.3325 19.0683 21.4332 18.7652C21.4441 18.7312 21.4453 18.6949 21.4501 18.6585C21.4404 18.6561 21.4295 18.6536 21.4198 18.6512C21.4028 18.6827 21.3822 18.7118 21.3689 18.7446C21.2355 19.055 21.0779 19.3472 20.8596 19.6103C20.5638 19.9656 20.234 20.2687 19.8035 20.4579C19.5088 20.5876 19.2251 20.7404 18.9365 20.8811C18.9062 20.8956 18.8723 20.9041 18.8407 20.915L18.8274 20.8884C18.8965 20.7926 19.0044 20.7465 19.1051 20.6943C19.4228 20.527 19.7538 20.3803 20.0606 20.1936C20.4219 19.9729 20.7711 19.7182 20.9663 19.3302C21.17 18.924 21.3301 18.496 21.5083 18.0765C21.518 18.0546 21.5132 18.028 21.5144 18.0037C21.5059 18.0001 21.4974 17.9976 21.4889 17.994C21.4707 18.0231 21.4477 18.051 21.4356 18.0825C21.3592 18.2693 21.2767 18.4548 21.2113 18.6464C20.9663 19.3666 20.4849 19.8783 19.8205 20.2275C19.5198 20.3852 19.2166 20.5379 18.9159 20.6943C18.8601 20.7234 18.808 20.7598 18.7449 20.7986C18.7377 20.7635 18.728 20.7441 18.7304 20.7271C18.751 20.5876 18.8407 20.5149 18.9765 20.4749C19.2081 20.4058 19.4506 20.3476 19.6604 20.2312C20.2643 19.8977 20.6959 19.3933 20.9845 18.7688C21.13 18.4548 21.2622 18.1347 21.4065 17.8206C21.4744 17.6727 21.5568 17.5308 21.6466 17.3598C21.6126 17.3865 21.6005 17.3926 21.592 17.4023C21.5738 17.4229 21.558 17.4447 21.5423 17.4678C21.3192 17.7915 21.1482 18.1419 20.9966 18.5033C20.8984 18.7373 20.8051 18.9786 20.6644 19.1859C20.4655 19.477 20.2194 19.734 19.932 19.9462C19.6895 20.1245 19.4349 20.276 19.1354 20.3366C19.0881 20.3463 19.0396 20.35 18.9923 20.356L18.985 20.3221C19.0469 20.3027 19.1111 20.2894 19.1718 20.2639C19.5319 20.1111 19.8205 19.8577 20.0933 19.5861C20.5031 19.1787 20.7675 18.6864 20.9639 18.1456C21.0888 17.8024 21.2185 17.4653 21.2173 17.0931C21.2161 16.7269 21.2258 16.3595 21.21 15.9945C21.1967 15.6974 21.1725 15.3992 21.1167 15.1081C21.0451 14.7347 20.9445 14.3673 20.8439 14.0011C20.759 13.6943 20.6365 13.3972 20.5613 13.088C20.4437 12.6054 20.3455 12.118 20.2521 11.6306C20.1236 10.9576 19.8969 10.321 19.584 9.71474C19.3755 9.30974 19.1645 8.90597 18.9523 8.50219C18.9353 8.47066 18.9074 8.4452 18.8832 8.4161C18.8747 8.42216 18.8662 8.42701 18.8577 8.43307C18.8698 8.46217 18.882 8.49249 18.8953 8.52159C19.1827 9.10967 19.4676 9.69776 19.7562 10.2846C19.9526 10.6848 20.0593 11.1128 20.1479 11.5457C20.2048 11.827 20.2582 12.1095 20.3128 12.3908C20.3188 12.4236 20.3164 12.4563 20.3176 12.4903C20.3067 12.4927 20.2946 12.4951 20.2837 12.4987C20.217 12.3678 20.0824 12.2708 20.1091 12.0925C20.1151 12.0537 20.0981 12.0113 20.0909 11.9713C20.0678 11.8573 20.0315 11.7445 20.023 11.6293C19.9927 11.2268 19.9369 10.8315 19.7514 10.4665C19.6131 10.1949 19.464 9.92936 19.3221 9.65896C19.1536 9.33763 18.9923 9.01267 18.8201 8.69256C18.7219 8.51068 18.6067 8.33728 18.5012 8.15904C18.4891 8.13842 18.4818 8.11539 18.4758 8.09235C18.3569 7.64855 18.1302 7.25811 17.8719 6.88465C17.8525 6.85676 17.8173 6.83736 17.7895 6.81553C17.781 6.82281 17.7737 6.8313 17.7652 6.83857C17.7834 6.86889 17.8004 6.90041 17.8198 6.92951C18.0429 7.26418 18.2587 7.60733 18.3569 8.00019C18.443 8.34456 18.5024 8.6962 18.5521 9.04783C18.6116 9.47465 18.7401 9.88328 18.8613 10.2943C18.8832 10.3695 18.9026 10.4459 18.9268 10.5393C18.8116 10.492 18.7886 10.4471 18.734 10.3113C18.5485 9.84933 18.5364 9.3534 18.4539 8.87201C18.3994 8.5519 18.34 8.23664 18.1884 7.94805C17.9362 7.46546 17.6791 6.98529 17.4221 6.50391C17.4063 6.47481 17.3808 6.45177 17.359 6.42631C17.3517 6.43116 17.3432 6.43601 17.336 6.44086C17.3493 6.48572 17.3566 6.53301 17.3784 6.57424C17.5748 6.95862 17.764 7.34784 17.9762 7.72373C18.1508 8.03293 18.2745 8.35183 18.3315 8.70226C18.4042 9.15575 18.4891 9.60682 18.5679 10.0591C18.574 10.0906 18.5679 10.1246 18.5679 10.1573C18.5606 10.1634 18.5521 10.1682 18.5449 10.1743C18.5121 10.1403 18.4661 10.1125 18.4503 10.0724C18.4103 9.97058 18.3775 9.8663 18.3557 9.7596C18.2902 9.44434 18.2199 9.12907 18.1714 8.81139C18.1011 8.35062 17.9325 7.92502 17.7373 7.50911C17.5627 7.13807 17.3602 6.77916 17.1698 6.41418C17.1238 6.32688 17.0753 6.23957 17.028 6.15227C17.0158 6.15712 17.0049 6.16076 16.9928 6.16561C17.0013 6.19956 17.0025 6.23594 17.0171 6.26504C17.1529 6.53786 17.2765 6.81796 17.4293 7.08108C17.6803 7.51396 17.8755 7.96988 18.015 8.44762C18.0623 8.6101 18.0671 8.78471 18.0987 8.95326C18.1544 9.24548 18.2163 9.5377 18.2745 9.82993C18.2769 9.83963 18.2672 9.85175 18.2551 9.8857C18.2211 9.83478 18.1896 9.80204 18.1763 9.76324C18.1375 9.65411 18.1011 9.54255 18.0744 9.42979C17.9883 9.06238 17.9192 8.69135 17.8222 8.32879C17.7482 8.05233 17.6597 7.77466 17.5409 7.51396C17.3772 7.15384 17.1808 6.80826 16.9989 6.45541C16.897 6.25776 16.8024 6.05648 16.6909 5.86369C16.64 5.77396 16.5575 5.70242 16.4896 5.6236C16.4775 5.6333 16.4666 5.643 16.4544 5.65149C16.4714 5.68059 16.4835 5.71333 16.5042 5.73879C16.7794 6.06982 16.9188 6.46147 16.9989 6.87616C17.068 7.23629 17.1201 7.59884 17.1868 7.96018C17.2571 8.33728 17.3529 8.70832 17.5094 9.06238C17.53 9.10967 17.5421 9.1606 17.5615 9.2188C17.439 9.21032 17.4087 9.12907 17.382 9.0539C17.285 8.77986 17.1892 8.50583 17.0971 8.23058C16.9734 7.86196 16.8813 7.48729 16.8619 7.09685C16.8461 6.76946 16.7903 6.45056 16.6121 6.16561C16.5551 6.07588 16.5042 5.98251 16.4508 5.89036C16.4399 5.89521 16.4302 5.90127 16.4193 5.90612C16.435 5.9522 16.4447 6.00192 16.469 6.04435C16.6181 6.31233 16.7515 6.58636 16.7685 6.90041C16.7758 7.02045 16.7794 7.1405 16.794 7.25933C16.8497 7.71767 16.9904 8.1554 17.1201 8.59555C17.1553 8.71438 17.1905 8.83321 17.2256 8.95204C17.2099 8.95932 17.1929 8.96659 17.1771 8.97387C17.1395 8.91567 17.0959 8.85989 17.0656 8.79684C16.7915 8.23058 16.6484 7.63158 16.6242 7.00348C16.6012 6.37174 16.3526 5.82973 15.9706 5.33865C15.9512 5.3144 15.9209 5.29864 15.8955 5.27802C15.8845 5.28651 15.8736 5.295 15.8627 5.30349C16.2107 5.71454 16.4217 6.1838 16.5042 6.70883C16.3514 6.42024 16.2228 6.11953 16.0701 5.83216C15.8312 5.38594 15.6117 5.10948 15.4747 5.07189C15.7318 5.37139 15.9306 5.70727 16.1064 6.05891C16.3053 6.45541 16.5175 7.0156 16.4726 7.16717C16.2022 6.47117 15.9306 5.78487 15.3825 5.2562C15.3838 5.28287 15.3898 5.30955 15.4044 5.32895C15.482 5.43808 15.5644 5.54357 15.6396 5.65391C16.0519 6.25898 16.3235 6.92345 16.4872 7.63764C16.5466 7.89713 16.6363 8.14934 16.7103 8.4064C16.7224 8.44884 16.7261 8.49491 16.7333 8.53978C16.7212 8.54705 16.7079 8.55433 16.6957 8.56282C16.6594 8.52038 16.6121 8.48279 16.5878 8.43428C16.4472 8.15782 16.3477 7.86681 16.2956 7.56004C16.1986 6.9865 15.9731 6.46511 15.6408 5.98737C15.408 5.65149 15.2116 5.295 15.0564 4.91547C15.0297 4.85 14.9921 4.78937 14.9594 4.72632C14.9485 4.73238 14.9375 4.73723 14.9254 4.74329C14.9848 4.88758 15.037 5.03552 15.1037 5.17496C15.2201 5.41504 15.3219 5.66604 15.4711 5.8843C15.779 6.33658 16.0349 6.80705 16.1634 7.34178C16.2325 7.63158 16.3198 7.91653 16.3974 8.2039C16.4035 8.22815 16.4047 8.25362 16.4096 8.28272C16.2907 8.25847 16.1998 8.17238 16.1816 8.08022C16.1198 7.77102 16.0664 7.46061 15.99 7.15626C15.9488 6.98893 15.8894 6.81796 15.8009 6.67124C15.6396 6.40569 15.4407 6.16197 15.2746 5.89885C15.0552 5.55327 14.8721 5.18951 14.7629 4.79179C14.7532 4.75542 14.7363 4.72147 14.7229 4.68751C14.7108 4.69115 14.6987 4.69479 14.6853 4.69721C14.6987 4.77118 14.7059 4.84757 14.7278 4.91911C14.8721 5.39322 15.1158 5.81518 15.4056 6.21532C15.5438 6.40691 15.682 6.60213 15.7887 6.81068C15.967 7.1599 15.9925 7.55519 16.0846 7.93108C16.0895 7.9529 16.0737 7.99898 16.0664 8.00019C16.0313 8.00141 15.9815 8.00262 15.9646 7.98201C15.9367 7.94805 15.9197 7.89713 15.9173 7.85105C15.893 7.50547 15.8179 7.1793 15.6578 6.86646C15.5232 6.60455 15.368 6.36204 15.1825 6.13651C14.8248 5.7012 14.4828 5.2562 14.2428 4.74087C14.2173 4.68509 14.1833 4.63416 14.153 4.58081C14.1433 4.58445 14.1348 4.58809 14.1251 4.59294C14.1312 4.62446 14.1324 4.65841 14.1445 4.6863C14.2015 4.81483 14.2537 4.947 14.3204 5.06947C14.5811 5.54357 14.9278 5.95584 15.2601 6.38023C15.5729 6.78037 15.7693 7.23144 15.8336 7.73707C15.8372 7.76132 15.8239 7.788 15.8179 7.81467C15.8057 7.81467 15.7924 7.8171 15.7803 7.81831C15.7621 7.7589 15.7403 7.70191 15.7257 7.64128C15.5923 7.06653 15.3146 6.56818 14.9266 6.12923C14.5192 5.66847 14.1809 5.16526 13.9384 4.599C13.8984 4.50563 13.845 4.41954 13.7977 4.32981C13.782 4.3383 13.7674 4.348 13.7517 4.35649C14.0136 5.0246 14.341 5.65634 14.8417 6.19229C14.7981 6.18865 14.769 6.17288 14.7484 6.15106C14.649 6.04314 14.5483 5.93401 14.4525 5.82246C14.1336 5.45021 13.9032 5.02096 13.6777 4.5893C13.6328 4.50199 13.5795 4.41954 13.5298 4.33466C13.5176 4.34073 13.5067 4.348 13.4946 4.35406C13.5492 4.46683 13.6025 4.5796 13.6583 4.69236C13.8608 5.10463 14.0706 5.51447 14.3725 5.86611C14.518 6.03587 14.6756 6.1935 14.8126 6.3681C15.0479 6.6676 15.2637 6.98165 15.3644 7.35754C15.3741 7.39149 15.3704 7.42908 15.3741 7.46546C15.3377 7.45576 15.3219 7.44242 15.3122 7.42666C15.2261 7.26418 15.1534 7.092 15.0527 6.938C14.8636 6.64942 14.672 6.35962 14.4562 6.09043C14.0924 5.63573 13.7686 5.1592 13.5407 4.62082C13.5079 4.54201 13.4679 4.46683 13.4303 4.39044C13.4194 4.39408 13.4085 4.39893 13.3976 4.40257C13.4049 4.44015 13.4073 4.47896 13.4206 4.51533C13.451 4.59536 13.4861 4.67418 13.5201 4.75178C13.6874 5.13252 13.8766 5.49992 14.1385 5.82731C14.5034 6.28565 14.8793 6.73672 15.1522 7.26054C15.174 7.30177 15.1849 7.34906 15.2007 7.39392L15.1606 7.41817C15.1352 7.38907 15.1061 7.36361 15.0867 7.33208C14.9618 7.13322 14.8575 6.9186 14.712 6.73551C14.4998 6.46632 14.2391 6.23472 14.039 5.95826C13.8208 5.65755 13.6438 5.32531 13.457 5.00156C13.2751 4.68751 13.086 4.37468 12.9902 4.0194C12.989 4.01334 12.9756 4.0097 12.9611 4C12.9611 4.03031 12.955 4.05456 12.9611 4.07397C13.0254 4.25463 13.0763 4.44258 13.1624 4.61234C13.3273 4.93609 13.5177 5.24529 13.6874 5.56661C13.856 5.8843 14.0657 6.16803 14.3167 6.42631C14.4792 6.59364 14.6308 6.77067 14.7787 6.95134C14.8466 7.03501 14.8927 7.13686 14.9485 7.23023C14.9388 7.23871 14.9278 7.2472 14.9181 7.25569C14.8878 7.24356 14.8502 7.2375 14.8308 7.21689C14.7581 7.1405 14.6902 7.06047 14.6235 6.97923C14.4889 6.8119 14.3689 6.6288 14.2197 6.47481C13.8972 6.14257 13.6062 5.79214 13.394 5.37867C13.2339 5.06825 13.0605 4.76512 12.892 4.45834C12.8762 4.43045 12.8508 4.40742 12.8301 4.38195C12.8204 4.41833 12.8277 4.44015 12.8374 4.46077C13.0011 4.78088 13.1648 5.10099 13.3273 5.42232C13.5128 5.78851 13.7298 6.12923 14.039 6.40933C14.17 6.52816 14.2755 6.67488 14.3907 6.81068C14.4161 6.841 14.4319 6.8798 14.4549 6.91981C14.4307 6.92466 14.4234 6.9283 14.4174 6.92709C14.404 6.92345 14.3919 6.91618 14.3798 6.91133C14.25 6.85919 14.193 6.73672 14.1094 6.6385C13.9202 6.41782 13.7165 6.20805 13.5261 5.98858C13.3443 5.77881 13.1818 5.55691 13.0605 5.30228C12.892 4.947 12.6968 4.60385 12.5112 4.25585C12.5015 4.23645 12.4785 4.22311 12.4627 4.20735C12.453 4.21462 12.4421 4.2219 12.4324 4.22796C12.7004 4.7348 12.9672 5.24044 13.1878 5.77032C13.1575 5.76304 13.1381 5.74971 13.126 5.73152C13.0132 5.56419 12.9005 5.39685 12.7901 5.2271C12.5985 4.93124 12.4094 4.63295 12.2154 4.33951C12.1887 4.2995 12.139 4.27525 12.0808 4.22917C12.2639 4.5214 12.4324 4.78452 12.5949 5.05128C12.7562 5.31561 12.9114 5.58237 13.069 5.84913L13.0484 5.86611C13.0217 5.84671 12.9914 5.83095 12.9684 5.80912C12.8665 5.71212 12.7574 5.62118 12.6677 5.51447C12.4555 5.25862 12.253 4.99429 12.0444 4.73602C11.9607 4.63295 11.8698 4.53473 11.7825 4.4353C11.7752 4.44137 11.7679 4.44864 11.7607 4.45471C11.9995 4.78209 12.2602 5.0925 12.4579 5.45021C12.162 5.24407 11.9826 4.9276 11.7122 4.69358C11.7267 4.7542 11.7498 4.80877 11.7861 4.85363C11.9001 4.99429 12.0202 5.13131 12.1366 5.27196C12.1511 5.28894 12.1572 5.31319 12.1669 5.33501C12.1584 5.34229 12.1499 5.34956 12.1426 5.35684C12.1014 5.32653 12.0541 5.29985 12.0177 5.26347C11.8928 5.13616 11.774 5.00278 11.6503 4.87546C11.6164 4.84151 11.5703 4.81968 11.5291 4.79301C11.5242 4.80028 11.5206 4.80877 11.5157 4.81604C11.9037 5.31925 12.4094 5.70242 12.8798 6.12075C12.8689 6.1353 12.858 6.14985 12.8471 6.16318C12.6446 6.04072 12.43 5.93401 12.2433 5.78972C12.0553 5.64543 11.8953 5.46476 11.7231 5.29985C11.7134 5.31076 11.7025 5.32046 11.6928 5.33138C11.871 5.55812 12.0687 5.77032 12.3087 5.93159C12.5488 6.09164 12.8083 6.2226 13.0593 6.36568C13.0557 6.37417 13.052 6.38387 13.0484 6.39236C12.8507 6.37781 12.681 6.27716 12.51 6.18865C12.333 6.09649 12.1596 5.99585 11.9838 5.90006C11.9777 5.90855 11.9729 5.91704 11.9668 5.92431C11.9995 5.95099 12.0299 5.98009 12.0638 6.00434C12.4736 6.30384 12.9296 6.50027 13.417 6.63487C13.6438 6.69792 13.8644 6.78401 14.0851 6.86525C14.13 6.88222 14.1639 6.92709 14.2027 6.95862C14.193 6.97317 14.1845 6.98772 14.1748 7.00105C13.1854 6.81796 12.2493 6.52089 11.5436 5.72545C11.5424 5.75819 11.5448 5.78366 11.5594 5.79699C11.7279 5.96675 11.8771 6.1644 12.0723 6.29778C12.5767 6.64335 13.1333 6.88222 13.7371 7.00954C14.0318 7.07138 14.324 7.15141 14.6126 7.23629C14.7448 7.27509 14.866 7.34784 14.9666 7.4594C14.946 7.46667 14.9363 7.47395 14.9278 7.47274C14.9109 7.47031 14.8963 7.46182 14.8793 7.45576C14.689 7.38907 14.501 7.31147 14.307 7.26054C14.0487 7.19264 13.7759 7.17202 13.5249 7.08715C13.1163 6.94891 12.7198 6.77673 12.3184 6.6191C12.2881 6.60698 12.2554 6.59849 12.2239 6.58758L12.1875 6.63487C12.2154 6.6482 12.2445 6.6579 12.2712 6.67367C12.6361 6.88101 13.0157 7.06653 13.4243 7.16111C14.0293 7.30055 14.6429 7.39998 15.2031 7.68614C15.2395 7.70554 15.2734 7.7298 15.3098 7.75041C15.3049 7.7589 15.3001 7.7686 15.2952 7.77708C15.2819 7.7783 15.2686 7.78315 15.2564 7.78072C14.8599 7.68614 14.4622 7.5952 14.0681 7.49214C13.8232 7.42787 13.5855 7.33572 13.3406 7.26781C12.7634 7.10897 12.2554 6.83009 11.8213 6.41782C11.8019 6.39842 11.7776 6.38508 11.7546 6.3681C11.7473 6.37538 11.7401 6.38266 11.7328 6.38993C11.7534 6.41782 11.7704 6.44813 11.7946 6.47238C12.1208 6.8119 12.5052 7.06774 12.9465 7.2278C13.6147 7.4691 14.2961 7.66674 14.9897 7.81831C15.3935 7.90683 15.796 7.99049 16.1234 8.26817C16.1501 8.2912 16.1792 8.31061 16.2071 8.33122C16.201 8.34213 16.1962 8.35304 16.1901 8.36517C16.1501 8.35062 16.1076 8.34213 16.0701 8.32152C15.6626 8.09841 15.2249 7.95533 14.7678 7.88743C14.1591 7.79649 13.5819 7.61218 13.0205 7.36846C12.9756 7.34906 12.9259 7.33935 12.8786 7.3248C12.875 7.33329 12.8714 7.34057 12.8689 7.34906C12.8968 7.36603 12.9235 7.38543 12.9526 7.39877C13.2085 7.51517 13.4582 7.64977 13.7226 7.73828C13.9966 7.83044 14.2852 7.88985 14.5701 7.9432C14.986 8.02202 15.3971 8.10932 15.7851 8.28393C15.8336 8.30576 15.8761 8.33971 15.9209 8.36881C15.9161 8.37972 15.9124 8.39063 15.9076 8.40276C15.87 8.40276 15.83 8.40882 15.7936 8.40276C15.3825 8.32758 14.9715 8.24634 14.5592 8.1748C14.0027 8.07658 13.4982 7.85105 13.0241 7.55398C12.7343 7.37209 12.4579 7.16839 12.1741 6.9768C12.1353 6.95013 12.0905 6.93073 12.0493 6.9089C12.042 6.9186 12.0359 6.9283 12.0286 6.938C12.0493 6.96104 12.0662 6.98893 12.0893 7.00712C12.4652 7.28964 12.8423 7.56853 13.2642 7.78193C13.5977 7.95048 13.9251 8.13479 14.2973 8.20996C14.809 8.31303 15.3207 8.40882 15.8324 8.51068C16.0203 8.54826 16.2083 8.58828 16.3938 8.63678C16.4593 8.65376 16.5175 8.70347 16.5793 8.73742L16.5636 8.77744C16.532 8.77259 16.5005 8.77137 16.4702 8.76289C15.8991 8.58828 15.3074 8.52644 14.7181 8.45854C14.0354 8.38093 13.4243 8.14206 12.8774 7.72858C12.7052 7.59884 12.5137 7.49335 12.3197 7.36846C12.3197 7.39998 12.3172 7.40847 12.3197 7.41211C12.3281 7.42302 12.3378 7.43272 12.3488 7.44121C12.6846 7.68251 12.9914 7.96382 13.3758 8.13721C13.6862 8.27665 13.9918 8.42701 14.3313 8.48279C14.7375 8.54826 15.1473 8.58828 15.5511 8.66103C15.9221 8.72772 16.2871 8.82109 16.6545 8.90475C16.6933 8.91324 16.7285 8.94234 16.7661 8.96174C16.7612 8.97144 16.7564 8.98236 16.7527 8.99206C16.7236 8.99206 16.6945 8.99569 16.6654 8.99206C16.121 8.92658 15.5753 8.86474 15.0321 8.79077C14.6247 8.735 14.2137 8.67437 13.8365 8.49976C13.1842 8.19784 12.5646 7.83892 12.0347 7.3442C12.0189 7.32965 11.9983 7.32117 11.9801 7.31025C11.9814 7.34906 11.9959 7.37573 12.0165 7.39392C12.1754 7.53458 12.3245 7.69099 12.5003 7.80861C12.7901 8.00383 13.0957 8.17359 13.3964 8.35183C13.8523 8.62223 14.3495 8.77016 14.8708 8.84291C15.3595 8.91203 15.8506 8.96902 16.3405 9.03086C16.7285 9.07936 17.1068 9.15333 17.4402 9.37401C17.4681 9.3922 17.4912 9.41645 17.5166 9.43827L17.4997 9.46616C17.4596 9.45283 17.4184 9.44312 17.3808 9.42615C17.1153 9.29883 16.8364 9.21759 16.5442 9.18243C16.2277 9.14484 15.9076 9.12907 15.5935 9.07936C15.214 9.01995 14.8393 8.93385 14.4622 8.86353C14.1918 8.8126 13.9251 8.75318 13.6826 8.61374C13.4982 8.50704 13.3115 8.40518 13.1248 8.30333C13.0872 8.28272 13.0399 8.25604 13.0011 8.2621C12.9005 8.27908 12.8289 8.23179 12.7574 8.17601C12.6761 8.11296 12.5949 8.0487 12.5112 7.98928C12.4846 7.96988 12.4494 7.96139 12.4191 7.94684C12.4118 7.95654 12.4045 7.96624 12.3985 7.97473C12.43 8.00626 12.4579 8.04384 12.493 8.07052C12.7259 8.24149 12.9587 8.41003 13.1927 8.57858C13.5177 8.81139 13.862 9.01388 14.2452 9.13029C14.9763 9.35097 15.733 9.44312 16.4896 9.52922C16.9734 9.58499 17.4415 9.69533 17.8865 9.8954C17.9228 9.91238 17.9556 9.93663 17.9895 9.95846C17.9847 9.96694 17.9798 9.97664 17.9762 9.98513C17.9253 9.97058 17.8731 9.95967 17.8222 9.94148C17.3166 9.75839 16.7927 9.65896 16.2592 9.59469C15.8033 9.54013 15.3474 9.48071 14.8939 9.41039C14.4416 9.34006 13.9942 9.24184 13.5928 9.00782C13.2291 8.79562 12.8701 8.57252 12.5088 8.35547C12.4894 8.34334 12.4664 8.33849 12.4445 8.32879C12.4397 8.33607 12.4348 8.34334 12.4288 8.35183C12.453 8.37851 12.4749 8.41003 12.504 8.42944C12.6786 8.54948 12.8532 8.66952 13.0314 8.78592C13.4885 9.083 13.9675 9.34006 14.5119 9.42979C15.1037 9.528 15.7002 9.59591 16.292 9.68806C16.64 9.74141 16.9855 9.81538 17.3323 9.88085C17.3687 9.88813 17.4027 9.90511 17.439 9.91844C17.4366 9.92814 17.4354 9.93906 17.433 9.94876C17.3869 9.94876 17.3408 9.95361 17.2959 9.94876C17.0304 9.91602 16.7661 9.876 16.4993 9.8469C16.0701 9.79961 15.6384 9.7693 15.2104 9.71231C14.3155 9.59227 13.491 9.27216 12.7404 8.77137C12.5403 8.63799 12.3657 8.4646 12.1802 8.30939C12.1244 8.26332 12.0735 8.21118 12.0202 8.16267C12.0092 8.17238 11.9983 8.18208 11.9874 8.19056C12.0214 8.23664 12.0505 8.28878 12.0905 8.32879C12.3718 8.60768 12.6774 8.8514 13.0254 9.04541C13.5819 9.35461 14.1664 9.58257 14.786 9.72444C14.866 9.74262 14.946 9.76202 15.0273 9.78142L15.0236 9.81295C14.9776 9.81659 14.9303 9.82508 14.8854 9.82265C14.341 9.79113 13.8111 9.67593 13.2994 9.49041C12.9805 9.37401 12.6689 9.2382 12.3536 9.1121C12.3354 9.10482 12.316 9.1024 12.2881 9.09512C12.3003 9.12786 12.3087 9.1509 12.3172 9.17273C12.3112 9.18121 12.3051 9.1897 12.299 9.19819C12.1547 9.12665 12.0092 9.05632 11.8649 8.98478C11.8601 8.99691 11.854 9.00903 11.8492 9.02116C11.8795 9.04177 11.9074 9.06723 11.9389 9.083C12.1547 9.19577 12.3718 9.30368 12.5852 9.4213C13.1224 9.71474 13.691 9.91844 14.2973 10.0106C14.8769 10.0979 15.4553 10.201 16.0373 10.2652C16.5405 10.321 17.0498 10.3343 17.5566 10.361C18.0526 10.3865 18.5012 10.5538 18.9268 10.7951C18.9765 10.823 19.0141 10.8703 19.0578 10.9079C19.0505 10.92 19.042 10.9321 19.0347 10.9443C18.9935 10.9285 18.9523 10.9139 18.9123 10.8958C18.4551 10.6787 17.992 10.4859 17.4766 10.4556C16.9079 10.4216 16.3405 10.3804 15.773 10.3356C15.4177 10.3077 15.06 10.2871 14.7084 10.2337C14.073 10.1379 13.4473 9.99483 12.8738 9.68685C12.841 9.66987 12.8035 9.6626 12.7671 9.65168C12.7634 9.66017 12.7586 9.66987 12.755 9.67836C12.7877 9.69897 12.8204 9.71959 12.8532 9.7402C13.3758 10.0712 13.9639 10.2082 14.5629 10.298C15.0539 10.3719 15.5487 10.4119 16.0434 10.4568C16.3987 10.4896 16.7539 10.5223 17.1104 10.5259C17.7337 10.532 18.3193 10.6751 18.871 10.9612C18.9014 10.977 18.9256 11.0012 18.9535 11.0219C18.9487 11.0316 18.945 11.04 18.9402 11.0497C18.9062 11.0425 18.871 11.0388 18.8383 11.0279C18.4115 10.9006 17.9919 10.76 17.5385 10.7321C16.8097 10.6872 16.0834 10.6072 15.3559 10.5393C15.0418 10.509 14.7205 10.5041 14.4174 10.4277C13.7517 10.2604 13.1066 10.0239 12.504 9.68685C12.47 9.66745 12.4276 9.66381 12.39 9.65168C12.3851 9.66381 12.3803 9.67593 12.3754 9.68806C12.4276 9.7208 12.4785 9.75839 12.5331 9.78627C13.0229 10.0348 13.5249 10.2567 14.0548 10.4071C14.2852 10.4726 14.518 10.5478 14.7532 10.5732C15.248 10.6254 15.7451 10.6448 16.241 10.6848C16.5005 10.7054 16.7588 10.7393 17.0171 10.7721C17.4111 10.8218 17.8052 10.8715 18.1981 10.9297C18.3024 10.9455 18.4018 10.9915 18.5036 11.0194C18.8262 11.1092 19.1305 11.2413 19.4155 11.4184C19.4652 11.4499 19.5028 11.5008 19.5452 11.5433C19.5355 11.5566 19.5258 11.5687 19.5161 11.5821C19.4579 11.5517 19.4021 11.519 19.3427 11.4923C19.076 11.3699 18.8128 11.2353 18.5376 11.1334C18.3339 11.0582 18.1168 11 17.901 10.9806C17.4293 10.9394 16.9564 10.9261 16.4835 10.903C16.1137 10.8848 15.7427 10.88 15.3741 10.8485C14.8721 10.806 14.3701 10.7466 13.8887 10.5829C13.6256 10.4932 13.3673 10.3938 13.1054 10.298C13.0593 10.281 13.0132 10.264 12.9659 10.2483C12.9769 10.2834 12.9963 10.3016 13.0193 10.3125C13.143 10.3707 13.2667 10.4314 13.3928 10.4847C14.2537 10.8521 15.1655 10.9467 16.0895 10.9782C16.446 10.9903 16.8024 11.0061 17.1589 11.0231C17.1917 11.0243 17.2232 11.0388 17.2547 11.0473C17.2293 11.0764 17.2074 11.0849 17.1856 11.0861C16.9261 11.1007 16.6654 11.1116 16.4059 11.1286C15.8336 11.1674 15.2686 11.1007 14.7059 11.0085C14.3434 10.9491 14.0075 10.8097 13.6716 10.669C13.6316 10.652 13.5856 10.6472 13.5431 10.6375C13.5383 10.652 13.5334 10.6678 13.5286 10.6823C13.8293 10.8024 14.1288 10.9212 14.4295 11.0413C14.4258 11.0522 14.4222 11.0631 14.4186 11.074C13.9918 10.9843 13.5771 10.8485 13.1636 10.7005C13.1903 10.7381 13.2218 10.76 13.2569 10.7757C14.0548 11.1455 14.8987 11.308 15.7718 11.325C16.4338 11.3383 17.0959 11.3359 17.7579 11.3492C18.4491 11.3626 19.1002 11.5396 19.7101 11.8634C19.7611 11.89 19.8096 11.9264 19.8484 11.9689C19.8762 11.9992 19.8859 12.0465 19.9029 12.0865C19.8944 12.0938 19.8847 12.101 19.8762 12.1083C19.8399 12.0938 19.8023 12.0816 19.7683 12.0647C19.4155 11.8803 19.0687 11.6851 18.6843 11.5699C18.2551 11.4402 17.8125 11.4269 17.3699 11.4269C16.897 11.4269 16.4278 11.4972 15.9512 11.4644C15.3947 11.4256 14.8321 11.4499 14.2913 11.2777C14.2318 11.2595 14.1676 11.2583 14.0815 11.2462C14.1082 11.2765 14.1106 11.2838 14.1166 11.2862C14.4962 11.4341 14.8854 11.5372 15.2965 11.5408C15.5123 11.542 15.7281 11.5408 15.944 11.5457C16.1319 11.5505 16.3198 11.5736 16.5078 11.5687C16.9637 11.5566 17.4172 11.5069 17.8743 11.536C18.3933 11.5675 18.8868 11.6681 19.3318 11.9495C19.3585 11.9664 19.3815 11.987 19.407 12.0052C19.4021 12.0149 19.3985 12.0234 19.3937 12.0331C19.3573 12.0234 19.3209 12.0161 19.2857 12.0052C19.0917 11.9385 18.9001 11.8573 18.7025 11.8076C17.998 11.6306 17.2814 11.6512 16.5636 11.69C15.967 11.7227 15.368 11.7458 14.7799 11.6184C14.4089 11.5384 14.0451 11.4208 13.6789 11.3214C13.6425 11.3117 13.605 11.3007 13.5686 11.2898C13.611 11.3395 13.6595 11.3699 13.7129 11.3905C14.4064 11.6633 15.1279 11.8064 15.8712 11.8185C16.2677 11.8246 16.6654 11.7797 17.0631 11.7676C17.7628 11.747 18.4527 11.7943 19.1208 12.0368C19.5731 12.2017 19.9599 12.4478 20.2752 12.8079C20.3079 12.8455 20.3273 12.8952 20.3528 12.9401C20.3419 12.9486 20.3309 12.9559 20.3212 12.9644C20.2885 12.9425 20.2558 12.9207 20.2242 12.8965C20.0254 12.7461 19.8314 12.586 19.6252 12.4442C19.0808 12.0707 18.4855 11.8428 17.8149 11.8634C17.2462 11.8816 16.6763 11.8961 16.1089 11.9313C15.4808 11.9701 14.8612 11.9361 14.2464 11.8064C14.2161 11.8003 14.1846 11.8027 14.1542 11.8003C14.153 11.81 14.1518 11.8197 14.1506 11.8306C14.2925 11.8646 14.4343 11.8973 14.575 11.9349C14.9133 12.0246 15.2577 12.0513 15.6044 12.0465C15.8821 12.0428 16.1586 12.0271 16.4363 12.0161C16.8061 12.0016 17.1771 11.9895 17.5469 11.9713C18.0574 11.947 18.5558 11.9931 19.0263 12.2089C19.4591 12.4078 19.8471 12.6782 20.2085 12.9874C20.2606 13.0311 20.3006 13.088 20.3467 13.1402C20.337 13.1523 20.3273 13.1632 20.3188 13.1753C20.2776 13.1535 20.2339 13.1341 20.1951 13.1074C19.8581 12.8795 19.5428 12.6224 19.1742 12.4381C18.5861 12.1447 17.9665 12.0707 17.3226 12.1289C17.0219 12.1556 16.7212 12.1859 16.4205 12.1932C16.0882 12.2005 15.7548 12.1932 15.4238 12.1714C15.151 12.1532 14.8806 12.1022 14.6102 12.0659C14.5774 12.061 14.5447 12.0598 14.5107 12.0562C14.5204 12.0828 14.5301 12.0913 14.5423 12.095C14.6817 12.1301 14.8211 12.1701 14.9618 12.1968C15.6966 12.3411 16.4375 12.2817 17.1759 12.2502C17.4111 12.2405 17.6427 12.2053 17.8804 12.2102C18.5376 12.2211 19.116 12.4321 19.635 12.8249C19.6592 12.8431 19.6786 12.871 19.6992 12.894C19.6944 12.9025 19.6883 12.9098 19.6834 12.9183C19.6543 12.9074 19.6228 12.8989 19.5949 12.8843C19.5137 12.8395 19.4325 12.7946 19.3536 12.7461C19.082 12.58 18.7983 12.4442 18.4842 12.386C17.9689 12.2926 17.4512 12.3059 16.9358 12.3702C16.3186 12.4478 15.7051 12.4454 15.0891 12.3654C15.0588 12.3617 15.0273 12.3654 14.9957 12.3654C15.0321 12.3957 15.0697 12.4127 15.1097 12.4163C15.4674 12.4527 15.8251 12.4866 16.1828 12.523C16.2629 12.5315 16.3586 12.5278 16.4181 12.5703C16.7054 12.7764 16.9831 12.9947 17.262 13.2117C17.2911 13.2348 17.3044 13.2784 17.3238 13.3136C17.2959 13.3051 17.2656 13.299 17.2426 13.2845C17.1068 13.1923 16.9722 13.0977 16.8364 13.0044C16.8134 12.9886 16.7903 12.9753 16.7661 12.9619C16.7491 12.9801 16.7333 12.9995 16.7163 13.0177C16.7564 13.0371 16.8024 13.048 16.8352 13.0759C17.1808 13.3706 17.5809 13.5743 17.9847 13.7731C18.0623 13.8107 18.1411 13.8398 18.1641 13.9392C18.1714 13.9696 18.209 14.0011 18.2405 14.0169C18.4661 14.1308 18.6928 14.246 18.922 14.3527C19.2542 14.5067 19.5961 14.6425 19.9223 14.8086C20.4922 15.0997 20.8875 15.5568 21.1252 16.1497C21.1615 16.2407 21.1712 16.3292 21.1167 16.4225C21.0876 16.3801 21.0658 16.3365 21.0548 16.2892C20.9603 15.9193 20.759 15.6138 20.4898 15.3507C20.1951 15.0621 19.8374 14.8693 19.4567 14.7286C18.7971 14.4849 18.1872 14.1611 17.6536 13.6992C17.6282 13.6773 17.5954 13.6628 17.5663 13.6446C17.5603 13.6531 17.5554 13.6604 17.5494 13.6689C17.707 13.8774 17.9083 14.0411 18.1229 14.1854C18.3387 14.3309 18.5643 14.4619 18.785 14.6001C18.7801 14.6098 18.774 14.6195 18.7692 14.6292C18.5873 14.5855 18.4297 14.4885 18.2745 14.3855C18.1168 14.2812 17.9665 14.1684 17.8113 14.0617C17.6585 13.9562 17.4997 13.8592 17.3541 13.7465C17.205 13.6313 17.0607 13.5088 16.9273 13.3766C16.8 13.2493 16.6885 13.105 16.5708 12.968L16.543 12.9898C16.5442 13.002 16.543 13.0177 16.5478 13.0274C16.6982 13.2493 16.8509 13.4664 17.068 13.6325C17.2014 13.7343 17.3214 13.8519 17.4451 13.9659C17.4706 13.9902 17.49 14.0278 17.4984 14.0629C17.5445 14.2315 17.5857 14.4 17.6282 14.5698C17.7022 14.8632 17.7858 15.1542 17.9568 15.4076C18.1569 15.7023 18.3703 15.9885 18.5776 16.2783C18.6019 16.3122 18.62 16.3522 18.6407 16.3886C18.6273 16.3959 18.6152 16.4031 18.6019 16.4104C17.9992 15.872 17.6476 15.1748 17.3723 14.4267C17.3663 14.4534 17.3639 14.48 17.3711 14.5031C17.439 14.7068 17.496 14.9153 17.5809 15.113C17.7616 15.5386 18.0114 15.9242 18.3339 16.2576C18.6576 16.5923 18.9317 16.9646 19.2021 17.3404C19.384 17.5927 19.4664 17.8873 19.5561 18.1783C19.5719 18.2292 19.5634 18.2887 19.5658 18.3444C19.5561 18.3456 19.5464 18.3481 19.5367 18.3493C19.5246 18.3165 19.5101 18.2838 19.4991 18.2499C19.4725 18.1686 19.4482 18.0862 19.4228 18.0049C19.3051 17.6351 19.082 17.3259 18.8468 17.0276C18.5327 16.6287 18.2029 16.2431 17.8901 15.8442C17.6124 15.4901 17.4051 15.0984 17.2972 14.6571C17.2608 14.5067 17.205 14.3612 17.1517 14.1951C17.1383 14.2266 17.131 14.2363 17.1323 14.2436C17.1989 14.5225 17.2365 14.8147 17.342 15.079C17.5178 15.5204 17.8028 15.9024 18.1047 16.2686C18.3788 16.602 18.6625 16.9282 18.9256 17.2701C19.1414 17.5502 19.3136 17.8606 19.4046 18.2074C19.4361 18.3299 19.4616 18.4536 19.4894 18.576L19.4434 18.5906C19.4215 18.5372 19.3949 18.4851 19.3779 18.4305C19.2833 18.1407 19.1948 17.8485 18.9935 17.6072C18.7631 17.3307 18.5376 17.0494 18.3121 16.7693C18.1496 16.5656 17.9944 16.3571 17.8283 16.1558C17.4584 15.7084 17.1577 15.2294 17.0813 14.6389C17.0765 14.6025 17.0522 14.5673 17.028 14.5079C17.0122 14.5516 17.0061 14.5613 17.0049 14.5698C17.0049 14.5904 17.0074 14.611 17.0086 14.6316C17.0401 15.0136 17.1674 15.3652 17.382 15.6768C17.6064 16.0042 17.8561 16.3146 18.0987 16.6287C18.289 16.876 18.4867 17.1173 18.6807 17.3623C18.7013 17.3877 18.7122 17.4217 18.728 17.4508C18.7195 17.4568 18.711 17.4629 18.7025 17.4702C18.6746 17.4447 18.6431 17.4205 18.6176 17.3926C18.4357 17.1877 18.2648 16.9706 18.0708 16.7778C17.6415 16.351 17.2693 15.8866 17.0122 15.3349C16.9601 15.2233 16.8934 15.1191 16.834 15.0124C16.8243 15.0172 16.8158 15.0208 16.8061 15.0257C16.8121 15.0499 16.8146 15.0766 16.8255 15.0997C16.9164 15.2912 17.0134 15.4804 17.0995 15.6744C17.1953 15.889 17.359 16.0636 17.4233 16.3001C17.5409 16.7305 17.8161 17.0785 18.0659 17.4399C18.3072 17.7891 18.5534 18.1371 18.7692 18.5021C18.9571 18.8185 19.0735 19.169 19.0978 19.5424C19.1039 19.6431 19.0832 19.7279 18.9765 19.808C18.9668 19.7231 18.9656 19.66 18.9523 19.5982C18.9026 19.3642 18.8735 19.1229 18.7934 18.8998C18.6431 18.4815 18.3945 18.1128 18.1447 17.7466C17.9434 17.452 17.7422 17.1586 17.5494 16.8603C17.4572 16.7184 17.382 16.5644 17.2996 16.4165C17.285 16.4359 17.2826 16.4504 17.2887 16.4601C17.422 16.7257 17.536 17.0058 17.6961 17.2544C17.9907 17.7115 18.3315 18.1383 18.5861 18.6245C18.7947 19.0247 18.8844 19.4454 18.8856 19.8916C18.8856 19.9062 18.8771 19.9195 18.8735 19.9341C18.8638 19.9341 18.8541 19.9341 18.8444 19.9353C18.8274 19.8468 18.8104 19.7583 18.7934 19.6697C18.7728 19.5655 18.7619 19.4588 18.7292 19.3581C18.5885 18.9349 18.3763 18.5494 18.1084 18.1929C17.7858 17.7624 17.4596 17.3344 17.1577 16.8894C17.0171 16.682 16.9055 16.448 16.8194 16.2116C16.7467 16.0115 16.7285 15.792 16.6885 15.5798C16.6678 15.4719 16.6557 15.3628 16.6375 15.2549C16.6351 15.2427 16.6218 15.2318 16.5963 15.1967C16.5963 15.2925 16.5939 15.3579 16.5963 15.4246C16.6133 15.826 16.6812 16.2213 16.8619 16.579C17.1274 17.104 17.4839 17.572 17.8525 18.028C18.2066 18.4669 18.5158 18.9265 18.6589 19.4806C18.6867 19.5861 18.7025 19.694 18.7231 19.8019C18.7122 19.8056 18.7013 19.808 18.6904 19.8116C18.654 19.7243 18.6188 19.6358 18.5812 19.5497C18.4806 19.3217 18.3994 19.0804 18.2708 18.8683C17.998 18.4172 17.6561 18.0183 17.2778 17.6521C16.777 17.1658 16.4338 16.5935 16.3029 15.9024C16.2907 15.8357 16.2641 15.7726 16.2447 15.7071C16.2168 15.7302 16.2095 15.7496 16.2119 15.7678C16.2968 16.3304 16.4884 16.853 16.8522 17.2956C17.1614 17.6715 17.5009 18.0219 17.8125 18.3954C17.975 18.5894 18.1338 18.7943 18.2466 19.0174C18.4054 19.3351 18.523 19.6734 18.6504 20.0056C18.6867 20.1014 18.694 20.2093 18.7134 20.3124C18.7025 20.3136 18.6928 20.316 18.6819 20.3172C18.6722 20.2821 18.6613 20.2469 18.6516 20.2118C18.6407 20.1717 18.6334 20.1317 18.6201 20.0929C18.4297 19.5667 18.169 19.0768 17.8283 18.6354C17.6027 18.3432 17.3457 18.074 17.0971 17.8C16.7224 17.3853 16.3902 16.9439 16.1489 16.4371C16.1089 16.3522 16.0616 16.271 16.0143 16.1825C15.9828 16.2103 15.9646 16.2261 15.9318 16.254C15.8688 16.117 15.8106 15.9909 15.7536 15.866C15.7402 15.8708 15.7281 15.8769 15.7148 15.8817C15.7657 16.0139 15.813 16.1473 15.8676 16.2795C16.0579 16.7427 16.2713 17.1949 16.549 17.6133C16.5939 17.6812 16.6193 17.7612 16.6509 17.8364C16.7455 18.0668 16.8291 18.3032 16.9346 18.5287C17.0971 18.8755 17.3978 19.1205 17.6233 19.4212C17.8452 19.7183 18.078 20.0056 18.2114 20.356C18.283 20.5416 18.346 20.7295 18.4079 20.9175C18.4321 20.9902 18.4321 21.0654 18.3302 21.12C18.3133 21.0605 18.2914 21.0108 18.2854 20.9599C18.2454 20.5779 18.0623 20.2578 17.8404 19.9571C17.5494 19.563 17.2438 19.1799 16.9576 18.7822C16.7321 18.4693 16.5599 18.1262 16.4981 17.7382C16.4945 17.7163 16.4811 17.6957 16.4714 17.6751C16.4617 17.6775 16.452 17.6787 16.4411 17.6812C16.4411 17.7272 16.4362 17.7733 16.4411 17.8182C16.475 18.0789 16.5951 18.3068 16.7151 18.5336C16.9564 18.9907 17.2838 19.3896 17.6064 19.7898C17.9083 20.1633 18.1617 20.5561 18.2235 21.046C18.2345 21.1345 18.2066 21.1733 18.1217 21.1927C18.0865 21.0775 18.0611 20.9635 18.0162 20.858C17.8295 20.413 17.5724 20.0093 17.2838 19.6237C17.0716 19.3424 16.874 19.0501 16.6739 18.7591C16.6169 18.6767 16.5745 18.5845 16.5248 18.496C16.5163 18.4984 16.509 18.5021 16.5005 18.5045C16.5138 18.5578 16.5163 18.6185 16.543 18.6645C16.686 18.9058 16.8194 19.1556 16.9867 19.3799C17.2802 19.774 17.5785 20.162 17.7992 20.6022C17.9034 20.8083 17.9992 21.0169 18.0162 21.2509C18.0186 21.2836 18.0101 21.3164 18.0065 21.3491C17.975 21.3321 17.9604 21.3152 17.958 21.297C17.9083 20.9478 17.7458 20.6434 17.5518 20.3621C17.3008 19.9996 17.028 19.6503 16.7503 19.3072C16.4023 18.8755 16.1355 18.4002 15.9246 17.8909C15.9124 17.8618 15.8979 17.834 15.8845 17.8061C15.8748 17.8097 15.8664 17.8121 15.8566 17.8158C15.8664 17.8703 15.8676 17.9273 15.887 17.977C16.1149 18.5433 16.412 19.0659 16.8134 19.5327C17.108 19.8747 17.4002 20.2202 17.6136 20.6264C17.741 20.8702 17.8367 21.1187 17.8877 21.3867C17.9034 21.4667 17.8889 21.5346 17.7967 21.5734C17.7846 21.5456 17.7725 21.5213 17.764 21.4958C17.7106 21.3334 17.6658 21.1685 17.6039 21.0084C17.4208 20.5294 17.1177 20.1293 16.7673 19.7631C16.5199 19.5048 16.2907 19.232 16.138 18.9046C16.1234 18.8731 16.0992 18.8452 16.0798 18.8161C16.0713 18.8198 16.064 18.8222 16.0555 18.8258C16.0591 18.8501 16.0579 18.8767 16.0676 18.8974C16.121 19.0089 16.1622 19.1302 16.235 19.2272C16.4314 19.4903 16.6242 19.7607 16.8522 19.9947C17.2935 20.447 17.53 20.9999 17.7155 21.5856C17.741 21.668 17.7191 21.7238 17.6318 21.7699C17.6148 21.7262 17.5979 21.6874 17.5833 21.6474C17.4827 21.3746 17.3978 21.0945 17.2778 20.8302C17.1153 20.4737 16.8594 20.1802 16.5902 19.9001C16.2823 19.5812 15.9828 19.2563 15.8239 18.8295C15.8057 18.7822 15.7766 18.7397 15.7403 18.673C15.733 18.713 15.7269 18.724 15.7293 18.7324C15.8276 19.0295 15.944 19.3193 16.1525 19.5594C16.389 19.831 16.6327 20.0954 16.8716 20.3645C17.2329 20.7695 17.3808 21.2739 17.5288 21.7784C17.5385 21.8111 17.53 21.8487 17.53 21.8851C17.4111 21.6656 17.3202 21.4449 17.2159 21.2315C17.1116 21.0169 17.0243 20.7926 16.857 20.6119C16.6982 20.4421 16.5781 20.236 16.3829 20.0978C16.3865 20.139 16.4035 20.1705 16.4241 20.1972C16.5126 20.3063 16.6024 20.4142 16.6909 20.5246C17.0243 20.9393 17.2402 21.4146 17.416 21.9105C17.4281 21.9445 17.4245 21.9833 17.4281 22.0197C17.4184 22.0221 17.4099 22.0233 17.4002 22.0257C17.3723 21.9687 17.3469 21.9093 17.3141 21.8535C17.1662 21.5989 17.0365 21.3309 16.8631 21.0957C16.6193 20.7647 16.3502 20.4531 16.1755 20.076C16.1525 20.025 16.1089 19.985 16.0737 19.9389C16.0555 19.9632 16.0543 19.9741 16.0579 19.9814C16.2301 20.3524 16.4253 20.7101 16.6994 21.0181C16.9346 21.2824 17.1104 21.5819 17.2535 21.9033C17.2753 21.9518 17.285 22.0051 17.2996 22.056C17.2935 22.056 17.2875 22.0585 17.2814 22.0597C16.9213 21.5722 16.5611 21.0836 16.201 20.5961C16.1913 20.601 16.1828 20.6058 16.1731 20.6095C16.2277 20.7162 16.2701 20.8314 16.3405 20.9272C16.5296 21.1879 16.7309 21.4401 16.9249 21.6971C16.9455 21.725 16.954 21.7626 16.9686 21.7953C16.9589 21.8002 16.9492 21.8063 16.9407 21.8111C16.7879 21.6292 16.6351 21.4461 16.4835 21.2642C16.4726 21.2727 16.4605 21.2812 16.4496 21.2897C16.4714 21.3249 16.4908 21.3625 16.5139 21.3964C16.7079 21.6705 16.8994 21.9469 17.0983 22.2173C17.1686 22.3131 17.1444 22.3762 17.0741 22.4574C16.7127 22.8806 16.3538 23.3074 15.9949 23.733C15.9973 23.7415 15.9997 23.75 16.0022 23.7585C15.9997 23.7572 15.9985 23.756 15.9961 23.7536C15.8676 23.9064 15.739 24.0592 15.6093 24.2119C15.5875 24.2374 15.5584 24.2568 15.5317 24.2811C15.3728 24.0143 15.2128 23.7621 15.0673 23.5014C14.7993 23.0188 14.5216 22.5398 14.284 22.0427C14.1154 21.6911 14.1433 21.3152 14.3216 20.9611C14.5677 20.4712 15.1461 20.1875 15.6117 20.3282C15.8263 20.3924 15.9294 20.3621 15.9694 20.2239C16.007 20.0905 15.9294 19.9899 15.7172 19.9389C15.579 19.905 15.431 19.8783 15.2904 19.8904C14.6223 19.9462 14.1736 20.3088 13.8911 20.9053C13.7796 21.1418 13.6462 21.3685 13.5079 21.5904C13.4158 21.7384 13.3006 21.8705 13.1927 22.0075C12.7077 22.615 12.1948 23.1983 11.5485 23.642C10.9507 24.0519 10.4754 23.8118 10.4269 23.0879C10.3966 22.6502 10.4681 22.2246 10.5954 21.8087C10.6282 21.702 10.6997 21.5977 10.7773 21.514C11.1204 21.1454 11.4891 20.7986 11.8164 20.4155C12.0177 20.1802 12.1875 19.9074 12.1657 19.5691C12.1499 19.3351 11.9874 19.1969 11.7631 19.2575C11.6285 19.2939 11.4794 19.3581 11.3884 19.4576C11.1677 19.7001 10.9519 19.9547 10.7821 20.2348C10.4475 20.7829 10.2547 21.394 10.1128 22.0172C9.99762 22.5241 9.937 23.037 10.0983 23.5499C10.2729 24.1065 10.7785 24.3853 11.3302 24.2035C11.5206 24.1404 11.7049 24.0373 11.8686 23.9209C12.4421 23.5135 12.9162 23.003 13.3576 22.4598C13.4995 22.2852 13.6401 22.1094 13.8002 21.9105C14.0196 22.6599 14.4331 23.2662 14.8248 23.8858C14.9521 24.0883 15.0455 24.3114 15.157 24.5248C15.2261 24.6582 15.2007 24.7649 15.1122 24.8873C14.6841 25.4754 14.267 26.0744 13.9796 26.7474C13.8814 26.9766 13.805 27.2239 13.7711 27.4701C13.7141 27.8835 14.0403 28.1248 14.4101 27.9333C14.638 27.8144 14.8575 27.6435 15.0236 27.447C15.6129 26.7486 15.8421 25.9338 15.7051 25.0268C15.6808 24.8691 15.7075 24.7515 15.8082 24.6315C15.9779 24.4302 16.144 24.2277 16.3114 24.024C16.6145 23.6602 16.9164 23.2953 17.2196 22.9315C17.2365 22.9109 17.2608 22.8939 17.2935 22.866C17.2935 22.8963 17.2959 22.9072 17.2935 22.9157C17.285 22.9351 17.2753 22.9533 17.2644 22.9703C16.9188 23.4868 16.5405 23.9791 16.1137 24.4326C15.9912 24.5624 15.8712 24.6945 15.7572 24.8316C15.7124 24.8861 15.6917 24.9577 15.7609 25.0147C15.83 25.0716 15.8773 25.0195 15.9173 24.9722C16.041 24.8255 16.1525 24.6679 16.2835 24.5284C16.6909 24.0931 17.0401 23.6154 17.3711 23.1219C17.4196 23.0491 17.4984 22.9764 17.5785 22.9497C17.8949 22.8466 18.2223 22.8236 18.5546 22.8539C18.6455 22.8624 18.7462 22.8745 18.8286 22.8478C19.042 22.7763 19.2494 22.6829 19.4579 22.598C19.47 22.5932 19.4761 22.575 19.4931 22.5508C19.464 22.5544 19.4506 22.5544 19.4385 22.558C19.2239 22.6284 19.0105 22.7035 18.7934 22.7678C18.7268 22.7872 18.6491 22.7896 18.58 22.7763C18.3715 22.7339 18.1641 22.7375 17.9568 22.7787C17.9022 22.7896 17.8464 22.7896 17.7919 22.7957C17.7882 22.7848 17.7846 22.7751 17.781 22.7642C17.8052 22.746 17.8258 22.7193 17.8525 22.712C18.1387 22.6296 18.4212 22.5289 18.7122 22.4732C19.1705 22.3859 19.6325 22.3289 20.046 22.0851C20.2606 21.959 20.474 21.839 20.6402 21.651C20.6777 21.6074 20.7044 21.5528 20.7359 21.5043C20.725 21.4971 20.7129 21.4886 20.702 21.4813C20.6814 21.5055 20.662 21.5334 20.6377 21.5528C20.4849 21.6789 20.3431 21.8244 20.1757 21.9251C19.8144 22.1421 19.4203 22.284 18.9984 22.3277C18.6964 22.358 18.4054 22.4307 18.1181 22.5241C18.0659 22.5411 18.0089 22.5447 17.9544 22.5556C18.0793 22.4259 18.2345 22.3677 18.3982 22.3264C18.8468 22.2137 19.293 22.0876 19.7441 21.9869C20.069 21.9154 20.2897 21.6983 20.5238 21.4946C20.5322 21.4874 20.5347 21.474 20.5395 21.4631C20.491 21.4716 20.4571 21.4958 20.4207 21.5189C20.2546 21.6268 20.0994 21.7614 19.9199 21.8354C19.7041 21.9239 19.4664 21.9627 19.2372 22.0197C19.1596 22.0391 19.0796 22.0463 18.9996 22.0585C19.2045 21.953 19.4058 21.8584 19.6143 21.7832C20.0945 21.6086 20.508 21.337 20.8548 20.9623C20.8839 20.9308 20.9069 20.8932 20.9324 20.8593C20.9239 20.8532 20.9166 20.8471 20.9081 20.8399C20.8899 20.8532 20.8693 20.8641 20.8523 20.8787C20.6887 21.0193 20.5274 21.1636 20.3613 21.3006C20.1466 21.4789 19.8847 21.5674 19.6337 21.6789C19.2627 21.8426 18.8844 21.9845 18.4867 22.0657C18.3387 22.0961 18.1908 22.1215 18.0611 22.2064C18.0429 22.2173 18.0126 22.2076 17.9871 22.2076C17.9932 22.1834 17.9907 22.1482 18.0065 22.1361C18.0817 22.0779 18.1544 22.0051 18.2405 21.9736C18.437 21.9045 18.6431 21.8608 18.8419 21.7978C19.3076 21.651 19.755 21.4619 20.1782 21.2157C20.5213 21.0157 20.8305 20.7744 21.107 20.4894C21.1276 20.4688 21.1397 20.4397 21.1555 20.4142C21.1434 20.4009 21.1312 20.3876 21.1191 20.3742C20.725 20.7574 20.2982 21.0909 19.8011 21.3261C19.3051 21.5613 18.7898 21.7262 18.2442 21.8196C18.3363 21.7335 18.4345 21.6583 18.54 21.5953C18.7789 21.4546 19.0469 21.394 19.3063 21.3079C20.1466 21.0278 20.8657 20.5585 21.4307 19.8674C21.472 19.8177 21.4962 19.7546 21.5289 19.6988C21.5144 19.6879 21.5011 19.6758 21.4865 19.6649C21.2634 19.9632 21.0245 20.2493 20.7141 20.4555L20.7105 20.4385ZM13.4413 6.11104C13.3637 6.02253 13.2848 5.93523 13.1915 5.82973C13.3091 5.83701 13.4316 5.96433 13.4679 6.08679C13.4595 6.09407 13.4497 6.10256 13.4413 6.10983V6.11104ZM15.6141 7.68614C15.5244 7.67038 15.5135 7.59399 15.4929 7.52851C15.4395 7.35876 15.4068 7.18051 15.3328 7.02045C15.2516 6.84585 15.1328 6.68822 15.0321 6.5221C15.0115 6.48815 14.9982 6.44813 14.9812 6.41176C15.2431 6.56696 15.6663 7.4594 15.6141 7.68614ZM13.6874 8.78471C13.6268 8.74955 13.5662 8.71317 13.5055 8.67801C13.5152 8.66224 13.5249 8.64648 13.5334 8.62951C13.5928 8.66588 13.6535 8.70226 13.7129 8.73742C13.7044 8.75318 13.6959 8.76774 13.6874 8.7835V8.78471ZM17.4609 9.64077C17.051 9.48678 16.6206 9.45404 16.1913 9.40069C15.5281 9.31823 14.866 9.22123 14.2234 9.02843C14.0997 8.99084 13.9845 8.92537 13.8669 8.8708C13.845 8.85989 13.8269 8.84049 13.8074 8.82473C13.8099 8.81624 13.8123 8.80896 13.8147 8.80047C13.8426 8.8029 13.8705 8.80047 13.8972 8.80654C14.2015 8.8708 14.5059 8.93628 14.8102 9.00055C15.0515 9.05147 15.2916 9.1121 15.5353 9.14726C15.8712 9.19576 16.2107 9.22002 16.5466 9.26124C16.9116 9.30611 17.2523 9.42857 17.5712 9.61046C17.5857 9.61894 17.6003 9.62864 17.6136 9.63956C17.6185 9.64319 17.6185 9.65168 17.6294 9.67957C17.5639 9.66502 17.5094 9.65896 17.4596 9.64077H17.4609ZM17.188 7.23993C17.2135 7.29085 17.2499 7.33814 17.2632 7.39271C17.3372 7.68736 17.4051 7.98443 17.4754 8.28029C17.479 8.29727 17.4863 8.31424 17.4863 8.33001C17.4778 8.60283 17.6112 8.83685 17.69 9.08664C17.6997 9.11574 17.7046 9.14726 17.7167 9.20061C17.49 8.97508 17.1201 7.6243 17.1892 7.24114L17.188 7.23993ZM17.9507 9.4213C17.9216 9.37886 17.8877 9.33885 17.8646 9.29277C17.7058 8.98963 17.6221 8.66224 17.5554 8.32758C17.5009 8.05233 17.4305 7.77951 17.3687 7.50547C17.3614 7.47273 17.3602 7.44 17.3554 7.40726C17.3639 7.40241 17.3735 7.39756 17.382 7.39392C17.4123 7.43878 17.4536 7.48001 17.4718 7.52973C17.5445 7.72252 17.6112 7.91653 17.6779 8.11054C17.7373 8.28514 17.8076 8.45732 17.8501 8.63678C17.9034 8.86959 17.9337 9.10846 17.9738 9.3437C17.9774 9.3631 17.9786 9.3825 17.981 9.4019C17.9701 9.40796 17.9604 9.41402 17.9495 9.42009L17.9507 9.4213ZM18.4782 10.4374C18.4515 10.4338 18.4224 10.4362 18.3982 10.4265C18.0465 10.2822 17.6743 10.2543 17.2996 10.2301C16.7115 10.1913 16.121 10.1646 15.5353 10.1028C15.0721 10.0542 14.6114 9.97543 14.1542 9.88328C13.7796 9.8081 13.3964 9.74747 13.0532 9.56195C13.0132 9.54013 12.9756 9.51224 12.9368 9.48799C12.9417 9.47708 12.9465 9.46495 12.9514 9.45404C12.9853 9.46252 13.0217 9.46616 13.0545 9.47829C13.6474 9.70261 14.2549 9.85539 14.8915 9.89904C15.6469 9.94997 16.4023 10.007 17.1565 10.0785C17.5821 10.1185 18.0101 10.1743 18.4042 10.3622C18.4321 10.3756 18.4588 10.395 18.4855 10.4107C18.4818 10.4204 18.4794 10.4301 18.4758 10.4398L18.4782 10.4374ZM16.9746 11.2316C16.9722 11.2183 16.971 11.2062 16.9686 11.1928C17.0243 11.188 17.0801 11.1843 17.1359 11.1795C17.1371 11.1916 17.1395 11.2025 17.1407 11.2147C17.085 11.2207 17.0304 11.2268 16.9746 11.2316ZM18.865 9.81416C19.0954 10.2155 19.2833 10.612 19.3718 11.0619C19.2069 10.994 18.8092 10.0154 18.865 9.81416ZM19.5986 11.3311C19.5683 11.2704 19.5307 11.2122 19.5088 11.1492C19.4361 10.9394 19.3694 10.7272 19.2979 10.5162C19.1827 10.1804 19.0044 9.876 18.8153 9.57772C18.7389 9.45889 18.6831 9.33157 18.6952 9.18606C18.7037 9.18243 18.7134 9.17879 18.7219 9.17394C18.7462 9.21638 18.7704 9.26003 18.7947 9.30247C18.985 9.63471 19.2287 9.93299 19.3791 10.2895C19.5064 10.5902 19.618 10.8933 19.6386 11.2231C19.641 11.2547 19.6386 11.2862 19.6386 11.3177C19.6252 11.3214 19.6119 11.325 19.5986 11.3298V11.3311ZM19.8035 11.6669C19.7465 11.3686 19.6907 11.0692 19.6277 10.7721C19.5513 10.4047 19.3791 10.0785 19.1851 9.76202C19.0202 9.49405 18.8638 9.22123 18.7122 8.94719C18.6601 8.85261 18.6285 8.7447 18.5946 8.64163C18.5764 8.58464 18.5728 8.52401 18.5631 8.4646C18.5764 8.45975 18.5885 8.45611 18.6019 8.45126C18.654 8.54584 18.7001 8.64406 18.7607 8.73257C18.9777 9.0442 19.0929 9.40796 19.2797 9.73292C19.4834 10.0882 19.6701 10.4495 19.8011 10.8351C19.8665 11.0267 19.875 11.2377 19.9078 11.439C19.9308 11.5833 19.9514 11.7276 19.9587 11.8803C19.8678 11.8379 19.8217 11.7639 19.8023 11.6681L19.8035 11.6669ZM19.4567 12.038C19.6155 12.0307 20.0897 12.3411 20.1078 12.4842C19.8823 12.329 19.675 12.1871 19.4567 12.038ZM19.8556 12.9741C20.1042 13.1074 20.3346 13.2639 20.4922 13.5112C20.2715 13.3427 20.0509 13.1729 19.8314 13.0044L19.8556 12.9741ZM18.5873 12.5181C18.8735 12.5448 19.1087 12.6855 19.333 12.8516C19.3294 12.8613 19.3245 12.871 19.3209 12.8807L18.5679 12.5666L18.5873 12.5181ZM18.2017 12.4502C18.7995 12.7267 19.3924 13.0104 19.9927 13.282C20.257 13.4021 20.4449 13.6119 20.6547 13.7974C20.679 13.8192 20.6838 13.8616 20.6984 13.8944L20.6705 13.9138C20.6462 13.898 20.6195 13.8859 20.6001 13.8665C20.1927 13.4809 19.7101 13.2178 19.1936 13.0117C18.882 12.8868 18.5679 12.7679 18.2563 12.6406C18.1593 12.6006 18.0708 12.5436 17.9604 12.4854C18.0538 12.403 18.1314 12.4187 18.2017 12.4515V12.4502ZM17.4196 12.4236C17.536 12.4139 17.6524 12.4102 17.7688 12.4078C17.7955 12.4078 17.8392 12.4211 17.8464 12.4393C17.8962 12.5679 18.0162 12.6054 18.1241 12.6527C18.3691 12.7607 18.6164 12.8613 18.8626 12.9656C18.8929 12.9789 18.922 12.9935 18.9523 13.008L18.9414 13.0432C18.6855 13.0274 18.443 12.945 18.2102 12.8443C17.9786 12.7449 17.7591 12.6139 17.5348 12.4963C17.5275 12.5036 17.5191 12.5109 17.5118 12.5181C17.5469 12.5545 17.5785 12.597 17.6185 12.6273C17.8986 12.8358 18.2138 12.9716 18.5509 13.0468C18.9547 13.1365 19.3415 13.2699 19.715 13.447C20.1515 13.6531 20.4971 13.9732 20.8184 14.3236C20.8293 14.3358 20.8451 14.3503 20.8475 14.3649C20.8499 14.3891 20.8439 14.4146 20.8414 14.4388C20.8196 14.4328 20.7917 14.4328 20.7784 14.4194C20.719 14.3624 20.6632 14.3018 20.6074 14.2412C20.2703 13.8762 19.8496 13.6531 19.3852 13.4918C18.9523 13.3415 18.5218 13.1802 18.0987 13.002C17.8792 12.9098 17.6779 12.7716 17.4693 12.6539C17.4366 12.6358 17.399 12.6188 17.376 12.5909C17.3457 12.5533 17.3263 12.5048 17.3032 12.4612C17.3432 12.4478 17.382 12.426 17.4221 12.4224L17.4196 12.4236ZM17.1674 12.4709C17.3808 12.7231 17.6803 12.848 17.9495 13.0117C18.2078 13.1693 18.4964 13.2796 18.7789 13.39C19.042 13.4918 19.3233 13.5476 19.5816 13.6579C19.8193 13.7598 20.0363 13.9089 20.2606 14.0387C20.2824 14.0508 20.2958 14.0751 20.314 14.0945C20.3079 14.1042 20.3031 14.1151 20.297 14.1248C20.2521 14.1066 20.2048 14.092 20.1624 14.0678C19.8362 13.8835 19.4907 13.7416 19.139 13.6131C18.6588 13.4373 18.1823 13.2542 17.7094 13.0602C17.4524 12.9547 17.2074 12.8201 17.0219 12.603C16.994 12.5703 16.9868 12.5181 16.9698 12.4745C17.0377 12.4709 17.1407 12.4381 17.1674 12.4696V12.4709ZM16.8036 12.7643C16.7321 12.717 16.663 12.6661 16.5963 12.6127C16.5781 12.5982 16.5563 12.5594 16.5636 12.546C16.5757 12.5242 16.6109 12.4975 16.6339 12.5012C16.7091 12.5109 16.8134 12.506 16.8522 12.5521C17.1116 12.8649 17.4681 13.0214 17.8186 13.1972C18.3024 13.4409 18.8262 13.5731 19.3209 13.784C19.6628 13.9308 19.9987 14.0969 20.3237 14.2775C20.5795 14.4194 20.7505 14.6595 20.9239 14.8899C20.9433 14.9166 20.9481 14.9542 20.9591 14.9857C20.9518 14.9905 20.9433 14.9966 20.936 15.0014C20.9118 14.9808 20.8827 14.9639 20.8633 14.9396C20.5613 14.5479 20.1527 14.2945 19.7126 14.0981C19.3124 13.9198 18.8953 13.7804 18.4855 13.624C18.2138 13.5197 17.941 13.4179 17.6682 13.3148C17.3432 13.1899 17.0886 12.9534 16.8036 12.7643ZM17.7458 13.5597C17.5979 13.4979 17.4693 13.3912 17.3323 13.3039C17.3675 13.3039 17.4039 13.2978 17.4354 13.3099C18.0186 13.5294 18.5994 13.7574 19.1863 13.9696C19.6095 14.1223 20.0096 14.3139 20.3625 14.5904C20.5444 14.7323 20.6959 14.9129 20.8584 15.0803C20.8839 15.1057 20.8912 15.1482 20.9081 15.1821C20.9009 15.187 20.8936 15.193 20.8851 15.1979C20.8608 15.1773 20.8329 15.1591 20.8123 15.1348C20.3989 14.6462 19.8544 14.3758 19.2639 14.166C18.751 13.9841 18.2478 13.7707 17.747 13.5585L17.7458 13.5597ZM21.0367 15.7787C21.0257 15.7544 21.0173 15.729 21.0039 15.7047C20.7469 15.2294 20.3237 14.9384 19.8775 14.6668C19.527 14.4546 19.1317 14.3576 18.7643 14.1915C18.6746 14.1514 18.5897 14.0993 18.5049 14.0508C18.4964 14.046 18.4952 14.0278 18.4782 13.9878C18.5291 13.9987 18.5594 14.0011 18.5861 14.012C18.968 14.1551 19.3512 14.2933 19.7307 14.4437C20.0872 14.5843 20.3843 14.8147 20.6499 15.0887C20.7614 15.2039 20.8669 15.3264 20.9675 15.4513C21.0354 15.5362 21.0779 15.6356 21.0767 15.7472C21.0645 15.7581 21.0512 15.769 21.0391 15.7787H21.0367ZM19.133 20.1135C19.3682 19.9438 19.5913 19.7837 19.8144 19.6237C19.8193 19.6309 19.8253 19.6394 19.8302 19.6467C19.7429 19.8128 19.2712 20.1426 19.133 20.1148V20.1135ZM20.8269 18.1468C20.7081 18.359 20.5953 18.5748 20.4583 18.7749C20.1964 19.1568 19.8605 19.4709 19.4907 19.7473C19.47 19.7619 19.447 19.7728 19.4252 19.7849C19.4191 19.7777 19.4131 19.7692 19.407 19.7619C19.9733 19.2478 20.4558 18.667 20.816 17.9879C20.8305 17.994 20.8451 18.0001 20.8596 18.0049C20.8499 18.0522 20.8511 18.1068 20.8281 18.1468H20.8269ZM19.1669 14.7492C19.2227 14.7601 19.2833 14.7601 19.333 14.7832C19.601 14.9117 19.8823 15.0233 20.1297 15.1833C20.6414 15.5131 20.9639 15.9812 21.0439 16.5959C21.0718 16.8093 21.0815 17.024 21.0985 17.2386C21.1009 17.2701 21.09 17.3016 21.0839 17.3332C21.0742 17.3332 21.0658 17.3344 21.0561 17.3356C21.0476 17.3029 21.033 17.2701 21.0294 17.2362C20.9869 16.7111 20.8596 16.2152 20.5238 15.7932C20.3601 15.5871 20.1576 15.4222 19.9369 15.2815C19.7089 15.136 19.4749 14.999 19.2445 14.8559C19.2118 14.8353 19.1827 14.8099 19.1511 14.7856C19.156 14.7735 19.1608 14.7614 19.1645 14.7492H19.1669ZM19.7126 15.3337C19.7235 15.3264 19.7344 15.3191 19.7453 15.3119C19.7974 15.3846 19.8556 15.4537 19.9017 15.5289C19.9927 15.678 20.0787 15.8296 20.1636 15.9824C20.2061 16.0576 20.1636 16.123 20.1345 16.2031C19.989 15.9012 19.8508 15.6174 19.7126 15.3337ZM19.9732 16.0927C19.9575 16.0976 19.9429 16.1012 19.9272 16.1061C19.909 16.0406 19.8908 15.9751 19.8738 15.9096C19.8872 15.906 19.9017 15.9024 19.915 15.8987C19.9345 15.963 19.9538 16.0273 19.9732 16.0927ZM19.8556 15.7823C19.8411 15.7908 19.8265 15.7981 19.8132 15.8066C19.7611 15.7144 19.7089 15.6223 19.6568 15.5313L19.7004 15.5071C19.7526 15.5992 19.8047 15.6914 19.8568 15.7835L19.8556 15.7823ZM20.4849 15.9969C20.5043 15.9969 20.5237 15.9969 20.5431 15.9969C20.5565 16.0515 20.5916 16.1109 20.5807 16.1594C20.5165 16.4298 20.3867 16.6711 20.2097 16.8857C20.2061 16.8894 20.1976 16.8894 20.1721 16.8967C20.16 16.5474 20.3746 16.2916 20.4849 15.9982V15.9969ZM20.3031 16.0661C20.3079 15.9763 20.3128 15.8866 20.3176 15.7969C20.3285 15.792 20.3394 15.7872 20.3503 15.7823C20.3746 15.8126 20.4219 15.8466 20.4183 15.872C20.4073 15.9424 20.3746 16.0091 20.3503 16.077C20.3346 16.0733 20.3176 16.0697 20.3019 16.0648L20.3031 16.0661ZM19.9951 15.4913C20.2145 15.5313 20.2764 15.7108 20.1636 15.8393C20.0945 15.7241 20.0096 15.6283 19.9951 15.4913ZM20.5019 16.5559C20.5468 16.4832 20.5795 16.4031 20.6232 16.3292C20.6353 16.3086 20.662 16.2977 20.6826 16.2819C20.6959 16.3061 20.725 16.3328 20.7214 16.3559C20.7129 16.4201 20.7032 16.4868 20.6741 16.5438C20.4995 16.8906 20.2958 17.2192 20.0521 17.5223C20.0424 17.5345 20.0278 17.5417 19.9927 17.5684C20.0108 17.4035 20.0181 17.2459 20.1127 17.1464C20.2776 16.9694 20.3782 16.7572 20.5031 16.5571L20.5019 16.5559ZM20.5371 16.927C20.622 16.8045 20.6935 16.6723 20.7735 16.5414C20.8584 16.6032 20.8305 16.6651 20.8026 16.716C20.7093 16.887 20.6183 17.0603 20.5092 17.2216C20.3552 17.4484 20.1879 17.6654 20.023 17.8837C19.9963 17.9188 19.9551 17.9431 19.9138 17.9795C19.8653 17.8909 19.8896 17.8315 19.9344 17.7697C20.1369 17.4908 20.3407 17.2107 20.5371 16.9282V16.927ZM20.7481 16.973C20.7772 16.927 20.8099 16.8821 20.8402 16.836C20.8523 16.8409 20.8657 16.8457 20.8778 16.8506C20.8657 16.8954 20.8596 16.9439 20.8402 16.9864C20.6232 17.4568 20.3237 17.874 19.9999 18.2753C19.909 18.3869 19.8205 18.5009 19.7283 18.6112C19.7065 18.6379 19.6774 18.6597 19.6531 18.6839C19.641 18.6767 19.6301 18.6694 19.618 18.6621C19.6665 18.5312 19.6738 18.3857 19.7792 18.2741C20.1539 17.8788 20.4619 17.435 20.7469 16.973H20.7481ZM19.2591 15.0305C19.4288 15.3203 19.6059 15.6065 19.7574 15.9048C19.8665 16.1206 19.9429 16.3534 20.0254 16.5826C20.0436 16.6335 20.0278 16.6978 20.0278 16.756C20.0169 16.7572 20.006 16.7584 19.9939 16.7596C19.9817 16.7208 19.9672 16.682 19.9587 16.642C19.8823 16.2843 19.6932 15.986 19.4797 15.6962C19.3415 15.5083 19.2154 15.3119 19.0942 15.1142C19.0554 15.0524 19.0469 14.9711 19.0214 14.885C19.1487 14.8935 19.2142 14.9542 19.2591 15.0318V15.0305ZM18.7668 14.7832C18.808 14.8026 18.8626 14.8111 18.8856 14.8438C18.928 14.9044 18.945 14.982 18.9838 15.0451C19.1572 15.324 19.3245 15.6065 19.5125 15.8745C19.7526 16.2164 19.9126 16.5814 19.9284 17.0034C19.9308 17.0652 19.9429 17.1258 19.9539 17.2107C19.9417 17.2277 19.9199 17.258 19.8981 17.2883C19.8799 17.2604 19.852 17.235 19.8435 17.2046C19.7671 16.8967 19.675 16.5959 19.561 16.2964C19.4664 16.0454 19.2857 15.8696 19.1608 15.6489C19.0299 15.4173 18.9001 15.1857 18.7704 14.9529C18.7607 14.936 18.7546 14.9141 18.7559 14.8935C18.7559 14.8571 18.7619 14.8196 18.7656 14.7832H18.7668ZM18.4636 14.6547C18.4952 14.6595 18.5352 14.6547 18.5546 14.6728C18.5934 14.7056 18.6285 14.748 18.6504 14.7941C18.688 14.8778 18.7158 14.9651 18.7449 15.0524C18.7595 15.096 18.768 15.1421 18.7789 15.1857C18.768 15.1918 18.7571 15.1979 18.7462 15.2027C18.7146 15.1651 18.6782 15.13 18.654 15.0887C18.5885 14.9772 18.5243 14.8644 18.4661 14.7492C18.4527 14.7238 18.4636 14.685 18.4648 14.6534L18.4636 14.6547ZM18.2078 14.4728C18.2454 14.5188 18.2999 14.5589 18.3169 14.611C18.443 14.9905 18.6819 15.2997 18.9317 15.6004C19.1705 15.8878 19.4288 16.1643 19.561 16.5195C19.6556 16.7742 19.715 17.0434 19.7817 17.3077C19.8011 17.3853 19.8411 17.4714 19.7635 17.5805C19.7344 17.4944 19.7077 17.4314 19.6907 17.3647C19.5864 16.95 19.4397 16.5523 19.2081 16.1934C18.9887 15.8539 18.7449 15.5313 18.517 15.1979C18.3703 14.9833 18.2575 14.7504 18.1702 14.5055C18.1823 14.4946 18.1957 14.4849 18.2078 14.474V14.4728ZM19.4397 17.4399C19.4058 17.3792 19.3755 17.3162 19.3379 17.2568C19.1972 17.0349 19.0602 16.8093 18.9099 16.5935C18.6067 16.157 18.2842 15.735 17.9956 15.29C17.8719 15.0984 17.8064 14.8668 17.7264 14.6486C17.6706 14.4982 17.633 14.3406 17.5942 14.1842C17.587 14.1539 17.6064 14.1175 17.6124 14.0835C17.6439 14.1029 17.69 14.1163 17.7022 14.1442C17.7834 14.3248 17.8707 14.5055 17.9325 14.6935C18.0453 15.0354 18.2502 15.3203 18.4551 15.6089C18.6686 15.9109 18.8929 16.2067 19.0832 16.522C19.2251 16.7572 19.3233 17.0203 19.4373 17.2725C19.4591 17.3198 19.464 17.3756 19.4761 17.4265C19.464 17.4314 19.4506 17.435 19.4385 17.4399H19.4397ZM19.5464 17.3356C19.5125 17.241 19.4846 17.144 19.4446 17.0506C19.2481 16.5959 18.9911 16.1776 18.6867 15.786C18.4091 15.4295 18.1459 15.0609 17.9871 14.6292C17.9495 14.5273 17.8901 14.4328 17.8452 14.3321C17.8343 14.3079 17.8404 14.2751 17.8392 14.246C17.8695 14.2533 17.9034 14.2533 17.9289 14.2678C18.032 14.3285 18.0647 14.4364 18.0987 14.5407C18.2078 14.8741 18.3921 15.1651 18.591 15.4501C18.7947 15.7423 19.0117 16.026 19.1936 16.3316C19.3621 16.6153 19.5101 16.9161 19.567 17.2495C19.5719 17.275 19.5707 17.3016 19.5719 17.3283C19.5634 17.3307 19.5561 17.332 19.5476 17.3344L19.5464 17.3356ZM19.5683 18.8998C20.0339 18.3857 20.4486 17.834 20.8038 17.2398C20.8245 17.2046 20.8548 17.1743 20.8802 17.1416L20.913 17.1561C20.9045 17.1913 20.9021 17.2277 20.8863 17.2592C20.6171 17.8182 20.2655 18.3226 19.8629 18.7931C19.7489 18.9252 19.6349 19.0574 19.5198 19.1884C19.5004 19.2114 19.4713 19.2247 19.4361 19.2344C19.447 19.1059 19.4846 18.9919 19.5683 18.8998ZM20.525 18.0401C20.6329 17.8861 20.7226 17.72 20.822 17.5599C20.8463 17.5211 20.8742 17.4835 20.9009 17.4447C20.9118 17.4484 20.9227 17.4508 20.9348 17.4544C20.9287 17.4932 20.9312 17.5345 20.9166 17.5708C20.5832 18.416 20.0205 19.0938 19.3476 19.6879C19.3185 19.7134 19.2809 19.7267 19.2227 19.7607C19.219 19.6043 19.2882 19.5121 19.3706 19.4394C19.8253 19.0307 20.1782 18.5372 20.5262 18.0401H20.525ZM19.3512 18.9628C19.3318 18.9143 19.31 18.8816 19.3051 18.8452C19.2348 18.3844 19.082 17.9588 18.791 17.5878C18.768 17.5587 18.7571 17.5223 18.7304 17.4714C19.0117 17.5902 19.4785 18.7118 19.35 18.9616L19.3512 18.9628ZM18.9996 18.7482C18.9826 18.7264 18.9583 18.707 18.9486 18.6827C18.7837 18.2402 18.4879 17.8776 18.2199 17.4981C17.9992 17.1852 17.8016 16.8566 17.5967 16.5341C17.576 16.5014 17.5736 16.4577 17.5627 16.4189C17.5712 16.4141 17.5809 16.408 17.5894 16.4031C17.6148 16.4274 17.6427 16.4504 17.667 16.4759C17.7701 16.5814 17.8719 16.6869 17.9738 16.7936C17.9968 16.8178 18.0283 16.8433 18.0368 16.8724C18.1411 17.2228 18.4006 17.4811 18.5703 17.7927C18.7183 18.0655 18.8577 18.3444 18.9984 18.6221C19.0153 18.6561 19.0141 18.6985 19.0226 18.7373C19.0141 18.7409 19.0069 18.7446 18.9984 18.7494L18.9996 18.7482ZM18.8153 18.068C18.6758 17.817 18.5158 17.5781 18.3642 17.3332C18.346 17.3029 18.3315 17.2689 18.3157 17.2374C18.751 17.4229 19.4191 18.8683 19.2312 19.2344C19.2009 19.1168 19.1669 19.0247 19.156 18.9313C19.1196 18.6124 18.9644 18.3408 18.8141 18.0692L18.8153 18.068ZM11.7061 19.7352C11.5788 20.1099 11.3278 20.3949 11.0416 20.6519C11.1944 20.2942 11.3811 19.9632 11.7061 19.7352ZM14.1676 27.5659C14.1809 27.464 14.1785 27.3791 14.2027 27.3027C14.4258 26.5934 14.8345 25.9847 15.2564 25.3845C15.2649 25.3724 15.2855 25.3687 15.3013 25.3614C15.4517 26.0975 14.8126 27.39 14.1664 27.5659H14.1676ZM18.4103 20.5634C18.3945 20.5391 18.3739 20.5173 18.3654 20.4919C18.209 20.0044 17.8998 19.6091 17.5833 19.2211C17.4208 19.0222 17.2414 18.8355 17.0947 18.6257C16.9819 18.4645 16.9091 18.2753 16.8194 18.0983C16.8085 18.0765 16.8121 18.0486 16.8243 18.0134C17.2559 18.4511 17.6755 18.8986 17.9944 19.4248C18.2054 19.774 18.3836 20.139 18.4527 20.5452C18.4382 20.5513 18.4236 20.5585 18.4091 20.5646L18.4103 20.5634ZM18.5703 20.5404C18.5594 20.5149 18.5449 20.4894 18.5376 20.4628C18.4333 20.0578 18.2623 19.6843 18.0392 19.3314C17.7591 18.8877 17.4075 18.5057 17.0595 18.1177C16.7588 17.7818 16.5102 17.4083 16.2907 17.0155C16.2762 16.9888 16.275 16.9536 16.2677 16.9221C16.2762 16.9197 16.2835 16.9173 16.292 16.9148C16.4302 17.1004 16.5587 17.2944 16.7079 17.4702C16.9467 17.7527 17.2086 18.0158 17.4427 18.3032C17.6549 18.5627 17.8598 18.8307 18.0356 19.1156C18.2078 19.3933 18.3484 19.6928 18.483 19.9911C18.5437 20.1257 18.5582 20.2821 18.5897 20.43C18.597 20.464 18.5897 20.5016 18.5703 20.5428V20.5404Z" fill="#2B241B"/>
</svg>
